<?xml version="1.0" encoding="UTF-8" standalone="no"?>
<!-- Created with Inkscape (http://www.inkscape.org/) -->

<svg
   version="1.1"
   id="svg2"
   width="366.66666"
   height="97.333336"
   viewBox="0 0 366.66666 97.333336"
   sodipodi:docname="LOGOTIPO CMYK-4.eps"
   xmlns:inkscape="http://www.inkscape.org/namespaces/inkscape"
   xmlns:sodipodi="http://sodipodi.sourceforge.net/DTD/sodipodi-0.dtd"
   xmlns="http://www.w3.org/2000/svg"
   xmlns:svg="http://www.w3.org/2000/svg">
  <defs
     id="defs6" />
  <sodipodi:namedview
     id="namedview4"
     pagecolor="#ffffff"
     bordercolor="#000000"
     borderopacity="0.25"
     inkscape:showpageshadow="2"
     inkscape:pageopacity="0.0"
     inkscape:pagecheckerboard="0"
     inkscape:deskcolor="#d1d1d1" />
  <g
     id="g8"
     inkscape:groupmode="layer"
     inkscape:label="ink_ext_XXXXXX"
     transform="matrix(1.3333333,0,0,-1.3333333,0,97.333333)">
    <g
       id="g10"
       transform="scale(0.1)">
      <path
         d="m 1618.55,145.105 c -24.5,0 -44.68,4.012 -60.51,11.922 -15.81,7.918 -28.29,18.543 -37.4,31.985 -9.1,13.445 -15.5,28.402 -19.18,44.879 -3.69,16.484 -5.53,33.172 -5.53,50.093 0,7.801 0,16.036 0,24.707 0,8.684 0,17.567 0,26.668 v 161.653 h 100.82 V 351.301 c 0,-7.367 0,-14.528 0,-21.461 0,-6.942 0,-13.34 0,-19.192 0,-14.531 1.63,-27.863 4.88,-40 3.25,-12.144 9.32,-21.906 18.1,-29.277 8.79,-7.367 21.25,-11.058 37.52,-11.058 15.82,0 29.27,4.55 40.32,13.554 11.06,9 19.52,20.492 25.37,34.582 5.85,14.094 8.79,28.621 8.79,43.578 l 28.29,-23.089 c 0,-21.684 -3.25,-41.844 -9.86,-60.489 -6.62,-18.652 -16.05,-34.914 -28.2,-48.894 -12.14,-13.985 -26.88,-24.942 -44.33,-32.739 -17.46,-7.812 -37.19,-11.711 -59.08,-11.711 z m 888.96,-0.652 c -25.15,0 -47.48,4.012 -67.11,12.035 -19.62,8.024 -35.02,19.617 -46.07,34.801 -11.06,15.176 -16.59,33.609 -16.59,55.289 0,24.504 6.72,44.445 20.17,59.836 13.44,15.406 31.32,27.219 53.55,35.348 22.22,8.125 46.29,13.445 72.31,16.047 37.94,3.687 64.18,7.05 78.59,10.082 8.33,1.746 21.58,5.519 21.58,16.148 0,13.93 -6.56,23.613 -18.33,30.688 -12.24,7.367 -29.36,11.054 -51.27,11.054 -23.2,0 -40.87,-4.121 -53.12,-12.468 -9.45,-6.442 -15.29,-15.528 -17.47,-27.211 h -99.73 c 1.78,22.972 9.21,42.703 22.23,59.187 15.07,19.082 35.46,33.609 61.25,43.481 25.8,9.867 54.97,14.738 87.49,14.738 30.36,0 58.44,-4.543 84.23,-13.766 25.81,-9.211 46.62,-23.086 62.35,-41.519 15.71,-18.43 23.52,-41.844 23.52,-70.25 0,-9 0,-17.993 0,-26.993 V 228.691 c 0,-24.277 3.79,-51.808 18.55,-77.078 h -103.12 c -7.59,14.95 -8.88,24.551 -11.89,36.559 -3.84,-4.125 -8.15,-8 -12.93,-11.625 -13.54,-10.297 -29.6,-18.223 -48.13,-23.746 -18.54,-5.531 -38.59,-8.348 -60.06,-8.348 z m 118.04,162.516 c -7.69,-1.93 -15.84,-3.664 -24.48,-5.215 -18.76,-3.356 -37.51,-6.07 -56.16,-8.02 -22.12,-2.164 -38.59,-5.855 -49.54,-11.164 -10.96,-5.316 -16.48,-14.316 -16.48,-26.89 0,-11.922 4.66,-20.817 13.98,-26.774 9.32,-5.961 23.21,-8.996 41.63,-8.996 15.83,0 30.68,2.922 44.45,8.668 13.77,5.75 24.93,14.746 33.6,27.102 10.7,15.238 13.1,33.125 13,51.289 z M 2183.32,143.797 c -20.59,0 -40.43,2.394 -59.52,7.16 -19.07,4.77 -36.09,11.82 -51.16,21.145 -15.07,9.32 -26.99,21.031 -35.78,35.015 -8.77,13.981 -13.22,30.242 -13.22,48.891 0,0.863 0,1.953 0,3.144 0,1.192 0,2.063 0,2.719 h 100.16 c 0,-0.656 0,-1.305 0,-2.062 0,-0.77 0,-1.633 0,-2.496 0,-12.575 5.65,-21.793 16.82,-27.641 11.16,-5.863 26.22,-8.793 45.31,-8.793 9.97,0 19.62,1.094 28.85,3.144 9.2,2.063 16.79,5.43 22.76,10.082 5.96,4.668 8.89,10.52 8.89,17.68 0,11.481 -6.3,19.613 -18.97,24.387 -12.68,4.769 -33.07,9.547 -61.04,14.308 -15.83,2.606 -31.87,6.29 -48.14,11.067 -16.26,4.762 -31.22,11.156 -44.88,19.078 -13.66,7.91 -24.61,17.988 -32.85,30.246 -8.24,12.246 -12.35,27.102 -12.35,44.66 0,23.422 7.14,43.149 21.35,59.192 14.2,16.047 33.07,28.195 56.69,36.425 23.64,8.247 49.66,12.36 78.06,12.36 27.11,0 52.37,-4.445 75.79,-13.438 23.41,-8.996 42.38,-21.898 56.91,-38.703 14.52,-16.804 21.78,-37.078 21.78,-60.707 0,-0.433 0,-1.086 0,-1.953 0,-0.875 0,-1.734 0,-2.605 h -99.19 c 0,0.871 0,1.625 0,2.277 0,0.644 0,1.195 0,1.625 0,8.672 -2.7,15.723 -8.24,21.137 -5.53,5.422 -12.57,9.543 -21.03,12.254 -8.45,2.71 -17.23,4.015 -26.34,4.015 -8.24,0 -16.69,-0.871 -25.48,-2.715 -8.78,-1.843 -16.26,-4.875 -22.33,-9.105 -6.07,-4.227 -9.11,-10.188 -9.11,-17.781 0,-7.368 3.25,-13.329 9.76,-17.996 6.5,-4.665 15.61,-8.454 27.32,-11.379 11.71,-2.926 25.26,-5.75 40.66,-8.348 14.51,-2.391 29.92,-5.645 46.07,-9.867 16.16,-4.223 31.33,-10.192 45.53,-17.891 14.2,-7.695 25.69,-17.777 34.48,-30.242 8.78,-12.469 13.11,-28.297 13.11,-47.375 0,-19.734 -4.55,-36.645 -13.65,-50.738 -9.12,-14.094 -21.36,-25.481 -36.87,-34.266 -15.5,-8.773 -32.73,-15.277 -51.7,-19.504 -18.98,-4.234 -38.49,-6.406 -58.45,-6.406 z M 1052.43,588.191 V 151.859 h 104.37 v 138.442 h 153.67 c 193.24,0 196.59,297.89 -7.9,297.89 z m 250.14,-91.425 c 72.88,0 71.08,-115.028 7.9,-115.028 H 1156.8 v 115.028 z m 680.81,91.425 V 151.613 h -99.52 V 588.191 Z M 1731.73,151.613 v 345.399 h 100.81 V 151.613 h -100.81"
         style="fill:#343334;fill-opacity:1;fill-rule:nonzero;stroke:none"
         id="path12" />
      <path
         d="M 489.648,619.66 V 244.684 C 489.648,111.242 380.43,2.04297 247.008,2.04297 h -0.012 C 113.566,2.04297 4.35547,111.242 4.35547,244.684 v 362.484 c 0,6.879 5.61328,12.492 12.50003,12.492 H 489.648"
         style="fill:#42b9c0;fill-opacity:1;fill-rule:evenodd;stroke:none"
         id="path14" />
      <path
         d="m 127.156,729.957 h 362.489 c 133.421,0 242.617,-109.191 242.617,-242.625 v -0.019 C 732.262,353.875 623.035,244.68 489.645,244.68 H 206.363 114.656 v 1.988 470.797 c 0,6.879 5.614,12.492 12.5,12.492"
         style="fill:#4b60b6;fill-opacity:1;fill-rule:evenodd;stroke:none"
         id="path16" />
      <path
         d="M 489.645,244.68 H 224.953 l -88.969,-88.969 c -3.648,-3.652 -8.847,-4.684 -13.613,-2.707 -4.769,1.98 -7.715,6.383 -7.715,11.539 v 80.137 374.988 h 362.489 c 6.882,0 12.5,-5.613 12.5,-12.492 V 244.68"
         style="fill:#352f91;fill-opacity:1;fill-rule:evenodd;stroke:none"
         id="path18" />
    </g>
  </g>
</svg>
