<?xml version="1.0" encoding="UTF-8" standalone="no"?>
<!-- Created with Inkscape (http://www.inkscape.org/) -->

<svg
   version="1.1"
   id="svg2"
   width="230.66667"
   height="249.33333"
   viewBox="0 0 230.66667 249.33333"
   sodipodi:docname="LOGOTIPO CMYK-5.eps"
   xmlns:inkscape="http://www.inkscape.org/namespaces/inkscape"
   xmlns:sodipodi="http://sodipodi.sourceforge.net/DTD/sodipodi-0.dtd"
   xmlns="http://www.w3.org/2000/svg"
   xmlns:svg="http://www.w3.org/2000/svg">
  <defs
     id="defs6" />
  <sodipodi:namedview
     id="namedview4"
     pagecolor="#ffffff"
     bordercolor="#000000"
     borderopacity="0.25"
     inkscape:showpageshadow="2"
     inkscape:pageopacity="0.0"
     inkscape:pagecheckerboard="0"
     inkscape:deskcolor="#d1d1d1" />
  <g
     id="g8"
     inkscape:groupmode="layer"
     inkscape:label="ink_ext_XXXXXX"
     transform="matrix(1.3333333,0,0,-1.3333333,0,249.33333)">
    <g
       id="g10"
       transform="scale(0.1)">
      <path
         d="m 51.0703,579.805 c -4.7695,10.527 -6.8164,20.812 -6.1445,30.851 0.664,10.039 3.8828,19.117 9.6523,27.239 5.7617,8.109 13.9102,14.554 24.4336,19.308 10.461,4.742 20.5899,6.551 30.3633,5.469 9.781,-1.09 18.598,-4.719 26.414,-10.922 7.824,-6.203 14.106,-14.574 18.859,-25.098 3.575,-7.898 5.575,-15.41 6.012,-22.539 0.426,-7.121 -0.32,-13.652 -2.297,-19.562 -1.957,-5.91 -4.754,-10.988 -8.375,-15.27 -3.613,-4.269 -7.726,-7.453 -12.297,-9.519 -0.125,-0.055 -0.257,-0.114 -0.375,-0.176 -0.128,-0.055 -0.253,-0.109 -0.378,-0.164 l -11.09,24.539 c 0.304,0.133 0.636,0.324 0.984,0.562 0.348,0.227 0.703,0.461 1.043,0.688 2.965,1.953 5.309,4.551 6.973,7.801 1.66,3.234 2.484,6.933 2.492,11.097 0.008,4.153 -1.094,8.672 -3.301,13.551 -2.359,5.207 -5.625,9.426 -9.851,12.684 -4.227,3.261 -9.227,5.117 -14.954,5.582 -5.714,0.476 -11.9957,-0.817 -18.8277,-3.91 -6.7735,-3.063 -11.9336,-6.907 -15.5313,-11.555 -3.5937,-4.645 -5.6562,-9.691 -6.1953,-15.109 -0.5313,-5.407 0.3711,-10.735 2.7539,-16.004 2.5156,-5.571 5.4648,-9.758 8.7812,-12.508 3.3399,-2.766 6.8555,-4.375 10.5899,-4.883 3.7383,-0.492 7.3711,-0.098 10.9293,1.211 l 11.137,-24.629 c -4.637,-2.098 -9.754,-3.125 -15.3905,-3.109 -5.6328,0.019 -11.336,1.211 -17.0938,3.586 -5.7578,2.386 -11.164,6.086 -16.25,11.152 -5.0742,5.059 -9.4414,11.613 -13.0664,19.637 z M 154.617,1253.58 c -4.762,-10.53 -11.121,-18.86 -19.105,-24.99 -7.977,-6.13 -16.926,-9.71 -26.828,-10.74 -9.8949,-1.04 -20.1137,0.82 -30.6332,5.58 -10.4727,4.73 -18.5195,11.12 -24.168,19.19 -5.6406,8.06 -8.7344,17.08 -9.2422,27.05 -0.5156,9.96 1.6133,20.21 6.3789,30.74 3.5664,7.89 7.8868,14.35 12.9493,19.39 5.0742,5.03 10.4648,8.78 16.207,11.2 5.7305,2.43 11.3906,3.69 17,3.8 5.5902,0.11 10.6952,-0.87 15.2622,-2.94 0.132,-0.06 0.257,-0.11 0.378,-0.18 0.129,-0.05 0.25,-0.11 0.372,-0.17 l -11.086,-24.53 c -0.305,0.14 -0.664,0.26 -1.075,0.37 -0.398,0.11 -0.808,0.22 -1.2067,0.33 -3.4297,0.94 -6.918,0.97 -10.457,0.07 -3.5391,-0.89 -6.8477,-2.71 -9.9805,-5.45 -3.1211,-2.73 -5.7851,-6.55 -7.9922,-11.44 -2.3593,-5.2 -3.3593,-10.44 -3.0234,-15.77 0.3516,-5.32 2.2578,-10.3 5.6914,-14.91 3.4219,-4.6 8.5391,-8.46 15.3672,-11.56 6.7734,-3.05 13.0702,-4.39 18.9412,-4.02 5.867,0.37 11.008,2.16 15.434,5.33 4.406,3.16 7.816,7.37 10.199,12.64 2.516,5.57 3.715,10.55 3.59,14.86 -0.125,4.33 -1.242,8.03 -3.328,11.17 -2.106,3.14 -4.805,5.6 -8.133,7.41 l 11.141,24.62 c 4.628,-2.09 8.781,-5.25 12.492,-9.49 3.707,-4.25 6.578,-9.31 8.597,-15.2 2.016,-5.91 2.813,-12.4 2.371,-19.57 -0.445,-7.16 -2.488,-14.76 -6.113,-22.79 z m 55.781,103.38 c -4.414,-6.89 -9.39,-12.24 -14.898,-16.06 -5.516,-3.82 -11.258,-5.9 -17.273,-6.21 -6,-0.32 -11.891,1.38 -17.68,5.09 -6.313,4.04 -10.41,9.12 -12.285,15.19 -1.867,6.06 -2.059,12.71 -0.539,19.99 1.515,7.27 4.261,14.67 8.187,22.2 5.707,11.21 9.434,19.23 11.168,24.04 1.727,4.82 1.539,7.89 -0.605,9.25 -0.055,0.04 -0.118,0.09 -0.141,0.1 -0.039,0.01 -0.039,0.01 -0.039,0.01 -4.051,2.61 -8.348,2.79 -12.883,0.55 -4.543,-2.24 -8.941,-6.69 -13.207,-13.35 -4.492,-7 -6.711,-13.13 -6.644,-18.45 0.07,-5.32 2.769,-9.7 8.093,-13.11 l -14.472,-22.58 c -7.242,4.64 -12.133,10.51 -14.68,17.57 -2.531,7.07 -2.945,14.77 -1.25,23.15 1.711,8.39 5.281,16.84 10.734,25.36 5.086,7.92 10.934,14.43 17.539,19.5 6.606,5.09 13.594,8.08 20.961,9 7.368,0.91 14.641,-0.93 21.809,-5.53 1.227,-0.79 2.445,-1.57 3.652,-2.35 1.223,-0.78 2.434,-1.56 3.653,-2.34 l 34.734,-22.27 c 2.211,-1.41 4.41,-2.69 6.609,-3.91 2.2,-1.2 4.305,-2.14 6.282,-2.75 2.226,-0.6 4.234,-0.91 6.023,-0.92 1.789,-0.01 3.074,0.07 3.832,0.24 l -14.473,-22.58 c -0.667,-0.15 -1.839,-0.18 -3.484,-0.14 -1.652,0.03 -3.433,0.24 -5.371,0.66 -2.113,0.53 -4.266,1.32 -6.457,2.3 -2.18,1 -4.473,2.25 -6.906,3.82 l 6.023,2.52 c 2.418,-4.01 3.801,-8.61 4.149,-13.87 0.359,-5.24 -0.317,-10.81 -2.024,-16.66 -1.711,-5.85 -4.426,-11.67 -8.137,-17.46 z m -14.414,17.08 c 3.043,4.75 5.063,9.67 6.036,14.76 0.98,5.09 0.562,9.98 -1.235,14.64 -1.789,4.66 -5.34,8.69 -10.668,12.1 l -12.332,7.91 9.824,1.55 c -0.992,-4.6 -2.726,-9.77 -5.168,-15.56 -2.433,-5.79 -5.089,-11.52 -7.992,-17.19 -3.734,-7.24 -5.832,-13.12 -6.304,-17.68 -0.469,-4.55 1.25,-8.11 5.187,-10.64 3.82,-2.45 7.613,-2.84 11.383,-1.18 3.762,1.69 7.523,5.45 11.269,11.29 z m 68.231,60.67 -82.817,71.73 17.762,20.51 27.531,-23.84 -6.769,-2.47 c -3.141,3.63 -5.715,7.54 -7.695,11.71 -1.977,4.18 -3.164,8.48 -3.559,12.9 -0.387,4.45 0.199,8.9 1.723,13.39 1.535,4.51 4.136,8.89 7.828,13.15 2.933,3.38 5.48,5.85 7.672,7.37 2.179,1.53 3.625,2.36 4.347,2.56 l 15.555,-20.02 c -0.813,-0.2 -2.188,-0.84 -4.105,-1.95 -1.915,-1.12 -4.024,-3.03 -6.325,-5.68 -3.644,-4.2 -5.98,-8.33 -7.011,-12.39 -1.02,-4.07 -1.059,-8 -0.079,-11.75 0.973,-3.77 2.59,-7.27 4.844,-10.49 2.254,-3.22 4.836,-6.08 7.688,-8.56 l 41.168,-35.67 z m 98.777,96.4 c -6.808,-5.9 -14.539,-9.7 -23.199,-11.42 -8.656,-1.71 -17.516,-0.88 -26.582,2.55 -9.066,3.42 -17.684,9.85 -25.824,19.24 -7.93,9.16 -12.852,18.47 -14.774,27.89 -1.933,9.43 -1.425,18.29 1.539,26.59 2.953,8.29 7.746,15.31 14.411,21.07 6.496,5.63 13.878,9.25 22.148,10.82 8.281,1.58 16.551,0.97 24.785,-1.83 8.234,-2.77 15.531,-7.83 21.887,-15.16 0.172,-0.21 0.355,-0.42 0.539,-0.63 0.172,-0.21 0.359,-0.41 0.535,-0.62 l -9.93,-9.02 c -0.14,0.16 -0.293,0.34 -0.449,0.53 -0.16,0.17 -0.301,0.33 -0.437,0.49 -3.559,4.1 -7.676,6.81 -12.383,8.1 -4.715,1.29 -9.465,1.42 -14.219,0.34 -4.762,-1.07 -8.949,-3.21 -12.598,-6.36 -5.976,-5.18 -9.336,-11.59 -10.058,-19.27 -0.719,-7.68 2.695,-15.88 10.219,-24.55 7.468,-8.63 15.097,-13.18 22.859,-13.64 7.766,-0.45 14.644,1.91 20.617,7.07 3.793,3.3 6.512,7.25 8.16,11.85 1.649,4.62 2.09,9.42 1.332,14.35 -0.781,4.93 -2.961,9.45 -6.566,13.61 l 10.543,8.31 c 6.301,-7.28 10.398,-15.25 12.254,-23.96 1.863,-8.72 1.539,-17.18 -0.942,-25.33 -2.48,-8.17 -7.109,-15.17 -13.867,-21.02 z m 24.641,24.33 -105.57,121.88 20.578,17.83 105.574,-121.87 z m 47.359,32.5 -59.137,92.24 22.583,14.47 59.128,-92.23 z M 376.32,1704.5 c -3.703,-2.37 -7.574,-3.43 -11.601,-3.18 -4.028,0.22 -7.199,2.11 -9.496,5.7 -2.266,3.54 -2.637,7.17 -1.16,10.91 1.488,3.73 4.078,6.77 7.781,9.14 3.648,2.34 7.465,3.41 11.445,3.18 3.984,-0.23 7.106,-2.1 9.367,-5.64 2.309,-3.59 2.731,-7.24 1.282,-10.98 -1.43,-3.74 -3.977,-6.8 -7.618,-9.13 z m 156.649,-63.84 c -10.539,-4.75 -20.817,-6.72 -30.832,-5.92 -10.016,0.8 -19.043,4.06 -27.129,9.85 -8.086,5.77 -14.43,13.7 -18.996,23.79 -4.582,10.16 -6.348,20.16 -5.305,29.95 1.051,9.79 4.59,18.67 10.629,26.69 6.031,8.01 14.312,14.39 24.852,19.15 10.527,4.76 20.792,6.76 30.796,6 10.004,-0.76 19.036,-3.96 27.082,-9.65 8.047,-5.68 14.344,-13.63 18.934,-23.78 4.563,-10.09 6.352,-20.08 5.355,-29.96 -1.003,-9.89 -4.542,-18.85 -10.566,-26.89 -6.031,-8.04 -14.293,-14.46 -24.82,-19.23 z m -9.145,20.22 c 5.711,2.58 10.102,6.14 13.164,10.7 3.078,4.56 4.731,9.76 4.965,15.57 0.242,5.81 -1.066,11.89 -3.957,18.29 -2.894,6.39 -6.594,11.39 -11.078,14.99 -4.496,3.6 -9.441,5.7 -14.867,6.33 -5.414,0.66 -10.985,-0.31 -16.692,-2.89 -5.632,-2.56 -10.004,-6.08 -13.144,-10.59 -3.129,-4.5 -4.856,-9.62 -5.125,-15.37 -0.27,-5.74 1.051,-11.83 3.933,-18.22 2.895,-6.4 6.59,-11.4 11.11,-15.06 4.523,-3.66 9.547,-5.84 15.027,-6.53 5.481,-0.69 11.028,0.23 16.664,2.78 z m 62.196,175.5 51.671,-152.74 -25.308,-8.56 -51.676,152.73 z M 721.336,1701.4 c -11.375,-2.03 -21.82,-1.42 -31.34,1.81 -9.523,3.22 -17.469,8.61 -23.891,16.19 -6.421,7.58 -10.628,16.83 -12.57,27.73 -1.957,10.97 -1.215,21.09 2.199,30.34 3.411,9.24 9.012,16.98 16.836,23.26 7.821,6.29 17.418,10.45 28.793,12.48 11.367,2.03 21.817,1.46 31.328,-1.74 9.52,-3.18 17.489,-8.51 23.883,-15.99 6.406,-7.48 10.571,-16.73 12.535,-27.7 1.946,-10.9 1.239,-21.02 -2.16,-30.36 -3.398,-9.34 -9.019,-17.16 -16.84,-23.47 -7.808,-6.33 -17.394,-10.52 -28.773,-12.55 z m -3.898,21.83 c 6.156,1.11 11.292,3.48 15.382,7.15 4.098,3.66 6.973,8.3 8.625,13.88 1.664,5.57 1.883,11.78 0.649,18.69 -1.239,6.91 -3.598,12.68 -7.067,17.26 -3.472,4.58 -7.757,7.83 -12.859,9.78 -5.098,1.96 -10.727,2.39 -16.887,1.28 -6.097,-1.08 -11.191,-3.43 -15.34,-7.03 -4.14,-3.6 -7.066,-8.15 -8.746,-13.65 -1.66,-5.5 -1.882,-11.73 -0.648,-18.63 1.238,-6.91 3.59,-12.67 7.082,-17.32 3.48,-4.65 7.82,-8 12.953,-10.01 5.16,-2.02 10.762,-2.49 16.856,-1.4 z m 161.195,4.86 c 6.472,-0.45 12.176,-1.52 17.097,-3.18 4.926,-1.67 8.813,-4.21 11.665,-7.68 2.839,-3.48 4.332,-8.19 4.484,-14.1 0.164,-6.6 -1.934,-12.37 -6.274,-17.29 -4.351,-4.93 -10.781,-8.81 -19.347,-11.64 -8.57,-2.83 -19.153,-4.4 -31.738,-4.73 -18.286,-0.45 -32.415,1.83 -42.379,6.84 -9.969,5.02 -15.063,12 -15.289,21.02 -0.063,2.53 0.183,4.85 0.753,6.92 0.571,2.08 1.274,3.82 2.141,5.22 l 24.942,-2.98 c -0.403,-0.55 -0.793,-1.43 -1.168,-2.65 -0.387,-1.2 -0.555,-2.69 -0.508,-4.41 0.097,-4.26 3.07,-7.25 8.859,-9 5.785,-1.74 13.449,-2.51 23,-2.27 7.024,0.18 12.879,0.81 17.567,1.89 4.691,1.09 8.23,2.56 10.617,4.4 2.402,1.86 3.554,3.98 3.488,6.38 -0.086,3.58 -1.762,5.84 -5.023,6.79 -3.258,0.96 -7.118,1.55 -11.598,1.77 l -41.656,2.77 c -7.453,0.56 -13.59,2.61 -18.461,6.13 -4.875,3.53 -7.395,8.28 -7.547,14.26 -0.098,3.64 0.805,7.03 2.695,10.17 1.887,3.16 4.055,5.82 6.535,7.98 2.492,2.16 4.625,3.49 6.407,4.02 l 15.656,-7.24 c -1.438,-0.24 -3.102,-1.21 -5.016,-2.91 -1.914,-1.69 -2.863,-3.69 -2.805,-5.96 0.051,-2.13 1.063,-3.85 3.02,-5.22 1.961,-1.36 5.703,-2.26 11.211,-2.67 z m 9.769,99 24.336,0.62 -8.828,-42.75 c -1.648,-8.01 -4.461,-15.24 -8.426,-21.67 -3.961,-6.43 -9.336,-11.55 -16.125,-15.37 -6.773,-3.82 -15.398,-5.86 -25.851,-6.12 -10.86,-0.28 -20.25,1.27 -28.215,4.61 -7.965,3.35 -14.172,8.17 -18.605,14.49 -4.426,6.32 -6.735,13.65 -6.95,22.05 -0.218,8.59 1.793,16.24 5.992,22.93 4.192,6.67 10.079,11.94 17.645,15.86 7.574,3.9 16.191,5.97 25.887,6.22 7.84,0.2 14.922,-0.9 21.242,-3.32 6.324,-2.41 11.426,-5.66 15.273,-9.69 3.86,-4.02 5.965,-8.38 6.352,-13.04 l -6.051,-1.3 z m -35.527,-64.37 c 5.305,0.14 9.848,1.12 13.656,2.93 3.809,1.82 6.735,4.4 8.778,7.73 2.05,3.32 3.015,7.3 2.902,11.96 -0.117,4.62 -1.289,8.54 -3.496,11.79 -2.215,3.25 -5.274,5.72 -9.168,7.37 -3.895,1.66 -8.461,2.4 -13.676,2.27 -5.09,-0.13 -9.574,-1.14 -13.449,-3.03 -3.867,-1.88 -6.863,-4.51 -9.024,-7.9 -2.144,-3.38 -3.179,-7.41 -3.062,-12.02 0.117,-4.59 1.32,-8.48 3.566,-11.7 2.25,-3.21 5.336,-5.61 9.27,-7.19 3.922,-1.59 8.488,-2.34 13.703,-2.21 z m 84.461,-49.06 13.801,108.7 26.613,-3.39 -13.816,-108.69 z m 29.762,127.05 c -4.368,0.55 -8.008,2.22 -10.946,5 -2.941,2.75 -4.16,6.24 -3.625,10.48 0.524,4.15 2.575,7.19 6.118,9.1 3.523,1.91 7.464,2.57 11.824,2.02 4.304,-0.54 7.914,-2.17 10.828,-4.9 2.91,-2.73 4.098,-6.18 3.566,-10.34 -0.531,-4.23 -2.554,-7.3 -6.062,-9.25 -3.5,-1.95 -7.414,-2.66 -11.703,-2.11 z m 63.722,-144.26 c -7.97,1.84 -14.68,4.73 -20.14,8.64 -5.45,3.9 -9.34,8.61 -11.653,14.16 -2.332,5.55 -2.707,11.67 -1.16,18.37 1.684,7.3 5.083,12.87 10.163,16.68 5.08,3.8 11.28,6.21 18.65,7.23 7.36,1.02 15.24,0.93 23.66,-0.23 12.47,-1.61 21.28,-2.41 26.4,-2.43 5.11,-0.01 7.94,1.2 8.51,3.68 0.01,0.07 0.03,0.14 0.04,0.17 0,0.03 0,0.03 0,0.03 1.09,4.7 -0.18,8.8 -3.82,12.32 -3.65,3.53 -9.31,6.17 -17.01,7.95 -8.11,1.88 -14.64,1.89 -19.62,0.05 -4.98,-1.86 -8.19,-5.87 -9.62,-12.04 l -26.13,6.03 c 1.93,8.39 5.81,14.96 11.6,19.73 5.8,4.77 12.91,7.76 21.38,8.98 8.48,1.22 17.63,0.69 27.48,-1.59 9.18,-2.11 17.28,-5.43 24.28,-9.93 7.01,-4.52 12.18,-10.09 15.52,-16.71 3.34,-6.63 4.06,-14.11 2.13,-22.41 -0.32,-1.42 -0.65,-2.83 -0.97,-4.23 -0.33,-1.41 -0.65,-2.81 -0.97,-4.22 l -9.29,-40.21 c -0.58,-2.55 -1.05,-5.05 -1.45,-7.53 -0.39,-2.49 -0.57,-4.78 -0.48,-6.84 0.17,-2.31 0.56,-4.31 1.16,-5.99 0.59,-1.69 1.1,-2.87 1.51,-3.53 l -26.13,6.04 c -0.37,0.57 -0.79,1.66 -1.31,3.23 -0.52,1.56 -0.92,3.32 -1.18,5.28 -0.21,2.17 -0.2,4.46 0,6.84 0.2,2.39 0.61,4.98 1.26,7.8 l 4.39,-4.83 c -2.94,-3.62 -6.82,-6.47 -11.64,-8.56 -4.83,-2.11 -10.3,-3.34 -16.38,-3.71 -6.09,-0.36 -12.47,0.24 -19.18,1.78 z m 11.24,19.32 c 5.5,-1.26 10.8,-1.51 15.92,-0.7 5.13,0.79 9.59,2.83 13.38,6.09 3.78,3.25 6.38,7.93 7.8,14.11 l 3.29,14.27 4.76,-8.72 c -4.66,-0.62 -10.11,-0.73 -16.39,-0.38 -6.26,0.35 -12.56,0.92 -18.86,1.75 -8.07,1.08 -14.32,1.06 -18.77,-0.02 -4.46,-1.08 -7.23,-3.91 -8.28,-8.47 -1.02,-4.42 -0.11,-8.12 2.73,-11.11 2.84,-2.98 7.65,-5.25 14.42,-6.82 z M 1218.49,1629 c -10.28,5.27 -18.23,12.08 -23.85,20.41 -5.63,8.33 -8.69,17.43 -9.21,27.36 -0.53,9.92 1.72,19.82 6.77,29.68 5.08,9.92 11.8,17.52 20.11,22.82 8.32,5.28 17.46,8.05 27.49,8.32 10.04,0.27 20.19,-2.22 30.48,-7.49 10.28,-5.27 18.24,-12.05 23.88,-20.35 5.64,-8.3 8.77,-17.35 9.33,-27.19 0.56,-9.83 -1.71,-19.72 -6.79,-29.63 -5.04,-9.86 -11.74,-17.48 -20.09,-22.86 -8.36,-5.38 -17.57,-8.2 -27.61,-8.5 -10.05,-0.3 -20.22,2.16 -30.51,7.43 z m 10.12,19.75 c 5.57,-2.86 11.09,-4.07 16.57,-3.62 5.47,0.43 10.57,2.37 15.27,5.81 4.68,3.44 8.62,8.26 11.82,14.5 3.2,6.24 4.82,12.26 4.82,18 0.02,5.76 -1.43,10.94 -4.3,15.58 -2.88,4.64 -7.11,8.39 -12.68,11.24 -5.51,2.83 -10.98,4.04 -16.47,3.69 -5.48,-0.36 -10.55,-2.21 -15.21,-5.57 -4.66,-3.38 -8.61,-8.2 -11.8,-14.44 -3.2,-6.24 -4.81,-12.26 -4.85,-18.06 -0.05,-5.83 1.39,-11.11 4.26,-15.83 2.88,-4.72 7.06,-8.48 12.57,-11.3 z m 126.73,-106.58 30.02,38.21 c 1.7,2.16 3.22,4.08 4.51,5.73 1.3,1.64 2.46,3.13 3.52,4.49 3.07,3.89 5.29,7.83 6.62,11.81 1.33,3.98 1.36,7.91 0.08,11.79 -1.27,3.88 -4.29,7.69 -8.98,11.39 -4.11,3.23 -8.53,5.12 -13.27,5.66 -4.74,0.53 -9.36,-0.21 -13.86,-2.22 -4.52,-2.03 -8.55,-5.27 -12.09,-9.76 l -3.71,10.13 c 5.65,7.19 12.34,12.31 20.01,15.33 7.67,3.03 15.49,3.97 23.52,2.82 8.01,-1.14 15.38,-4.35 22.09,-9.62 6.92,-5.43 11.7,-11.37 14.31,-17.8 2.6,-6.42 3.16,-13.06 1.66,-19.93 -1.51,-6.86 -4.91,-13.64 -10.18,-20.35 -2.04,-2.59 -4.34,-5.51 -6.88,-8.76 -2.55,-3.25 -5.06,-6.44 -7.53,-9.57 l -28.43,-36.18 z m -60.91,47.87 67.69,86.14 21.33,-16.75 -67.69,-86.16 z m 235.67,11.41 -111.28,-116.69 -19.33,18.43 111.28,116.7 z m -89.89,-139.53 82.82,71.74 17.56,-20.28 -82.81,-71.73 z m 106.95,74.77 c -2.87,3.32 -4.47,6.99 -4.81,11.01 -0.35,4.02 1.07,7.44 4.29,10.23 3.17,2.75 6.72,3.64 10.63,2.7 3.91,-0.94 7.28,-3.07 10.16,-6.39 2.84,-3.27 4.44,-6.9 4.79,-10.87 0.35,-3.98 -1.06,-7.34 -4.24,-10.08 -3.22,-2.79 -6.78,-3.73 -10.68,-2.84 -3.91,0.88 -7.29,2.96 -10.14,6.24 z m -24.36,-181.62 39.59,28.14 c 2.25,1.61 4.25,3.02 5.95,4.24 1.71,1.21 3.25,2.31 4.64,3.3 4.05,2.88 7.29,6.02 9.7,9.47 2.4,3.44 3.53,7.19 3.41,11.28 -0.12,4.09 -1.94,8.59 -5.41,13.47 -3.02,4.26 -6.72,7.32 -11.11,9.18 -4.4,1.84 -9.04,2.43 -13.93,1.78 -4.9,-0.66 -9.69,-2.63 -14.35,-5.94 l -0.7,10.77 c 7.46,5.3 15.32,8.31 23.53,9.05 8.21,0.74 15.98,-0.57 23.35,-3.95 7.37,-3.36 13.54,-8.51 18.48,-15.46 5.1,-7.18 8,-14.23 8.68,-21.12 0.69,-6.9 -0.65,-13.44 -4.03,-19.59 -3.4,-6.17 -8.57,-11.7 -15.52,-16.64 -2.69,-1.91 -5.72,-4.06 -9.08,-6.46 -3.36,-2.39 -6.67,-4.74 -9.92,-7.05 l -37.5,-26.67 z m -44.9,63.13 89.28,63.5 15.73,-22.12 -89.28,-63.49 z m 120.52,-102.8 17.58,7.95 31.57,-69.85 -5.96,0.7 c 0.37,0.18 0.81,0.37 1.27,0.58 0.47,0.21 0.85,0.38 1.16,0.52 4.32,1.96 7.96,4.77 10.87,8.43 2.92,3.66 4.64,7.99 5.22,12.99 0.57,5.02 -0.54,10.56 -3.28,16.64 -2.72,6.01 -6.33,10.65 -10.87,13.92 -4.53,3.26 -9.74,5.03 -15.59,5.29 -5.86,0.26 -12.11,-1.09 -18.76,-4.1 -6.83,-3.08 -12.17,-6.9 -16.03,-11.43 -3.89,-4.55 -6.09,-9.66 -6.67,-15.32 -0.58,-5.66 0.58,-11.71 3.49,-18.16 1.98,-4.39 4.11,-7.99 6.36,-10.82 2.26,-2.83 4.58,-4.95 6.91,-6.35 2.33,-1.4 4.53,-2.26 6.62,-2.55 2.1,-0.3 4.01,-0.17 5.72,0.38 l 11.13,-24.62 c -4.37,-1.53 -9.07,-1.99 -14.13,-1.38 -5.07,0.63 -10.21,2.38 -15.39,5.24 -5.19,2.86 -10.12,6.93 -14.82,12.25 -4.71,5.31 -8.86,11.92 -12.43,19.81 -4.85,10.73 -6.88,21.08 -6.12,31.08 0.76,10.01 4.05,19.01 9.86,27.03 5.8,8.02 13.75,14.33 23.85,18.89 10.33,4.68 20.42,6.48 30.25,5.45 9.82,-1.03 18.75,-4.58 26.77,-10.7 8,-6.11 14.35,-14.41 19.08,-24.88 4.88,-10.78 6.9,-21.1 6.07,-30.96 -0.83,-9.84 -4.18,-18.64 -10.05,-26.42 -5.89,-7.8 -14,-14.04 -24.35,-18.71 -1.32,-0.59 -2.74,-1.2 -4.27,-1.82 -1.54,-0.61 -2.68,-1.01 -3.41,-1.19 z M 114.145,461.469 c -4.395,6.906 -7.153,13.664 -8.301,20.273 -1.149,6.61 -0.617,12.692 1.617,18.27 2.23,5.586 6.258,10.215 12.059,13.91 6.328,4.023 12.66,5.609 18.949,4.754 6.277,-0.844 12.398,-3.477 18.367,-7.918 5.953,-4.438 11.519,-10.028 16.691,-16.766 7.762,-9.887 13.493,-16.644 17.121,-20.246 3.633,-3.582 6.504,-4.703 8.657,-3.336 0.047,0.035 0.113,0.074 0.144,0.098 0.016,0.008 0.016,0.008 0.016,0.008 4.07,2.589 6.043,6.406 5.918,11.468 -0.117,5.063 -2.301,10.922 -6.555,17.594 -4.461,7.02 -9.098,11.617 -13.945,13.793 -4.848,2.172 -9.965,1.563 -15.293,-1.84 l -14.402,22.637 c 7.253,4.617 14.64,6.594 22.113,5.922 7.476,-0.664 14.64,-3.527 21.523,-8.598 6.899,-5.074 13.059,-11.871 18.492,-20.398 5.055,-7.946 8.497,-15.989 10.325,-24.117 1.828,-8.133 1.613,-15.735 -0.657,-22.797 -2.261,-7.071 -7,-12.887 -14.195,-17.469 -1.219,-0.773 -2.445,-1.551 -3.656,-2.32 -1.219,-0.786 -2.438,-1.551 -3.656,-2.332 l -34.813,-22.153 c -2.211,-1.406 -4.301,-2.859 -6.328,-4.351 -2.016,-1.492 -3.746,-3.004 -5.141,-4.539 -1.488,-1.754 -2.613,-3.453 -3.367,-5.082 -0.765,-1.614 -1.23,-2.817 -1.39,-3.567 l -14.407,22.621 c 0.153,0.676 0.614,1.739 1.336,3.227 0.731,1.473 1.668,3.008 2.871,4.594 1.371,1.691 2.977,3.312 4.801,4.882 1.816,1.559 3.926,3.118 6.359,4.664 l -0.246,-6.515 c -4.648,-0.524 -9.41,0.164 -14.316,2.055 -4.914,1.882 -9.676,4.847 -14.281,8.847 -4.582,4.012 -8.719,8.926 -12.41,14.727 z m 21.558,5.894 c 3.024,-4.761 6.645,-8.66 10.852,-11.683 4.207,-3.035 8.82,-4.707 13.808,-5.039 4.981,-0.332 10.121,1.187 15.465,4.589 l 12.352,7.86 -2.719,-9.551 c -3.762,2.824 -7.731,6.57 -11.953,11.219 -4.219,4.652 -8.305,9.469 -12.227,14.48 -4.996,6.438 -9.453,10.813 -13.39,13.16 -3.934,2.34 -7.891,2.278 -11.84,-0.238 -3.824,-2.437 -5.77,-5.711 -5.848,-9.832 -0.055,-4.117 1.77,-9.109 5.5,-14.965 z m 45.434,-94.164 83.703,70.707 17.512,-20.726 -27.825,-23.496 -1.386,7.066 c 4.07,2.539 8.332,4.477 12.761,5.789 4.43,1.313 8.871,1.809 13.301,1.508 4.453,-0.293 8.754,-1.563 12.961,-3.77 4.211,-2.199 8.129,-5.464 11.774,-9.769 2.882,-3.422 4.929,-6.32 6.093,-8.715 1.172,-2.395 1.774,-3.957 1.852,-4.699 l -22.188,-12.262 c -0.07,0.836 -0.488,2.285 -1.289,4.363 -0.801,2.055 -2.359,4.43 -4.629,7.118 -3.593,4.253 -7.297,7.199 -11.16,8.851 -3.863,1.625 -7.734,2.277 -11.597,1.891 -3.879,-0.379 -7.575,-1.43 -11.114,-3.164 -3.531,-1.723 -6.754,-3.828 -9.644,-6.254 l -41.614,-35.16 z M 287.668,261.516 c -6.762,5.964 -11.543,13.121 -14.41,21.464 -2.863,8.344 -3.223,17.247 -1.035,26.688 2.183,9.441 7.398,18.84 15.629,28.168 8.007,9.09 16.57,15.195 25.648,18.367 9.09,3.184 17.934,3.856 26.555,2.031 8.617,-1.816 16.218,-5.629 22.812,-11.457 6.449,-5.687 11.02,-12.511 13.684,-20.511 2.676,-7.996 3.168,-16.266 1.508,-24.809 -1.657,-8.531 -5.688,-16.434 -12.114,-23.703 -0.172,-0.207 -0.351,-0.414 -0.547,-0.621 -0.171,-0.203 -0.355,-0.41 -0.539,-0.617 l -10.257,8.629 c 0.132,0.156 0.289,0.339 0.453,0.527 0.168,0.176 0.293,0.328 0.433,0.484 3.598,4.082 5.719,8.524 6.371,13.364 0.641,4.843 0.137,9.566 -1.57,14.136 -1.699,4.563 -4.379,8.442 -7.992,11.629 -5.922,5.231 -12.727,7.699 -20.434,7.391 -7.703,-0.317 -15.367,-4.797 -22.961,-13.406 -7.558,-8.559 -11.043,-16.719 -10.457,-24.477 0.586,-7.766 3.84,-14.27 9.766,-19.492 3.769,-3.321 8.055,-5.481 12.84,-6.496 4.789,-1.032 9.601,-0.817 14.383,0.601 4.785,1.422 8.976,4.192 12.621,8.324 l 9.636,-9.339 c -6.363,-7.223 -13.718,-12.336 -22.101,-15.348 -8.391,-3.012 -16.817,-3.828 -25.235,-2.461 -8.421,1.371 -15.984,5.02 -22.687,10.934 z m 27.418,-21.161 106.66,120.93 20.426,-18.023 -106.66,-120.922 z m 60.43,-41.781 59.593,91.942 22.508,-14.59 -59.586,-91.942 z m 81.941,101.555 c -3.703,2.398 -6.258,5.484 -7.707,9.25 -1.449,3.766 -1.035,7.434 1.289,11.016 2.274,3.519 5.438,5.359 9.453,5.546 4.008,0.192 7.848,-0.91 11.543,-3.304 3.625,-2.352 6.18,-5.391 7.61,-9.117 1.441,-3.719 1.027,-7.34 -1.258,-10.864 -2.321,-3.574 -5.473,-5.465 -9.469,-5.691 -4.008,-0.246 -7.836,0.812 -11.461,3.164 z m 28.18,-166.043 c -10.551,4.707 -18.84,11.102 -24.899,19.117 -6.05,8.024 -9.593,16.949 -10.633,26.832 -1.039,9.883 0.676,19.887 5.2,30 4.55,10.168 10.859,18.113 18.883,23.84 8.019,5.719 17.015,8.965 27.011,9.762 10.004,0.804 20.274,-1.16 30.824,-5.875 10.547,-4.719 18.856,-11.071 24.922,-19.063 6.078,-7.992 9.676,-16.871 10.754,-26.668 1.082,-9.785 -0.664,-19.773 -5.226,-29.941 -4.512,-10.113 -10.797,-18.074 -18.86,-23.883 -8.07,-5.812 -17.109,-9.117 -27.133,-9.945 -10.003,-0.824 -20.296,1.101 -30.843,5.824 z m 9.058,20.238 c 5.715,-2.547 11.293,-3.472 16.746,-2.742 5.438,0.727 10.426,2.941 14.938,6.621 4.5,3.668 8.184,8.684 11.047,15.098 2.859,6.394 4.156,12.488 3.863,18.23 -0.281,5.746 -2.008,10.852 -5.129,15.328 -3.101,4.485 -7.519,8 -13.238,10.559 -5.652,2.531 -11.188,3.465 -16.641,2.809 -5.449,-0.641 -10.418,-2.754 -14.898,-6.36 -4.481,-3.613 -8.16,-8.644 -11.024,-15.043 -2.867,-6.398 -4.148,-12.488 -3.89,-18.297 0.265,-5.808 1.965,-11.015 5.082,-15.582 3.129,-4.558 7.492,-8.086 13.144,-10.621 z m 163.91,87.668 -51.57,-152.7732 -25.316,8.5468 51.57,152.7734 z M 705.57,63.8359 c -11.367,2.1055 -20.925,6.3516 -28.695,12.7266 -7.777,6.3711 -13.316,14.2148 -16.656,23.5745 -3.336,9.367 -4.02,19.492 -2.004,30.379 2.027,10.957 6.293,20.164 12.742,27.613 6.449,7.449 14.426,12.723 23.949,15.851 9.535,3.137 19.981,3.649 31.348,1.54 11.359,-2.106 20.926,-6.325 28.707,-12.665 7.781,-6.328 13.371,-14.113 16.727,-23.382 3.355,-9.25 4.003,-19.375 1.976,-30.332 -2.023,-10.891 -6.242,-20.1058 -12.719,-27.6605 -6.468,-7.5391 -14.476,-12.875 -24.023,-16.0313 -9.539,-3.1679 -19.996,-3.7148 -31.352,-1.6133 z m 4.039,21.8125 c 6.157,-1.1406 11.789,-0.7187 16.922,1.2657 5.121,1.9961 9.442,5.3203 12.957,9.9531 3.508,4.6328 5.907,10.3668 7.18,17.2698 1.281,6.89 1.102,13.125 -0.527,18.633 -1.637,5.511 -4.5,10.07 -8.586,13.691 -4.094,3.625 -9.211,6.004 -15.364,7.144 -6.082,1.133 -11.679,0.739 -16.839,-1.183 -5.133,-1.918 -9.473,-5.129 -12.977,-9.695 -3.496,-4.567 -5.895,-10.317 -7.18,-17.207 -1.273,-6.895 -1.097,-13.125 0.528,-18.704 1.621,-5.578 4.504,-10.2379 8.609,-13.941 4.113,-3.6953 9.188,-6.1016 15.277,-7.2266 z m 170.61,-23.914 c 6.437,-0.8281 12.066,-2.211 16.898,-4.1524 4.828,-1.9375 8.551,-4.7031 11.203,-8.3281 2.629,-3.6367 3.856,-8.4141 3.672,-14.332 C 911.781,28.3281 909.363,22.6953 904.75,18.0156 900.129,13.3438 893.484,9.84375 884.773,7.49219 876.059,5.16016 865.398,4.19141 852.82,4.58203 c -18.289,0.57031 -32.261,3.66016 -41.922,9.23437 -9.664,5.5703 -14.363,12.8281 -14.078,21.8477 0.082,2.539 0.461,4.8281 1.157,6.8672 0.671,2.0507 1.488,3.7421 2.425,5.0898 l 24.731,-4.3906 c -0.43,-0.5313 -0.871,-1.3867 -1.32,-2.5742 -0.446,-1.1875 -0.704,-2.6563 -0.758,-4.3829 -0.129,-4.2578 2.664,-7.414 8.34,-9.4804 5.683,-2.0703 13.289,-3.2735 22.832,-3.5782 7.019,-0.2187 12.906,0.0743 17.652,0.8946 4.734,0.8164 8.351,2.0781 10.844,3.7851 2.507,1.7149 3.777,3.7735 3.847,6.1758 0.118,3.5703 -1.422,5.9219 -4.632,7.0703 -3.196,1.125 -7.02,1.9336 -11.481,2.4219 l -41.437,5.1172 c -7.399,0.9922 -13.407,3.3828 -18.075,7.1758 -4.664,3.8008 -6.918,8.6836 -6.726,14.6601 0.109,3.6446 1.211,6.9883 3.273,10.0117 2.059,3.0352 4.371,5.5743 6.977,7.5899 2.613,2.0195 4.824,3.2226 6.613,3.6484 l 15.234,-8.1133 c -1.453,-0.1679 -3.164,-1.0312 -5.171,-2.625 -2.016,-1.5898 -3.075,-3.5195 -3.149,-5.7929 -0.062,-2.125 0.848,-3.9102 2.715,-5.3789 1.891,-1.4727 5.578,-2.5782 11.055,-3.3008 z m 15.375,98.2856 24.336,-0.762 -11.235,-42.172 c -2.105,-7.914 -5.332,-14.969 -9.652,-21.1641 -4.316,-6.1992 -9.973,-11.0078 -16.965,-14.4414 -6.984,-3.4258 -15.715,-4.9727 -26.164,-4.6446 -10.851,0.3399 -20.144,2.4297 -27.91,6.211 -7.758,3.789 -13.68,8.9648 -17.754,15.5273 -4.055,6.5588 -5.949,14.0198 -5.68,22.4058 0.27,8.594 2.707,16.118 7.278,22.551 4.57,6.418 10.746,11.36 18.523,14.832 7.785,3.465 16.512,5.047 26.195,4.739 7.84,-0.239 14.852,-1.739 21.02,-4.508 6.18,-2.778 11.094,-6.309 14.699,-10.539 3.621,-4.254 5.481,-8.711 5.602,-13.383 l -6.117,-0.957 z M 856.473,97.7734 c 5.3,-0.1601 9.89,0.5508 13.797,2.1446 3.914,1.605 6.972,4.012 9.214,7.215 2.227,3.203 3.414,7.121 3.563,11.785 0.152,4.613 -0.793,8.59 -2.82,11.961 -2.024,3.375 -4.938,6.008 -8.731,7.883 -3.801,1.867 -8.316,2.871 -13.531,3.039 -5.09,0.164 -9.613,-0.594 -13.586,-2.258 -3.977,-1.66 -7.117,-4.113 -9.457,-7.379 -2.344,-3.262 -3.602,-7.211 -3.746,-11.816 -0.141,-4.602 0.832,-8.551 2.894,-11.895 2.055,-3.328 5.012,-5.894 8.844,-7.703 3.824,-1.8125 8.34,-2.8086 13.559,-2.9766 z m 97.769,-41.5664 -13.152,108.777 26.633,3.215 13.16,-108.7654 z m -2.152,130.477 c -4.375,-0.532 -8.313,0.195 -11.84,2.175 -3.523,1.954 -5.566,5.036 -6.074,9.27 -0.504,4.164 0.746,7.609 3.707,10.32 2.961,2.715 6.617,4.328 10.984,4.852 4.297,0.523 8.196,-0.172 11.688,-2.11 3.488,-1.933 5.48,-4.988 5.984,-9.156 0.516,-4.226 -0.691,-7.703 -3.617,-10.445 -2.922,-2.746 -6.539,-4.387 -10.832,-4.906 z M 1064.38,72.3945 c -7.97,-1.8476 -15.27,-2.1914 -21.88,-1.0703 -6.61,1.125 -12.18,3.6485 -16.69,7.6211 -4.52,3.9649 -7.55,9.3047 -9.09,16.0078 -1.69,7.3049 -1.08,13.7969 1.83,19.4379 2.9,5.64 7.41,10.539 13.58,14.683 6.17,4.133 13.31,7.512 21.38,10.153 11.92,4.019 20.19,7.164 24.8,9.386 4.6,2.235 6.6,4.567 6.03,7.043 -0.02,0.063 -0.04,0.141 -0.04,0.176 -0.01,0.031 -0.01,0.031 -0.01,0.031 -1.08,4.692 -4.02,7.825 -8.84,9.391 -4.81,1.574 -11.07,1.465 -18.77,-0.313 -8.11,-1.871 -13.98,-4.703 -17.65,-8.55 -3.67,-3.852 -4.8,-8.871 -3.37,-15.036 l -26.14,-6.027 c -1.93,8.379 -1.33,15.992 1.79,22.824 3.12,6.817 8.2,12.618 15.28,17.426 7.08,4.813 15.55,8.352 25.4,10.621 9.18,2.121 17.9,2.684 26.17,1.699 8.28,-0.976 15.37,-3.718 21.28,-8.21 5.91,-4.497 9.82,-10.903 11.73,-19.204 0.33,-1.414 0.66,-2.82 0.97,-4.226 0.33,-1.41 0.66,-2.817 0.99,-4.235 l 9.27,-40.207 c 0.59,-2.546 1.26,-5 2,-7.402 0.73,-2.406 1.58,-4.539 2.56,-6.3632 1.17,-1.9961 2.39,-3.6172 3.67,-4.875 1.27,-1.2578 2.24,-2.0899 2.9,-2.5 l -26.14,-6.0313 c -0.57,0.3555 -1.43,1.1563 -2.57,2.3282 -1.16,1.1836 -2.29,2.5781 -3.38,4.2304 -1.14,1.8633 -2.14,3.918 -3.01,6.1524 -0.87,2.2383 -1.63,4.7465 -2.28,7.5585 l 6.07,-2.41 c -1.07,-4.5509 -3.29,-8.8009 -6.72,-12.8009 -3.41,-4.0039 -7.8,-7.5195 -13.1,-10.5117 -5.31,-2.9922 -11.32,-5.2539 -18.02,-6.7969 z m 1.64,22.2891 c 5.49,1.2695 10.37,3.375 14.62,6.3364 4.26,2.964 7.37,6.75 9.36,11.343 1.96,4.575 2.25,9.934 0.82,16.098 l -3.29,14.281 8.1,-5.762 c -3.92,-2.593 -8.77,-5.085 -14.57,-7.515 -5.78,-2.438 -11.68,-4.684 -17.72,-6.703 -7.73,-2.571 -13.34,-5.313 -16.87,-8.239 -3.52,-2.933 -4.77,-6.683 -3.72,-11.234 1.02,-4.4296 3.46,-7.3593 7.32,-8.8007 3.86,-1.4258 9.18,-1.3711 15.95,0.1953 z m 201.84,51.7774 c -10.34,-5.172 -20.54,-7.535 -30.58,-7.129 -10.04,0.402 -19.19,3.324 -27.49,8.789 -8.3,5.461 -14.95,13.137 -19.9,23.043 -4.99,9.965 -7.12,19.887 -6.46,29.715 0.66,9.828 3.85,18.848 9.58,27.078 5.71,8.246 13.74,14.938 24.09,20.106 10.33,5.164 20.51,7.558 30.54,7.187 10.02,-0.363 19.17,-3.215 27.42,-8.586 8.27,-5.375 14.87,-13.059 19.86,-23.027 4.95,-9.907 7.12,-19.813 6.51,-29.731 -0.62,-9.922 -3.8,-19.008 -9.52,-27.285 -5.7,-8.266 -13.72,-15 -24.05,-20.16 z m -9.92,19.844 c 5.6,2.797 9.85,6.527 12.74,11.199 2.89,4.676 4.34,9.93 4.36,15.754 0.01,5.801 -1.54,11.836 -4.68,18.109 -3.13,6.27 -7.02,11.145 -11.65,14.555 -4.62,3.422 -9.65,5.332 -15.09,5.754 -5.45,0.437 -10.96,-0.742 -16.57,-3.551 -5.53,-2.758 -9.77,-6.445 -12.73,-11.086 -2.95,-4.621 -4.47,-9.805 -4.52,-15.559 -0.04,-5.746 1.5,-11.781 4.64,-18.05 3.14,-6.282 7.03,-11.133 11.69,-14.614 4.66,-3.48 9.76,-5.468 15.26,-5.941 5.51,-0.477 11.01,0.664 16.55,3.43 z m 158.68,78.808 -30.06,38.176 c -1.7,2.164 -3.22,4.086 -4.51,5.723 -1.3,1.66 -2.46,3.14 -3.53,4.496 -3.07,3.89 -6.38,6.972 -9.93,9.211 -3.55,2.234 -7.36,3.172 -11.44,2.855 -4.08,-0.324 -8.48,-2.351 -13.18,-6.054 -4.11,-3.227 -6.99,-7.075 -8.63,-11.559 -1.63,-4.481 -1.99,-9.133 -1.1,-13.992 0.9,-4.856 3.1,-9.555 6.64,-14.043 l -10.73,-1.227 c -5.65,7.192 -9.05,14.899 -10.19,23.063 -1.13,8.164 -0.21,15.98 2.8,23.511 3.01,7.536 7.85,13.938 14.56,19.219 6.92,5.446 13.81,8.684 20.66,9.696 6.86,1.027 13.45,0 19.77,-3.079 6.32,-3.086 12.1,-7.98 17.38,-14.675 2.04,-2.598 4.34,-5.512 6.88,-8.754 2.56,-3.242 5.07,-6.434 7.54,-9.567 l 28.47,-36.144 z m -60.87,-47.922 -67.78,86.082 21.31,16.77 67.78,-86.078 z m 25.16,231.856 111.59,-116.391 -19.29,-18.5 -111.58,116.391 z m 144,-81.984 -82.69,71.875 17.6,20.242 82.69,-71.871 z m -89.09,95.335 c -2.89,-3.324 -6.3,-5.421 -10.24,-6.32 -3.92,-0.914 -7.5,0.008 -10.72,2.801 -3.17,2.75 -4.55,6.137 -4.17,10.148 0.37,3.989 2.01,7.637 4.88,10.961 2.85,3.274 6.21,5.364 10.09,6.266 3.89,0.91 7.42,-0.024 10.58,-2.77 3.22,-2.8 4.65,-6.183 4.32,-10.175 -0.32,-3.996 -1.9,-7.641 -4.74,-10.911 z m 179.81,25.36 -40.77,26.43 c -2.32,1.496 -4.36,2.816 -6.12,3.96 -1.76,1.137 -3.35,2.172 -4.79,3.11 -4.16,2.687 -8.29,4.547 -12.37,5.508 -4.09,0.968 -7.99,0.629 -11.75,-0.996 -3.75,-1.61 -7.26,-4.95 -10.52,-9.977 -2.84,-4.383 -4.33,-8.949 -4.43,-13.719 -0.1,-4.781 1.06,-9.304 3.48,-13.609 2.4,-4.309 6.01,-8.035 10.81,-11.141 l -9.76,-4.621 c -7.67,4.969 -13.37,11.164 -17.09,18.527 -3.7,7.36 -5.35,15.063 -4.94,23.157 0.41,8.097 2.93,15.722 7.57,22.886 4.79,7.379 10.27,12.68 16.43,15.86 6.16,3.176 12.73,4.332 19.69,3.472 6.98,-0.886 14.04,-3.648 21.2,-8.285 2.77,-1.8 5.88,-3.824 9.35,-6.066 3.46,-2.242 6.86,-4.445 10.21,-6.617 l 38.61,-25.028 z m -42.13,-65.02 -91.94,59.586 14.75,22.766 91.95,-59.578 z m 41.7,156.223 -17.61,7.879 31.31,69.965 3.44,-4.922 c -0.37,0.156 -0.82,0.351 -1.29,0.566 -0.47,0.215 -0.84,0.383 -1.16,0.524 -4.33,1.937 -8.85,2.793 -13.52,2.539 -4.66,-0.246 -9.07,-1.824 -13.19,-4.723 -4.12,-2.894 -7.53,-7.398 -10.25,-13.492 -2.7,-6.024 -3.78,-11.801 -3.22,-17.363 0.57,-5.555 2.71,-10.629 6.4,-15.184 3.69,-4.547 8.86,-8.328 15.52,-11.305 6.83,-3.062 13.23,-4.527 19.19,-4.41 5.97,0.113 11.27,1.86 15.88,5.184 4.61,3.316 8.37,8.199 11.27,14.66 1.96,4.394 3.25,8.371 3.88,11.937 0.61,3.567 0.65,6.707 0.17,9.379 -0.51,2.668 -1.33,4.891 -2.5,6.653 -1.17,1.761 -2.54,3.093 -4.08,4.011 l 11.04,24.672 c 4.04,-2.25 7.5,-5.461 10.41,-9.656 2.9,-4.207 4.99,-9.211 6.29,-14.996 1.29,-5.774 1.52,-12.168 0.68,-19.207 -0.86,-7.047 -3.05,-14.547 -6.59,-22.453 -4.8,-10.735 -11.2,-19.133 -19.18,-25.199 -8,-6.071 -16.91,-9.586 -26.77,-10.559 -9.86,-0.981 -19.85,0.777 -29.96,5.297 -10.35,4.629 -18.4,10.984 -24.15,19.019 -5.75,8.036 -9.01,17.075 -9.76,27.125 -0.73,10.047 1.26,20.309 5.96,30.793 4.82,10.797 11.21,19.16 19.13,25.078 7.92,5.922 16.72,9.258 26.44,10.024 9.73,0.777 19.79,-1.164 30.15,-5.805 1.32,-0.582 2.72,-1.246 4.19,-1.992 1.48,-0.738 2.53,-1.32 3.17,-1.75 l -41.29,-92.289"
         style="fill:#343334;fill-opacity:1;fill-rule:nonzero;stroke:none"
         id="path12" />
      <path
         d="M 1012.81,1159.64 V 784.656 c 0,-133.441 -109.22,-242.64 -242.642,-242.64 h -0.008 c -133.43,0 -242.64,109.199 -242.64,242.64 v 362.484 c 0,6.88 5.613,12.5 12.496,12.5 h 472.794"
         style="fill:#42b9c0;fill-opacity:1;fill-rule:evenodd;stroke:none"
         id="path14" />
      <path
         d="m 650.32,1269.93 h 362.48 c 133.43,0 242.63,-109.19 242.63,-242.63 v -0.01 c 0,-133.442 -109.23,-242.638 -242.63,-242.638 H 729.527 637.816 v 1.993 470.795 c 0,6.88 5.614,12.49 12.504,12.49"
         style="fill:#4b60b6;fill-opacity:1;fill-rule:evenodd;stroke:none"
         id="path16" />
      <path
         d="M 1012.8,784.652 H 748.117 l -88.972,-88.968 c -3.649,-3.649 -8.844,-4.684 -13.61,-2.711 -4.769,1.984 -7.719,6.39 -7.719,11.543 v 80.136 374.988 H 1000.3 c 6.89,0 12.5,-5.61 12.5,-12.49 V 784.652"
         style="fill:#352f91;fill-opacity:1;fill-rule:evenodd;stroke:none"
         id="path18" />
      <path
         d="m 12.6641,955.398 c 9.4453,9.446 24.7656,9.446 34.2109,0 9.4531,-9.453 9.4531,-24.765 0,-34.21 -9.4453,-9.45 -24.7656,-9.45 -34.2109,0 -9.44535,9.445 -9.44535,24.757 0,34.21"
         style="fill:#352f91;fill-opacity:1;fill-rule:evenodd;stroke:none"
         id="path20" />
      <path
         d="m 1681.13,955.398 c 9.44,9.446 24.76,9.446 34.21,0 9.45,-9.453 9.45,-24.765 0,-34.21 -9.45,-9.45 -24.77,-9.45 -34.21,0 -9.45,9.445 -9.45,24.757 0,34.21"
         style="fill:#352f91;fill-opacity:1;fill-rule:evenodd;stroke:none"
         id="path22" />
    </g>
  </g>
</svg>
