<?xml version="1.0" encoding="UTF-8" standalone="no"?>
<!-- Created with Inkscape (http://www.inkscape.org/) -->

<svg
   version="1.1"
   id="svg2"
   width="97.333336"
   height="97.333336"
   viewBox="0 0 97.333336 97.333336"
   sodipodi:docname="LOGOTIPO CMYK-12.eps"
   xmlns:inkscape="http://www.inkscape.org/namespaces/inkscape"
   xmlns:sodipodi="http://sodipodi.sourceforge.net/DTD/sodipodi-0.dtd"
   xmlns="http://www.w3.org/2000/svg"
   xmlns:svg="http://www.w3.org/2000/svg">
  <defs
     id="defs6" />
  <sodipodi:namedview
     id="namedview4"
     pagecolor="#ffffff"
     bordercolor="#000000"
     borderopacity="0.25"
     inkscape:showpageshadow="2"
     inkscape:pageopacity="0.0"
     inkscape:pagecheckerboard="0"
     inkscape:deskcolor="#d1d1d1" />
  <g
     id="g8"
     inkscape:groupmode="layer"
     inkscape:label="ink_ext_XXXXXX"
     transform="matrix(1.3333333,0,0,-1.3333333,0,97.333333)">
    <g
       id="g10"
       transform="scale(0.1)">
      <path
         d="M 485.336,244.676 C 485.336,111.234 376.113,2.04297 242.695,2.04297 h -0.007 C 109.258,2.04297 0.046875,111.238 0.046875,244.684 v 362.484 c 0,6.879 5.613285,12.492 12.496125,12.492 h 97.801 V 244.676 164.543 c 0,-5.156 2.949,-9.563 7.719,-11.543 4.769,-1.973 9.96,-0.941 13.609,2.707 l 88.976,88.969 h 264.688 v 362.5 l -0.004,0.312 v 0.008 l -0.016,0.305 v 0.015 l -0.015,0.297 -0.004,0.02 -0.024,0.289 -0.003,0.027 -0.032,0.278 -0.008,0.035 -0.035,0.269 -0.004,0.039 -0.043,0.262 -0.007,0.047 -0.051,0.254 -0.012,0.055 -0.051,0.242 -0.011,0.058 -0.059,0.239 -0.016,0.062 -0.062,0.227 -0.02,0.07 -0.062,0.219 -0.027,0.078 -0.067,0.207 -0.027,0.082 -0.071,0.199 -0.031,0.09 -0.074,0.191 -0.035,0.094 -0.074,0.184 -0.039,0.097 -0.079,0.176 -0.046,0.102 -0.079,0.168 -0.05,0.109 -0.078,0.156 -0.059,0.114 -0.012,0.023 -0.277,0.508 -0.078,0.137 -0.074,0.125 -0.079,0.125 -0.078,0.128 -0.082,0.118 -0.086,0.136 -0.078,0.11 -0.094,0.136 -0.074,0.106 -0.105,0.133 -0.071,0.101 -0.113,0.137 -0.07,0.094 -0.117,0.144 -0.071,0.082 -0.125,0.145 -0.062,0.078 -0.137,0.148 -0.062,0.071 -0.141,0.148 -0.062,0.063 -0.145,0.152 -0.063,0.059 -0.156,0.148 -0.051,0.055 -0.164,0.152 -0.054,0.047 -0.176,0.152 -0.047,0.039 -0.18,0.157 -0.043,0.035 -0.191,0.152 -0.039,0.031 -0.199,0.153 -0.035,0.023 -0.207,0.152 -0.032,0.02 -0.215,0.152 -0.027,0.016 -0.226,0.152 -0.02,0.012 -0.234,0.145 -0.016,0.007 -0.246,0.145 -0.008,0.008 -0.254,0.144 h -0.004 l -0.261,0.137 h -0.004 l -0.262,0.137 h -0.008 l -0.262,0.125 -0.015,0.004 -0.258,0.113 -0.273,0.113 -0.028,0.012 -0.25,0.098 -0.035,0.011 -0.25,0.09 -0.039,0.012 -0.242,0.082 -0.051,0.012 -0.238,0.074 -0.055,0.015 -0.234,0.063 -0.063,0.019 -0.234,0.055 -0.067,0.02 -0.226,0.047 -0.078,0.015 -0.223,0.043 -0.082,0.02 -0.219,0.035 -0.09,0.015 -0.214,0.032 -0.098,0.011 -0.207,0.024 -0.106,0.012 -0.203,0.019 -0.113,0.008 -0.195,0.016 -0.125,0.003 -0.188,0.012 -0.453,0.008 H 110.344 v 97.793 c 0,6.883 5.613,12.492 12.5,12.492 h 362.492 c 133.422,0 242.617,-109.191 242.617,-242.625 v -0.015 c 0,-133.438 -109.226,-242.633 -242.617,-242.637"
         style="fill:#181a21;fill-opacity:1;fill-rule:evenodd;stroke:none"
         id="path12" />
    </g>
  </g>
</svg>
