<?xml version="1.0" encoding="UTF-8" standalone="no"?>
<svg
   xmlns:dc="http://purl.org/dc/elements/1.1/"
   xmlns:cc="http://creativecommons.org/ns#"
   xmlns:rdf="http://www.w3.org/1999/02/22-rdf-syntax-ns#"
   xmlns:svg="http://www.w3.org/2000/svg"
   xmlns="http://www.w3.org/2000/svg"
   viewBox="0 0 524 97.333336"
   height="97.333336"
   width="524"
   xml:space="preserve"
   id="svg2"
   version="1.1"><metadata
     id="metadata8"><rdf:RDF><cc:Work
         rdf:about=""><dc:format>image/svg+xml</dc:format><dc:type
           rdf:resource="http://purl.org/dc/dcmitype/StillImage" /></cc:Work></rdf:RDF></metadata><defs
     id="defs6" /><g
     transform="matrix(1.3333333,0,0,-1.3333333,0,97.333333)"
     id="g10"><g
       transform="scale(0.1)"
       id="g12"><path
         id="path14"
         style="fill:#181a21;fill-opacity:1;fill-rule:nonzero;stroke:none"
         d="m 1620.23,145.105 c -24.5,0 -44.68,4.012 -60.5,11.918 -15.82,7.922 -28.29,18.547 -37.4,31.989 -9.11,13.445 -15.5,28.402 -19.19,44.879 -3.69,16.484 -5.52,33.172 -5.52,50.093 0,7.801 0,16.039 0,24.707 0,8.68 0,17.571 0,26.668 v 161.657 h 100.81 V 351.301 c 0,-7.367 0,-14.528 0,-21.461 0,-6.942 0,-13.34 0,-19.192 0,-14.527 1.63,-27.863 4.88,-40 3.25,-12.148 9.32,-21.906 18.11,-29.277 8.78,-7.367 21.24,-11.058 37.51,-11.058 15.83,0 29.27,4.55 40.33,13.554 11.05,9 19.51,20.492 25.37,34.582 5.84,14.094 8.78,28.621 8.78,43.578 l 28.29,-23.089 c 0,-21.684 -3.25,-41.844 -9.86,-60.489 -6.62,-18.648 -16.05,-34.914 -28.19,-48.894 -12.15,-13.985 -26.88,-24.942 -44.35,-32.739 -17.45,-7.812 -37.17,-11.711 -59.07,-11.711 z m 1310.25,142.102 c 10.51,0 19.03,-8.516 19.03,-19.023 0,-10.508 -8.52,-19.024 -19.03,-19.024 -10.5,0 -19.02,8.516 -19.02,19.024 0,10.507 8.52,19.023 19.02,19.023 z m 225.84,17.691 c -8.49,0 -15.95,1.727 -22.37,5.149 -6.41,3.426 -11.36,8.187 -14.88,14.305 -3.53,6.121 -5.3,13.191 -5.3,21.203 0,8.113 1.77,15.164 5.3,21.105 3.52,5.953 8.47,10.574 14.88,13.879 6.42,3.297 13.88,4.949 22.37,4.949 6.37,0 12.01,-0.922 16.91,-2.797 4.91,-1.867 9.01,-4.339 12.32,-7.402 3.3,-3.062 5.8,-6.41 7.5,-10.059 1.7,-3.64 2.55,-7.261 2.55,-10.859 0,-0.043 0,-0.113 0,-0.238 0,-0.117 0,-0.242 0,-0.336 h -22.37 c 0,0.289 0,0.574 -0.03,0.844 -0.02,0.265 -0.09,0.535 -0.19,0.828 -0.38,2.039 -1.24,3.957 -2.55,5.754 -1.31,1.797 -3.14,3.285 -5.49,4.422 -2.35,1.144 -5.29,1.703 -8.79,1.703 -3.74,0 -7.07,-0.825 -10.01,-2.477 -2.94,-1.652 -5.27,-4.086 -6.97,-7.312 -1.7,-3.231 -2.55,-7.235 -2.55,-12.004 0,-4.664 0.85,-8.668 2.55,-12.039 1.7,-3.379 4.03,-5.981 6.97,-7.782 2.94,-1.789 6.27,-2.691 10.01,-2.691 3.83,0 6.97,0.609 9.4,1.797 2.42,1.187 4.25,2.789 5.47,4.805 1.21,2.019 1.93,4.226 2.18,6.664 h 22.37 c 0,-3.598 -0.82,-7.239 -2.51,-10.961 -1.67,-3.711 -4.14,-7.114 -7.42,-10.176 -3.28,-3.059 -7.39,-5.535 -12.29,-7.43 -4.91,-1.898 -10.6,-2.844 -17.06,-2.844 z m -0.22,-154.964 c -8.35,0 -15.71,1.726 -22.08,5.168 -6.36,3.453 -11.32,8.211 -14.88,14.265 -3.58,6.047 -5.37,13.016 -5.37,20.934 0,7.871 1.79,14.84 5.37,20.894 3.56,6.047 8.52,10.75 14.88,14.133 6.37,3.375 13.73,5.047 22.08,5.047 8.36,0 15.72,-1.672 22.08,-5.047 6.37,-3.383 11.35,-8.086 14.91,-14.133 3.58,-6.054 5.35,-13.023 5.35,-20.894 0,-7.918 -1.77,-14.887 -5.35,-20.934 -3.56,-6.054 -8.54,-10.812 -14.91,-14.265 -6.36,-3.442 -13.72,-5.168 -22.08,-5.168 z m 0,17.925 c 3.94,0 7.36,0.922 10.28,2.766 2.91,1.852 5.17,4.473 6.78,7.852 1.6,3.371 2.4,7.312 2.4,11.824 0,4.515 -0.8,8.457 -2.4,11.781 -1.61,3.328 -3.87,5.879 -6.78,7.68 -2.92,1.797 -6.34,2.691 -10.28,2.691 -3.88,0 -7.28,-0.894 -10.22,-2.691 -2.94,-1.801 -5.23,-4.352 -6.83,-7.68 -1.6,-3.324 -2.4,-7.266 -2.4,-11.781 0,-4.512 0.8,-8.453 2.4,-11.824 1.6,-3.379 3.89,-6 6.83,-7.852 2.94,-1.844 6.34,-2.766 10.22,-2.766 z m 108.86,-16.254 v 32.868 c 0,1.851 0,3.523 0,5.027 0,1.508 0,2.867 0,4.078 0,3.215 -0.41,6.152 -1.24,8.797 -0.83,2.648 -2.31,4.762 -4.45,6.363 -2.13,1.602 -5.22,2.403 -9.25,2.403 -3.5,0 -6.5,-0.801 -9.06,-2.403 -2.55,-1.601 -4.52,-3.84 -5.88,-6.707 -1.36,-2.863 -2.04,-6.168 -2.04,-9.906 l -6.26,4.52 c 0,6.703 1.45,12.582 4.37,17.632 2.91,5.051 6.87,9.008 11.85,11.871 4.98,2.872 10.49,4.301 16.57,4.301 6.36,0 11.61,-1.258 15.71,-3.804 4.11,-2.555 7.17,-6.102 9.18,-10.641 2.02,-4.547 3.01,-9.859 3.01,-15.938 0,-2.476 0,-5.25 0,-8.304 0,-3.063 0,-6.192 0,-9.403 v -30.754 z m -54.51,0 v 77.391 h 22.59 V 151.605 Z M 3325.79,265.5 V 151.605 h -22.3 V 265.5 Z m 15.06,-113.895 v 77.391 h 22.37 v -77.391 z m 11.15,89.997 c -3.49,0 -6.53,0.918 -9.13,2.769 -2.6,1.844 -3.91,4.445 -3.91,7.793 0,3.406 1.31,6.027 3.91,7.875 2.6,1.84 5.64,2.77 9.13,2.77 3.54,0 6.63,-0.93 9.24,-2.77 2.59,-1.848 3.88,-4.469 3.88,-7.875 0,-3.398 -1.29,-5.996 -3.88,-7.816 -2.61,-1.828 -5.7,-2.746 -9.24,-2.746 z m 80.36,-89.997 v 32.868 c 0,1.851 0,3.523 0,5.027 0,1.508 0,2.867 0,4.078 0,3.215 -0.4,6.152 -1.23,8.797 -0.83,2.648 -2.31,4.762 -4.45,6.363 -2.13,1.602 -5.22,2.403 -9.25,2.403 -3.5,0 -6.51,-0.801 -9.06,-2.403 -2.55,-1.601 -4.52,-3.84 -5.88,-6.707 -1.36,-2.863 -2.04,-6.168 -2.04,-9.906 l -6.26,4.52 c 0,6.703 1.45,12.582 4.37,17.632 2.9,5.051 6.87,9.008 11.85,11.871 4.98,2.872 10.49,4.301 16.57,4.301 6.36,0 11.61,-1.258 15.71,-3.804 4.11,-2.555 7.16,-6.102 9.18,-10.641 2.02,-4.547 3.01,-9.859 3.01,-15.938 0,-2.476 0,-5.25 0,-8.304 0,-3.063 0,-6.192 0,-9.403 v -30.754 z m -54.5,0 v 77.391 h 22.59 v -77.391 z m 100.62,31.922 v 14.942 h 51.3 l -2.19,-3.797 c 0,0.394 0,0.781 0,1.144 0,0.36 0,0.704 0,1.047 0,2.766 -0.66,5.438 -1.96,7.992 -1.32,2.543 -3.33,4.637 -6.08,6.266 -2.75,1.625 -6.27,2.426 -10.55,2.426 -4.27,0 -7.94,-0.899 -11.02,-2.719 -3.09,-1.82 -5.44,-4.445 -7.07,-7.844 -1.62,-3.402 -2.45,-7.507 -2.45,-12.32 0,-4.949 0.8,-9.184 2.38,-12.699 1.57,-3.524 3.93,-6.242 7.07,-8.137 3.13,-1.894 7.02,-2.844 11.68,-2.844 3.01,0 5.61,0.293 7.79,0.848 2.19,0.563 3.99,1.266 5.37,2.141 1.39,0.871 2.43,1.843 3.16,2.91 0.73,1.074 1.17,2.113 1.31,3.137 h 22.3 c -0.29,-3.25 -1.41,-6.434 -3.35,-9.571 -1.94,-3.136 -4.64,-5.953 -8.09,-8.449 -3.45,-2.5 -7.63,-4.496 -12.56,-5.949 -4.93,-1.469 -10.56,-2.192 -16.88,-2.192 -8.55,0 -16.01,1.727 -22.36,5.149 -6.37,3.43 -11.3,8.16 -14.8,14.215 -3.5,6.047 -5.25,13.011 -5.25,20.937 0,8.012 1.8,15.055 5.37,21.11 3.57,6.043 8.55,10.75 14.94,14.128 6.39,3.379 13.77,5.051 22.17,5.051 8.6,0 16.04,-1.695 22.3,-5.121 6.27,-3.426 11.11,-8.211 14.51,-14.355 3.39,-6.145 5.09,-13.313 5.09,-21.473 0,-1.211 -0.02,-2.383 -0.07,-3.5 -0.04,-1.109 -0.12,-1.937 -0.21,-2.473 z m -244.64,121.516 c -5.64,0 -10.64,0.898 -15.03,2.699 -4.4,1.793 -7.86,4.395 -10.33,7.793 -2.48,3.403 -3.71,7.531 -3.71,12.383 0,5.496 1.5,9.969 4.51,13.414 3.02,3.449 7.02,6.094 12,7.914 4.99,1.828 10.37,3.016 16.2,3.598 8.5,0.824 14.38,1.578 17.61,2.261 3.23,0.68 4.84,1.872 4.84,3.567 0,0 0,0.027 0,0.051 0,0.019 0,0.05 0,0.093 0,2.868 -1.36,5.125 -4.11,6.778 -2.75,1.652 -6.58,2.48 -11.49,2.48 -5.2,0 -9.15,-0.922 -11.9,-2.793 -2.74,-1.871 -4.13,-4.738 -4.13,-8.574 h -22.22 c 0,6.219 1.7,11.461 5.07,15.738 3.38,4.278 7.94,7.532 13.73,9.739 5.78,2.214 12.32,3.304 19.6,3.304 6.81,0 13.09,-1.015 18.87,-3.086 5.78,-2.062 10.45,-5.168 13.97,-9.297 3.52,-4.132 5.27,-9.382 5.27,-15.742 0,-1.023 0,-2.019 0,-3.011 0,-0.997 0,-2.02 0,-3.036 v -27.402 c 0,-1.988 0.07,-3.883 0.2,-5.707 0.11,-1.82 0.39,-3.496 0.82,-5.004 0.48,-1.703 1.09,-3.105 1.82,-4.226 0.73,-1.118 1.34,-1.891 1.82,-2.332 h -22.22 c -0.34,0.343 -0.85,1.046 -1.56,2.117 -0.7,1.062 -1.31,2.308 -1.79,3.711 -0.59,1.703 -1,3.429 -1.27,5.152 -0.27,1.727 -0.41,3.738 -0.41,6.07 l 4.66,-3.203 c -1.36,-3.207 -3.54,-5.949 -6.58,-8.258 -3.03,-2.304 -6.63,-4.082 -10.78,-5.316 -4.15,-1.246 -8.65,-1.875 -13.46,-1.875 z m 6.05,16.902 c 3.54,0 6.88,0.66 9.96,1.95 3.08,1.285 5.59,3.3 7.52,6.066 1.95,2.773 2.92,6.391 2.92,10.863 v 7.793 l 5.62,-5.469 c -3.21,-1.16 -6.91,-2.109 -11.11,-2.863 -4.2,-0.754 -8.4,-1.359 -12.58,-1.793 -4.95,-0.488 -8.64,-1.316 -11.1,-2.508 -2.46,-1.183 -3.69,-3.199 -3.69,-6.023 0,-2.668 1.04,-4.656 3.14,-5.996 2.08,-1.336 5.2,-2.02 9.32,-2.02 z m 57.19,-15.3 v 77.39 h 22.66 v -26.672 l -4.66,2.918 c 0.53,3.637 1.51,6.996 2.92,10.051 1.4,3.063 3.22,5.731 5.46,7.988 2.24,2.262 4.9,4.012 7.99,5.274 3.09,1.265 6.61,1.894 10.59,1.894 3.11,0 5.56,-0.218 7.34,-0.679 1.77,-0.461 2.86,-0.829 3.3,-1.071 l -3.72,-20.258 c -0.43,0.243 -1.41,0.637 -2.91,1.172 -1.51,0.532 -3.45,0.797 -5.84,0.797 -3.88,0 -7.13,-0.652 -9.75,-1.969 -2.63,-1.308 -4.72,-3.031 -6.3,-5.195 -1.58,-2.16 -2.72,-4.562 -3.4,-7.191 -0.68,-2.621 -1.02,-5.27 -1.02,-7.946 v -36.503 z m 95.88,-1.747 c -6.46,0 -12.41,1.551 -17.85,4.637 -5.45,3.082 -9.82,7.656 -13.12,13.723 -3.3,6.074 -4.95,13.555 -4.95,22.441 0,8.508 1.69,15.723 5.07,21.649 3.38,5.925 7.8,10.441 13.27,13.527 5.46,3.086 11.31,4.613 17.58,4.613 6.13,0 11.73,-1.55 16.81,-4.664 5.08,-3.105 9.13,-7.332 12.19,-12.699 3.06,-5.367 4.59,-11.566 4.59,-18.555 0,-0.25 0,-0.468 0,-0.679 0,-0.223 0,-0.473 0,-0.711 l -9.76,-0.145 c 0,0.145 0,0.313 0,0.488 0,0.168 0,0.317 0,0.461 0,3.641 -0.88,6.778 -2.63,9.403 -1.74,2.617 -4,4.656 -6.77,6.09 -2.77,1.433 -5.66,2.144 -8.67,2.144 -5.01,0 -9.33,-1.656 -12.97,-4.98 -3.65,-3.328 -5.47,-8.649 -5.47,-15.942 0,-7.281 1.85,-12.625 5.51,-16.054 3.67,-3.422 7.97,-5.145 12.93,-5.145 3.1,0 6.04,0.754 8.82,2.238 2.76,1.477 5,3.567 6.7,6.285 1.69,2.723 2.55,5.93 2.55,9.622 l 9.76,-0.508 c 0,-6.949 -1.48,-13.215 -4.47,-18.828 -2.99,-5.61 -7.01,-10.082 -12.1,-13.411 -5.07,-3.324 -10.75,-5 -17.02,-5 z m 23.83,1.747 v 113.89 h 22.66 v -113.89 z m 37,0 v 77.39 h 22.37 v -77.39 z m 11.14,89.992 c -3.49,0 -6.52,0.922 -9.13,2.773 -2.59,1.84 -3.91,4.445 -3.91,7.793 0,3.406 1.32,6.024 3.91,7.871 2.61,1.844 5.64,2.774 9.13,2.774 3.55,0 6.63,-0.93 9.24,-2.774 2.59,-1.847 3.88,-4.465 3.88,-7.871 0,-3.398 -1.29,-5.996 -3.88,-7.816 -2.61,-1.828 -5.69,-2.75 -9.24,-2.75 z m 64.63,-91.668 c -8.35,0 -15.72,1.726 -22.08,5.172 -6.36,3.449 -11.32,8.211 -14.89,14.265 -3.57,6.043 -5.36,13.012 -5.36,20.934 0,7.871 1.79,14.836 5.36,20.89 3.57,6.047 8.53,10.754 14.89,14.133 6.36,3.375 13.73,5.051 22.08,5.051 8.35,0 15.71,-1.676 22.07,-5.051 6.37,-3.379 11.35,-8.086 14.92,-14.133 3.58,-6.054 5.34,-13.019 5.34,-20.89 0,-7.922 -1.76,-14.891 -5.34,-20.934 -3.57,-6.054 -8.55,-10.816 -14.92,-14.265 -6.36,-3.446 -13.72,-5.172 -22.07,-5.172 z m 0,17.929 c 3.94,0 7.36,0.922 10.27,2.762 2.92,1.852 5.17,4.477 6.78,7.856 1.6,3.371 2.41,7.308 2.41,11.824 0,4.515 -0.81,8.457 -2.41,11.781 -1.61,3.328 -3.86,5.879 -6.78,7.676 -2.91,1.801 -6.33,2.691 -10.27,2.691 -3.88,0 -7.29,-0.89 -10.23,-2.691 -2.93,-1.797 -5.22,-4.348 -6.82,-7.676 -1.6,-3.324 -2.4,-7.266 -2.4,-11.781 0,-4.516 0.8,-8.453 2.4,-11.824 1.6,-3.379 3.89,-6.004 6.82,-7.856 2.94,-1.84 6.35,-2.762 10.23,-2.762 z m 77.73,97.637 V 306.645 H 3585 v 113.89 z M 3662,304.969 c -8.35,0 -15.71,1.726 -22.07,5.172 -6.37,3.449 -11.32,8.211 -14.89,14.265 -3.58,6.043 -5.37,13.012 -5.37,20.934 0,7.871 1.79,14.836 5.37,20.89 3.57,6.047 8.52,10.754 14.89,14.133 6.36,3.375 13.72,5.051 22.07,5.051 8.36,0 15.72,-1.676 22.08,-5.051 6.37,-3.379 11.35,-8.086 14.92,-14.133 3.57,-6.054 5.34,-13.019 5.34,-20.89 0,-7.922 -1.77,-14.891 -5.34,-20.934 -3.57,-6.054 -8.55,-10.816 -14.92,-14.265 -6.36,-3.446 -13.72,-5.172 -22.08,-5.172 z m 0,17.929 c 3.95,0 7.37,0.922 10.28,2.762 2.91,1.852 5.17,4.477 6.78,7.856 1.6,3.371 2.4,7.308 2.4,11.824 0,4.515 -0.8,8.457 -2.4,11.781 -1.61,3.328 -3.87,5.879 -6.78,7.676 -2.91,1.801 -6.33,2.691 -10.28,2.691 -3.88,0 -7.28,-0.89 -10.22,-2.691 -2.94,-1.797 -5.23,-4.348 -6.83,-7.676 -1.6,-3.324 -2.4,-7.266 -2.4,-11.781 0,-4.516 0.8,-8.453 2.4,-11.824 1.6,-3.379 3.89,-6.004 6.83,-7.856 2.94,-1.84 6.34,-2.762 10.22,-2.762 z m 107.77,-7.07 c 4.76,-0.488 8.93,-1.387 12.5,-2.719 3.57,-1.336 6.34,-3.304 8.33,-5.91 2,-2.594 2.99,-6.062 2.99,-10.394 0,-5 -1.63,-9.246 -4.9,-12.77 -3.28,-3.523 -8.09,-6.222 -14.4,-8.066 -6.32,-1.848 -13.97,-2.77 -22.96,-2.77 -13.26,0 -23.51,1.922 -30.78,5.731 -7.26,3.816 -10.9,8.89 -10.9,15.258 0,1.792 0.22,3.421 0.62,4.855 0.43,1.43 0.93,2.645 1.57,3.668 l 20.55,-2.992 c -0.25,-0.332 -0.5,-0.844 -0.76,-1.547 -0.27,-0.707 -0.42,-1.609 -0.42,-2.676 0,-2.574 1.95,-4.496 5.81,-5.754 3.87,-1.265 8.85,-1.89 14.97,-1.89 4.32,0 8.04,0.312 11.12,0.918 3.08,0.605 5.44,1.48 7.07,2.648 1.63,1.16 2.43,2.5 2.43,4.004 0,2.187 -1.05,3.621 -3.16,4.297 -2.11,0.683 -4.57,1.176 -7.34,1.457 l -29.29,2.992 c -5.39,0.531 -9.86,2.094 -13.4,4.664 -3.55,2.574 -5.33,6.047 -5.33,10.418 0,2.719 0.76,5.227 2.26,7.488 1.51,2.258 3.24,4.121 5.18,5.606 1.94,1.484 3.56,2.406 4.87,2.793 l 11.52,-5.824 c -0.92,-0.149 -1.99,-0.735 -3.23,-1.75 -1.24,-1.024 -1.87,-2.215 -1.87,-3.575 0,-1.359 0.7,-2.523 2.09,-3.496 1.39,-0.972 3.91,-1.629 7.6,-1.965 z m 7.64,68.207 h 19.9 l -8.09,-29.738 c -1.51,-5.629 -3.74,-10.637 -6.7,-15.031 -2.96,-4.395 -6.9,-7.871 -11.83,-10.395 -4.93,-2.527 -11.15,-3.785 -18.63,-3.785 -7.87,0 -14.67,1.211 -20.43,3.637 -5.76,2.429 -10.2,5.882 -13.31,10.324 -3.11,4.445 -4.66,9.695 -4.66,15.762 0,6.078 1.6,11.421 4.78,16.035 3.18,4.617 7.53,8.211 13.05,10.785 5.51,2.574 11.75,3.859 18.75,3.859 5.29,0 10.15,-0.847 14.55,-2.574 4.39,-1.726 7.94,-4.004 10.64,-6.824 2.69,-2.817 4.08,-5.926 4.17,-9.324 l -4.15,-1.098 z m -25.5,-42.414 c 3.21,0 6.03,0.535 8.46,1.578 2.42,1.047 4.32,2.574 5.68,4.594 1.36,2.02 2.04,4.445 2.04,7.312 0,2.813 -0.68,5.219 -2.04,7.215 -1.36,1.989 -3.26,3.524 -5.68,4.59 -2.43,1.07 -5.25,1.602 -8.46,1.602 -3.06,0 -5.8,-0.532 -8.26,-1.629 -2.45,-1.09 -4.39,-2.649 -5.8,-4.668 -1.4,-2.008 -2.12,-4.465 -2.12,-7.328 0,-2.817 0.68,-5.199 2.04,-7.168 1.36,-1.965 3.26,-3.473 5.69,-4.52 2.43,-1.043 5.24,-1.578 8.45,-1.578 z m 53.4,-34.976 v 77.39 h 22.37 v -77.39 z m 11.15,89.992 c -3.5,0 -6.53,0.922 -9.14,2.773 -2.59,1.84 -3.91,4.445 -3.91,7.793 0,3.406 1.32,6.024 3.91,7.871 2.61,1.844 5.64,2.774 9.14,2.774 3.54,0 6.63,-0.93 9.23,-2.774 2.6,-1.847 3.88,-4.465 3.88,-7.871 0,-3.398 -1.28,-5.996 -3.88,-7.816 -2.6,-1.828 -5.69,-2.75 -9.23,-2.75 z m 52.08,-91.594 c -5.63,0 -10.63,0.898 -15.03,2.699 -4.4,1.793 -7.85,4.395 -10.32,7.793 -2.48,3.403 -3.72,7.531 -3.72,12.383 0,5.496 1.51,9.969 4.52,13.414 3.01,3.449 7.02,6.094 11.99,7.914 4.99,1.828 10.38,3.016 16.21,3.598 8.5,0.824 14.38,1.578 17.61,2.261 3.23,0.68 4.83,1.872 4.83,3.567 0,0 0,0.027 0,0.051 0,0.019 0,0.05 0,0.093 0,2.868 -1.36,5.125 -4.1,6.778 -2.75,1.652 -6.59,2.48 -11.49,2.48 -5.2,0 -9.16,-0.922 -11.9,-2.793 -2.75,-1.871 -4.13,-4.738 -4.13,-8.574 h -22.22 c 0,6.219 1.69,11.461 5.07,15.738 3.38,4.278 7.94,7.532 13.73,9.739 5.77,2.214 12.31,3.304 19.59,3.304 6.81,0 13.1,-1.015 18.88,-3.086 5.78,-2.062 10.44,-5.168 13.96,-9.297 3.53,-4.132 5.28,-9.382 5.28,-15.742 0,-1.023 0,-2.019 0,-3.011 0,-0.997 0,-2.02 0,-3.036 v -27.402 c 0,-1.988 0.07,-3.883 0.19,-5.707 0.12,-1.82 0.39,-3.496 0.83,-5.004 0.48,-1.703 1.09,-3.105 1.82,-4.226 0.72,-1.118 1.33,-1.891 1.82,-2.332 h -22.23 c -0.34,0.343 -0.84,1.046 -1.55,2.117 -0.7,1.062 -1.31,2.308 -1.79,3.711 -0.59,1.703 -1,3.429 -1.27,5.152 -0.27,1.727 -0.42,3.738 -0.42,6.07 l 4.67,-3.203 c -1.36,-3.207 -3.55,-5.949 -6.58,-8.258 -3.03,-2.304 -6.63,-4.082 -10.78,-5.316 -4.15,-1.246 -8.65,-1.875 -13.47,-1.875 z m 6.05,16.902 c 3.55,0 6.88,0.66 9.97,1.95 3.08,1.285 5.58,3.3 7.52,6.066 1.95,2.773 2.92,6.391 2.92,10.863 v 7.793 l 5.61,-5.469 c -3.21,-1.16 -6.9,-2.109 -11.11,-2.863 -4.19,-0.754 -8.39,-1.359 -12.57,-1.793 -4.95,-0.488 -8.64,-1.316 -11.1,-2.508 -2.46,-1.183 -3.7,-3.199 -3.7,-6.023 0,-2.668 1.05,-4.656 3.14,-5.996 2.09,-1.336 5.2,-2.02 9.32,-2.02 z M 128.84,729.957 h 362.488 c 133.422,0 242.617,-109.191 242.617,-242.625 v -0.019 C 733.945,353.875 624.719,244.68 491.328,244.68 491.324,111.238 382.113,2.04297 248.691,2.04297 h -0.007 C 115.25,2.04297 6.03906,111.242 6.03906,244.684 v 362.484 c 0,6.883 5.61724,12.492 12.50004,12.492 H 116.34 V 244.68 164.543 c 0,-5.156 2.945,-9.559 7.715,-11.539 4.765,-1.977 9.965,-0.945 13.613,2.707 l 88.969,88.969 h 264.691 v 362.496 l -0.004,0.312 v 0.008 l -0.011,0.309 v 0.011 l -0.02,0.301 -0.004,0.016 -0.023,0.293 -0.004,0.023 -0.032,0.281 -0.003,0.032 -0.039,0.273 -0.004,0.035 -0.047,0.27 -0.004,0.039 -0.051,0.262 -0.008,0.047 -0.054,0.25 -0.012,0.05 -0.059,0.246 -0.015,0.055 -0.067,0.234 -0.015,0.063 -0.067,0.23 -0.019,0.067 -0.075,0.219 -0.019,0.07 -0.078,0.215 -0.028,0.074 -0.078,0.207 -0.031,0.078 -0.078,0.199 -0.039,0.082 -0.082,0.192 -0.039,0.086 -0.125,0.277 -0.086,0.176 -0.051,0.094 -0.09,0.168 -0.054,0.097 -0.086,0.164 -0.059,0.102 -0.09,0.152 -0.062,0.11 -0.094,0.144 -0.067,0.109 -0.089,0.141 -0.078,0.113 -0.09,0.129 -0.082,0.117 -0.09,0.125 -0.086,0.114 -0.09,0.121 -0.094,0.117 -0.09,0.113 -0.097,0.125 -0.09,0.102 -0.106,0.125 -0.085,0.101 -0.114,0.125 -0.086,0.094 -0.117,0.125 -0.086,0.086 -0.125,0.129 -0.082,0.082 -0.133,0.125 -0.082,0.078 -0.14,0.129 -0.196,0.176 -0.027,0.023 -0.074,0.063 -0.156,0.133 -0.071,0.058 -0.16,0.129 -0.07,0.055 -0.168,0.129 -0.067,0.05 -0.179,0.125 -0.063,0.043 -0.183,0.129 -0.059,0.039 -0.195,0.129 -0.051,0.032 -0.203,0.125 -0.051,0.031 -0.211,0.121 -0.043,0.031 -0.219,0.121 -0.043,0.024 -0.226,0.113 -0.035,0.023 -0.235,0.114 -0.035,0.019 -0.238,0.11 -0.031,0.015 -0.25,0.11 -0.024,0.007 -0.258,0.106 -0.015,0.008 -0.27,0.101 -0.012,0.008 -0.277,0.094 -0.008,0.004 -0.285,0.09 v 0.003 l -0.289,0.086 h -0.008 l -0.285,0.079 -0.012,0.003 -0.281,0.071 -0.019,0.004 -0.278,0.062 h -0.023 l -0.277,0.055 -0.032,0.008 -0.273,0.043 -0.035,0.007 -0.27,0.04 -0.039,0.003 -0.269,0.032 -0.043,0.004 -0.266,0.027 h -0.051 l -0.262,0.019 h -0.058 l -0.254,0.012 -0.387,0.008 H 116.34 v 97.797 c 0,6.879 5.609,12.492 12.5,12.492 z M 2509.19,144.453 c -25.15,0 -47.48,4.012 -67.11,12.035 -19.62,8.024 -35.01,19.617 -46.06,34.801 -11.07,15.176 -16.6,33.609 -16.6,55.289 0,24.504 6.72,44.445 20.17,59.836 13.45,15.402 31.33,27.219 53.55,35.348 22.23,8.129 46.3,13.445 72.32,16.047 37.94,3.687 64.17,7.046 78.59,10.082 8.32,1.75 21.57,5.523 21.57,16.148 0,13.926 -6.57,23.613 -18.32,30.688 -12.25,7.367 -29.37,11.054 -51.28,11.054 -23.2,0 -40.87,-4.121 -53.12,-12.472 -9.45,-6.438 -15.29,-15.524 -17.46,-27.207 h -99.74 c 1.78,22.972 9.21,42.699 22.24,59.187 15.06,19.082 35.45,33.613 61.24,43.481 25.81,9.867 54.98,14.738 87.49,14.738 30.36,0 58.44,-4.539 84.24,-13.766 25.8,-9.211 46.62,-23.086 62.34,-41.523 15.72,-18.426 23.52,-41.84 23.52,-70.246 0,-9 0,-17.993 0,-26.993 V 228.691 c 0,-24.273 3.8,-51.808 18.55,-77.078 H 2642.2 c -7.59,14.946 -8.88,24.551 -11.89,36.559 -3.84,-4.125 -8.15,-8 -12.92,-11.625 -13.55,-10.297 -29.6,-18.223 -48.14,-23.746 -18.54,-5.531 -38.59,-8.348 -60.06,-8.348 z m 118.04,162.512 c -7.68,-1.926 -15.84,-3.66 -24.48,-5.215 -18.75,-3.352 -37.51,-6.066 -56.16,-8.016 -22.12,-2.164 -38.59,-5.855 -49.54,-11.16 -10.95,-5.32 -16.48,-14.32 -16.48,-26.894 0,-11.918 4.66,-20.817 13.98,-26.774 9.33,-5.961 23.21,-8.996 41.63,-8.996 15.83,0 30.68,2.922 44.45,8.668 13.77,5.75 24.94,14.746 33.61,27.102 10.69,15.234 13.09,33.125 12.99,51.285 z M 2185.01,143.797 c -20.6,0 -40.44,2.394 -59.52,7.16 -19.07,4.77 -36.1,11.82 -51.17,21.141 -15.07,9.324 -26.99,21.031 -35.77,35.019 -8.78,13.981 -13.23,30.242 -13.23,48.891 0,0.863 0,1.953 0,3.144 0,1.192 0,2.063 0,2.719 h 100.17 c 0,-0.656 0,-1.305 0,-2.066 0,-0.762 0,-1.629 0,-2.492 0,-12.575 5.65,-21.793 16.81,-27.641 11.16,-5.863 26.23,-8.793 45.31,-8.793 9.97,0 19.62,1.094 28.85,3.144 9.21,2.063 16.79,5.43 22.76,10.082 5.96,4.668 8.89,10.52 8.89,17.68 0,11.481 -6.3,19.613 -18.97,24.387 -12.68,4.769 -33.07,9.547 -61.04,14.308 -15.83,2.606 -31.87,6.29 -48.14,11.067 -16.26,4.762 -31.21,11.16 -44.88,19.078 -13.65,7.914 -24.61,17.988 -32.85,30.246 -8.24,12.246 -12.35,27.102 -12.35,44.656 0,23.426 7.14,43.153 21.35,59.196 14.21,16.047 33.07,28.195 56.7,36.429 23.64,8.243 49.65,12.356 78.06,12.356 27.1,0 52.37,-4.445 75.78,-13.438 23.41,-8.996 42.39,-21.898 56.91,-38.703 14.53,-16.804 21.78,-37.078 21.78,-60.707 0,-0.433 0,-1.086 0,-1.953 0,-0.875 0,-1.734 0,-2.605 h -99.18 c 0,0.871 0,1.621 0,2.277 0,0.644 0,1.195 0,1.625 0,8.676 -2.71,15.723 -8.24,21.137 -5.54,5.422 -12.58,9.543 -21.03,12.254 -8.46,2.71 -17.24,4.015 -26.35,4.015 -8.24,0 -16.7,-0.871 -25.47,-2.715 -8.79,-1.843 -16.27,-4.875 -22.33,-9.109 -6.07,-4.223 -9.12,-10.184 -9.12,-17.777 0,-7.368 3.26,-13.329 9.76,-17.996 6.51,-4.665 15.61,-8.454 27.32,-11.379 11.71,-2.926 25.26,-5.75 40.66,-8.348 14.52,-2.391 29.92,-5.645 46.07,-9.863 16.16,-4.227 31.33,-10.196 45.53,-17.895 14.21,-7.695 25.7,-17.777 34.48,-30.246 8.78,-12.465 13.12,-28.293 13.12,-47.371 0,-19.734 -4.56,-36.648 -13.66,-50.738 -9.11,-14.094 -21.36,-25.477 -36.86,-34.262 -15.5,-8.777 -32.74,-15.281 -51.71,-19.508 -18.98,-4.234 -38.49,-6.406 -58.44,-6.406 z M 1054.12,588.195 v -436.34 h 104.36 v 138.446 h 153.67 c 193.24,0 196.6,297.894 -7.89,297.894 z m 250.14,-91.429 c 72.88,0 71.07,-115.028 7.89,-115.028 h -153.67 v 115.028 z m 680.81,91.429 V 151.613 h -99.52 V 588.195 Z M 1733.41,151.613 v 345.403 h 100.82 V 151.613 h -100.82" /></g></g></svg>