<?xml version="1.0" encoding="UTF-8" standalone="no"?>
<!-- Created with Inkscape (http://www.inkscape.org/) -->

<svg
   version="1.1"
   id="svg2"
   width="524"
   height="97.333336"
   viewBox="0 0 524 97.333336"
   sodipodi:docname="LOGOTIPO CMYK-3.eps"
   xmlns:inkscape="http://www.inkscape.org/namespaces/inkscape"
   xmlns:sodipodi="http://sodipodi.sourceforge.net/DTD/sodipodi-0.dtd"
   xmlns="http://www.w3.org/2000/svg"
   xmlns:svg="http://www.w3.org/2000/svg">
  <defs
     id="defs6" />
  <sodipodi:namedview
     id="namedview4"
     pagecolor="#ffffff"
     bordercolor="#000000"
     borderopacity="0.25"
     inkscape:showpageshadow="2"
     inkscape:pageopacity="0.0"
     inkscape:pagecheckerboard="0"
     inkscape:deskcolor="#d1d1d1" />
  <g
     id="g8"
     inkscape:groupmode="layer"
     inkscape:label="ink_ext_XXXXXX"
     transform="matrix(1.3333333,0,0,-1.3333333,0,97.333333)">
    <g
       id="g10"
       transform="scale(0.1)">
      <path
         d="m 1620.23,145.105 c -24.5,0 -44.68,4.012 -60.5,11.922 -15.82,7.918 -28.29,18.543 -37.4,31.985 -9.11,13.445 -15.5,28.402 -19.19,44.879 -3.69,16.484 -5.52,33.172 -5.52,50.093 0,7.801 0,16.036 0,24.707 0,8.684 0,17.567 0,26.668 v 161.653 h 100.81 V 351.301 c 0,-7.367 0,-14.528 0,-21.461 0,-6.942 0,-13.34 0,-19.192 0,-14.531 1.63,-27.863 4.88,-40 3.25,-12.144 9.32,-21.906 18.11,-29.277 8.78,-7.367 21.24,-11.058 37.51,-11.058 15.83,0 29.27,4.55 40.33,13.554 11.05,9 19.51,20.492 25.37,34.582 5.84,14.094 8.78,28.621 8.78,43.578 l 28.29,-23.089 c 0,-21.684 -3.25,-41.844 -9.86,-60.489 -6.62,-18.652 -16.05,-34.914 -28.19,-48.894 -12.15,-13.985 -26.88,-24.942 -44.34,-32.739 -17.46,-7.812 -37.18,-11.711 -59.08,-11.711 z m 888.97,-0.652 c -25.16,0 -47.49,4.012 -67.12,12.035 -19.62,8.024 -35.01,19.617 -46.07,34.801 -11.06,15.176 -16.59,33.609 -16.59,55.289 0,24.504 6.72,44.445 20.17,59.836 13.45,15.406 31.33,27.219 53.55,35.348 22.23,8.125 46.3,13.445 72.32,16.047 37.94,3.687 64.17,7.05 78.59,10.082 8.32,1.746 21.58,5.519 21.58,16.148 0,13.93 -6.57,23.613 -18.33,30.688 -12.25,7.367 -29.37,11.054 -51.28,11.054 -23.2,0 -40.87,-4.121 -53.12,-12.468 -9.45,-6.442 -15.29,-15.528 -17.46,-27.211 h -99.74 c 1.78,22.972 9.21,42.703 22.24,59.187 15.06,19.082 35.45,33.609 61.25,43.481 25.8,9.867 54.97,14.738 87.48,14.738 30.36,0 58.44,-4.543 84.24,-13.766 25.8,-9.211 46.62,-23.086 62.34,-41.519 15.71,-18.43 23.52,-41.844 23.52,-70.25 0,-9 0,-17.993 0,-26.993 V 228.691 c 0,-24.277 3.8,-51.808 18.55,-77.078 H 2642.2 c -7.59,14.95 -8.88,24.551 -11.89,36.559 -3.84,-4.125 -8.15,-8 -12.92,-11.625 -13.55,-10.297 -29.6,-18.223 -48.14,-23.746 -18.54,-5.531 -38.59,-8.348 -60.05,-8.348 z m 118.04,162.516 c -7.69,-1.93 -15.85,-3.664 -24.49,-5.215 -18.75,-3.356 -37.51,-6.07 -56.16,-8.02 -22.12,-2.164 -38.59,-5.855 -49.54,-11.164 -10.95,-5.316 -16.48,-14.316 -16.48,-26.89 0,-11.922 4.66,-20.817 13.98,-26.774 9.33,-5.961 23.21,-8.996 41.63,-8.996 15.83,0 30.68,2.922 44.45,8.668 13.77,5.75 24.94,14.746 33.61,27.102 10.69,15.238 13.09,33.125 13,51.289 z M 2185.01,143.797 c -20.6,0 -40.44,2.394 -59.52,7.16 -19.07,4.77 -36.1,11.82 -51.17,21.145 -15.07,9.32 -26.99,21.031 -35.77,35.015 -8.78,13.981 -13.23,30.242 -13.23,48.891 0,0.863 0,1.953 0,3.144 0,1.192 0,2.063 0,2.719 h 100.17 c 0,-0.656 0,-1.305 0,-2.062 0,-0.77 0,-1.633 0,-2.496 0,-12.575 5.65,-21.793 16.81,-27.641 11.16,-5.863 26.23,-8.793 45.31,-8.793 9.97,0 19.62,1.094 28.85,3.144 9.21,2.063 16.79,5.43 22.76,10.082 5.96,4.668 8.89,10.52 8.89,17.68 0,11.481 -6.3,19.613 -18.97,24.387 -12.68,4.769 -33.07,9.547 -61.04,14.308 -15.83,2.606 -31.87,6.29 -48.14,11.067 -16.26,4.762 -31.21,11.156 -44.88,19.078 -13.65,7.91 -24.61,17.988 -32.85,30.246 -8.24,12.246 -12.35,27.102 -12.35,44.66 0,23.422 7.15,43.149 21.35,59.192 14.21,16.047 33.07,28.195 56.7,36.425 23.64,8.247 49.65,12.36 78.06,12.36 27.1,0 52.37,-4.445 75.78,-13.438 23.41,-8.996 42.39,-21.898 56.91,-38.703 14.53,-16.804 21.78,-37.078 21.78,-60.707 0,-0.433 0,-1.086 0,-1.953 0,-0.875 0,-1.734 0,-2.605 h -99.18 c 0,0.871 0,1.625 0,2.277 0,0.644 0,1.195 0,1.625 0,8.672 -2.71,15.723 -8.24,21.137 -5.53,5.422 -12.58,9.543 -21.03,12.254 -8.46,2.71 -17.24,4.015 -26.35,4.015 -8.24,0 -16.69,-0.871 -25.47,-2.715 -8.79,-1.843 -16.27,-4.875 -22.33,-9.105 -6.07,-4.227 -9.12,-10.188 -9.12,-17.781 0,-7.368 3.26,-13.329 9.76,-17.996 6.51,-4.665 15.62,-8.454 27.32,-11.379 11.71,-2.926 25.26,-5.75 40.66,-8.348 14.52,-2.391 29.92,-5.645 46.07,-9.867 16.16,-4.223 31.33,-10.192 45.53,-17.891 14.21,-7.695 25.7,-17.777 34.48,-30.242 8.78,-12.469 13.12,-28.297 13.12,-47.375 0,-19.734 -4.56,-36.645 -13.66,-50.738 -9.11,-14.094 -21.36,-25.481 -36.86,-34.266 -15.5,-8.773 -32.74,-15.277 -51.71,-19.504 -18.98,-4.234 -38.49,-6.406 -58.44,-6.406 z M 1054.12,588.191 V 151.859 h 104.36 v 138.442 h 153.68 c 193.23,0 196.59,297.89 -7.91,297.89 z m 250.13,-91.425 c 72.89,0 71.08,-115.028 7.91,-115.028 h -153.68 v 115.028 z m 680.82,91.425 V 151.613 h -99.52 V 588.191 Z M 1733.41,151.613 v 345.399 h 100.82 V 151.613 h -100.82"
         style="fill:#343334;fill-opacity:1;fill-rule:nonzero;stroke:none"
         id="path12" />
      <path
         d="M 491.332,619.66 V 244.684 C 491.332,111.242 382.113,2.04297 248.691,2.04297 H 248.68 C 115.25,2.04297 6.03906,111.242 6.03906,244.684 v 362.484 c 0,6.879 5.61324,12.492 12.50004,12.492 H 491.332"
         style="fill:#42b9c0;fill-opacity:1;fill-rule:evenodd;stroke:none"
         id="path14" />
      <path
         d="m 128.84,729.957 h 362.488 c 133.422,0 242.617,-109.191 242.617,-242.625 v -0.019 C 733.945,353.875 624.719,244.68 491.328,244.68 H 208.047 116.34 v 1.988 470.797 c 0,6.879 5.613,12.492 12.5,12.492"
         style="fill:#4b60b6;fill-opacity:1;fill-rule:evenodd;stroke:none"
         id="path16" />
      <path
         d="M 491.328,244.68 H 226.637 l -88.969,-88.969 c -3.648,-3.652 -8.848,-4.684 -13.613,-2.707 -4.77,1.98 -7.715,6.383 -7.715,11.539 v 80.137 374.988 h 362.488 c 6.883,0 12.5,-5.613 12.5,-12.492 V 244.68"
         style="fill:#352f91;fill-opacity:1;fill-rule:evenodd;stroke:none"
         id="path18" />
      <path
         d="m 3156.32,304.898 c -8.5,0 -15.95,1.727 -22.37,5.149 -6.41,3.426 -11.36,8.187 -14.88,14.305 -3.53,6.121 -5.3,13.191 -5.3,21.203 0,8.113 1.77,15.164 5.3,21.109 3.52,5.949 8.47,10.57 14.88,13.875 6.42,3.297 13.87,4.949 22.37,4.949 6.37,0 12,-0.922 16.91,-2.793 4.91,-1.871 9.01,-4.343 12.31,-7.406 3.31,-3.062 5.81,-6.41 7.51,-10.059 1.7,-3.64 2.55,-7.261 2.55,-10.859 0,-0.043 0,-0.113 0,-0.238 0,-0.117 0,-0.242 0,-0.34 h -22.37 c 0,0.293 0,0.578 -0.03,0.848 -0.02,0.265 -0.09,0.535 -0.19,0.828 -0.38,2.043 -1.24,3.953 -2.55,5.754 -1.31,1.797 -3.14,3.285 -5.49,4.422 -2.35,1.14 -5.29,1.703 -8.79,1.703 -3.74,0 -7.07,-0.825 -10,-2.477 -2.95,-1.652 -5.28,-4.086 -6.98,-7.308 -1.7,-3.235 -2.55,-7.243 -2.55,-12.008 0,-4.664 0.85,-8.668 2.55,-12.039 1.7,-3.379 4.03,-5.981 6.98,-7.782 2.93,-1.789 6.26,-2.691 10,-2.691 3.83,0 6.97,0.609 9.4,1.793 2.42,1.191 4.25,2.793 5.47,4.809 1.21,2.019 1.93,4.226 2.18,6.664 h 22.37 c 0,-3.598 -0.82,-7.239 -2.5,-10.961 -1.68,-3.711 -4.15,-7.114 -7.43,-10.176 -3.28,-3.059 -7.39,-5.535 -12.29,-7.43 -4.91,-1.898 -10.6,-2.844 -17.06,-2.844 z m -0.22,-154.964 c -8.35,0 -15.71,1.726 -22.08,5.168 -6.36,3.453 -11.32,8.211 -14.88,14.265 -3.58,6.047 -5.37,13.012 -5.37,20.93 0,7.875 1.79,14.844 5.37,20.898 3.56,6.047 8.52,10.754 14.88,14.129 6.37,3.379 13.73,5.051 22.08,5.051 8.36,0 15.72,-1.672 22.08,-5.051 6.37,-3.375 11.35,-8.082 14.92,-14.129 3.57,-6.054 5.34,-13.023 5.34,-20.898 0,-7.918 -1.77,-14.883 -5.34,-20.93 -3.57,-6.054 -8.55,-10.812 -14.92,-14.265 -6.36,-3.442 -13.72,-5.168 -22.08,-5.168 z m 0,17.925 c 3.94,0 7.36,0.922 10.28,2.766 2.91,1.848 5.17,4.473 6.78,7.852 1.6,3.371 2.4,7.312 2.4,11.82 0,4.519 -0.8,8.461 -2.4,11.785 -1.61,3.328 -3.87,5.879 -6.78,7.68 -2.92,1.797 -6.34,2.687 -10.28,2.687 -3.88,0 -7.28,-0.89 -10.22,-2.687 -2.93,-1.801 -5.23,-4.352 -6.83,-7.68 -1.6,-3.324 -2.4,-7.266 -2.4,-11.785 0,-4.508 0.8,-8.449 2.4,-11.82 1.6,-3.379 3.9,-6.004 6.83,-7.852 2.94,-1.844 6.34,-2.766 10.22,-2.766 z m 108.86,-16.25 v 32.864 c 0,1.847 0,3.523 0,5.027 0,1.508 0,2.867 0,4.082 0,3.211 -0.41,6.148 -1.24,8.793 -0.83,2.648 -2.31,4.762 -4.45,6.363 -2.13,1.602 -5.22,2.407 -9.25,2.407 -3.5,0 -6.5,-0.805 -9.06,-2.407 -2.55,-1.601 -4.51,-3.84 -5.88,-6.707 -1.36,-2.863 -2.04,-6.168 -2.04,-9.906 l -6.26,4.52 c 0,6.703 1.45,12.582 4.37,17.632 2.91,5.051 6.87,9.008 11.85,11.875 4.98,2.868 10.49,4.297 16.57,4.297 6.36,0 11.61,-1.254 15.71,-3.804 4.11,-2.555 7.17,-6.102 9.18,-10.641 2.02,-4.547 3.01,-9.859 3.01,-15.938 0,-2.476 0,-5.25 0,-8.304 0,-3.063 0,-6.192 0,-9.403 v -30.75 z m -54.51,0 v 77.387 h 22.59 V 151.609 Z M 3325.79,265.5 V 151.609 h -22.3 V 265.5 Z m 15.06,-113.891 v 77.387 h 22.37 v -77.387 z m 11.15,89.989 c -3.49,0 -6.53,0.922 -9.13,2.773 -2.6,1.844 -3.91,4.445 -3.91,7.793 0,3.406 1.31,6.027 3.91,7.875 2.6,1.84 5.64,2.77 9.13,2.77 3.55,0 6.63,-0.93 9.23,-2.77 2.6,-1.848 3.89,-4.469 3.89,-7.875 0,-3.398 -1.29,-5.996 -3.89,-7.816 -2.6,-1.828 -5.68,-2.75 -9.23,-2.75 z m 80.36,-89.989 v 32.864 c 0,1.847 0,3.523 0,5.027 0,1.508 0,2.867 0,4.082 0,3.211 -0.41,6.148 -1.23,8.793 -0.83,2.648 -2.31,4.762 -4.45,6.363 -2.13,1.602 -5.22,2.407 -9.25,2.407 -3.5,0 -6.51,-0.805 -9.06,-2.407 -2.55,-1.601 -4.52,-3.84 -5.88,-6.707 -1.36,-2.863 -2.04,-6.168 -2.04,-9.906 l -6.26,4.52 c 0,6.703 1.45,12.582 4.37,17.632 2.9,5.051 6.87,9.008 11.85,11.875 4.98,2.868 10.49,4.297 16.57,4.297 6.36,0 11.61,-1.254 15.71,-3.804 4.1,-2.555 7.16,-6.102 9.18,-10.641 2.02,-4.547 3.01,-9.859 3.01,-15.938 0,-2.476 0,-5.25 0,-8.304 0,-3.063 0,-6.192 0,-9.403 v -30.75 z m -54.5,0 v 77.387 h 22.59 v -77.387 z m 100.62,31.918 v 14.938 h 51.3 l -2.19,-3.793 c 0,0.394 0,0.781 0,1.148 0,0.356 0,0.7 0,1.047 0,2.762 -0.66,5.434 -1.96,7.988 -1.33,2.543 -3.33,4.637 -6.08,6.266 -2.75,1.625 -6.27,2.426 -10.55,2.426 -4.27,0 -7.94,-0.899 -11.02,-2.719 -3.09,-1.82 -5.44,-4.445 -7.07,-7.844 -1.62,-3.402 -2.45,-7.507 -2.45,-12.32 0,-4.949 0.8,-9.184 2.38,-12.699 1.57,-3.524 3.93,-6.242 7.07,-8.137 3.13,-1.894 7.02,-2.844 11.68,-2.844 3.01,0 5.61,0.293 7.79,0.848 2.19,0.563 3.99,1.266 5.38,2.141 1.38,0.871 2.42,1.843 3.15,2.91 0.73,1.074 1.17,2.113 1.32,3.137 h 22.29 c -0.29,-3.25 -1.41,-6.434 -3.35,-9.571 -1.94,-3.136 -4.64,-5.949 -8.09,-8.449 -3.45,-2.5 -7.62,-4.496 -12.56,-5.953 -4.93,-1.465 -10.56,-2.188 -16.88,-2.188 -8.55,0 -16,1.727 -22.36,5.149 -6.37,3.43 -11.3,8.16 -14.8,14.215 -3.5,6.047 -5.25,13.011 -5.25,20.937 0,8.012 1.8,15.055 5.37,21.11 3.57,6.043 8.55,10.75 14.94,14.128 6.39,3.379 13.77,5.051 22.17,5.051 8.6,0 16.04,-1.695 22.3,-5.125 6.27,-3.422 11.11,-8.207 14.51,-14.351 3.39,-6.149 5.09,-13.313 5.09,-21.473 0,-1.211 -0.02,-2.379 -0.07,-3.5 -0.04,-1.109 -0.12,-1.937 -0.21,-2.473 z m -244.64,121.516 c -5.64,0 -10.64,0.902 -15.03,2.699 -4.4,1.793 -7.85,4.395 -10.33,7.797 -2.48,3.399 -3.71,7.527 -3.71,12.383 0,5.492 1.5,9.965 4.51,13.41 3.02,3.449 7.02,6.094 12,7.914 4.99,1.828 10.37,3.016 16.2,3.598 8.5,0.824 14.38,1.578 17.61,2.261 3.23,0.68 4.84,1.868 4.84,3.567 0,0 0,0.027 0,0.051 0,0.019 0,0.05 0,0.093 0,2.868 -1.36,5.125 -4.11,6.778 -2.75,1.652 -6.58,2.476 -11.49,2.476 -5.2,0 -9.15,-0.918 -11.9,-2.789 -2.74,-1.871 -4.13,-4.738 -4.13,-8.574 h -22.22 c 0,6.219 1.7,11.461 5.07,15.738 3.38,4.278 7.94,7.532 13.73,9.739 5.78,2.214 12.32,3.304 19.6,3.304 6.81,0 13.09,-1.015 18.87,-3.086 5.78,-2.062 10.44,-5.168 13.97,-9.297 3.52,-4.132 5.27,-9.382 5.27,-15.742 0,-1.023 0,-2.019 0,-3.011 0,-0.993 0,-2.02 0,-3.036 v -27.402 c 0,-1.988 0.07,-3.879 0.2,-5.707 0.11,-1.82 0.39,-3.496 0.82,-5.004 0.49,-1.703 1.09,-3.105 1.82,-4.226 0.73,-1.118 1.34,-1.891 1.82,-2.332 h -22.22 c -0.34,0.347 -0.85,1.046 -1.56,2.117 -0.7,1.062 -1.31,2.308 -1.79,3.711 -0.59,1.703 -1,3.429 -1.26,5.152 -0.28,1.727 -0.42,3.738 -0.42,6.07 l 4.66,-3.203 c -1.36,-3.207 -3.54,-5.949 -6.58,-8.258 -3.03,-2.304 -6.63,-4.082 -10.78,-5.316 -4.15,-1.246 -8.65,-1.875 -13.46,-1.875 z m 6.05,16.902 c 3.54,0 6.88,0.66 9.96,1.95 3.08,1.285 5.59,3.3 7.53,6.066 1.94,2.773 2.91,6.391 2.91,10.863 v 7.793 l 5.62,-5.469 c -3.21,-1.16 -6.91,-2.109 -11.11,-2.863 -4.2,-0.754 -8.4,-1.363 -12.58,-1.793 -4.95,-0.488 -8.65,-1.316 -11.1,-2.508 -2.46,-1.183 -3.69,-3.199 -3.69,-6.023 0,-2.668 1.04,-4.656 3.14,-5.996 2.08,-1.336 5.2,-2.02 9.32,-2.02 z m 57.19,-15.3 v 77.39 h 22.67 v -26.672 l -4.67,2.918 c 0.53,3.637 1.51,6.996 2.92,10.051 1.4,3.063 3.22,5.731 5.46,7.988 2.24,2.262 4.9,4.012 7.99,5.274 3.09,1.265 6.61,1.894 10.59,1.894 3.11,0 5.56,-0.218 7.34,-0.679 1.77,-0.461 2.86,-0.825 3.3,-1.067 l -3.72,-20.258 c -0.43,0.239 -1.41,0.633 -2.91,1.168 -1.51,0.536 -3.45,0.797 -5.84,0.797 -3.87,0 -7.13,-0.652 -9.75,-1.965 -2.63,-1.312 -4.72,-3.039 -6.3,-5.199 -1.58,-2.16 -2.72,-4.562 -3.4,-7.187 -0.68,-2.625 -1.01,-5.274 -1.01,-7.95 v -36.503 z m 95.88,-1.747 c -6.46,0 -12.41,1.551 -17.85,4.637 -5.45,3.082 -9.82,7.653 -13.12,13.723 -3.3,6.074 -4.95,13.555 -4.95,22.441 0,8.508 1.69,15.719 5.07,21.649 3.38,5.922 7.8,10.441 13.27,13.527 5.46,3.086 11.31,4.613 17.58,4.613 6.13,0 11.73,-1.55 16.81,-4.664 5.07,-3.109 9.14,-7.332 12.19,-12.699 3.06,-5.367 4.59,-11.566 4.59,-18.555 0,-0.25 0,-0.468 0,-0.679 0,-0.223 0,-0.469 0,-0.711 l -9.76,-0.145 c 0,0.145 0,0.313 0,0.488 0,0.168 0,0.317 0,0.461 0,3.641 -0.88,6.778 -2.63,9.403 -1.74,2.617 -4,4.656 -6.77,6.09 -2.77,1.433 -5.66,2.14 -8.67,2.14 -5.01,0 -9.33,-1.652 -12.97,-4.976 -3.65,-3.328 -5.47,-8.649 -5.47,-15.942 0,-7.281 1.85,-12.625 5.51,-16.054 3.67,-3.422 7.97,-5.145 12.93,-5.145 3.1,0 6.05,0.754 8.82,2.238 2.77,1.477 5,3.567 6.7,6.285 1.7,2.719 2.55,5.93 2.55,9.622 l 9.76,-0.508 c 0,-6.949 -1.48,-13.215 -4.46,-18.828 -3,-5.61 -7.02,-10.082 -12.11,-13.411 -5.07,-3.328 -10.75,-5 -17.02,-5 z m 23.83,1.747 v 113.89 h 22.66 v -113.89 z m 37,0 v 77.39 h 22.37 v -77.39 z m 11.14,89.992 c -3.49,0 -6.52,0.922 -9.13,2.773 -2.59,1.84 -3.91,4.445 -3.91,7.793 0,3.406 1.32,6.024 3.91,7.875 2.61,1.84 5.64,2.77 9.13,2.77 3.55,0 6.63,-0.93 9.24,-2.77 2.59,-1.851 3.88,-4.469 3.88,-7.875 0,-3.398 -1.29,-5.996 -3.88,-7.816 -2.61,-1.828 -5.69,-2.75 -9.24,-2.75 z m 64.62,-91.664 c -8.34,0 -15.71,1.722 -22.07,5.168 -6.36,3.449 -11.32,8.211 -14.89,14.265 -3.57,6.043 -5.36,13.012 -5.36,20.93 0,7.875 1.79,14.84 5.36,20.894 3.57,6.047 8.53,10.754 14.89,14.133 6.36,3.379 13.73,5.051 22.07,5.051 8.36,0 15.73,-1.672 22.08,-5.051 6.37,-3.379 11.35,-8.086 14.92,-14.133 3.58,-6.054 5.34,-13.019 5.34,-20.894 0,-7.918 -1.76,-14.887 -5.34,-20.93 -3.57,-6.054 -8.55,-10.816 -14.92,-14.265 -6.35,-3.446 -13.72,-5.168 -22.08,-5.168 z m 0,17.925 c 3.95,0 7.37,0.922 10.29,2.766 2.91,1.848 5.16,4.473 6.77,7.852 1.6,3.371 2.41,7.308 2.41,11.82 0,4.519 -0.81,8.457 -2.41,11.785 -1.61,3.324 -3.86,5.879 -6.77,7.676 -2.92,1.797 -6.34,2.691 -10.29,2.691 -3.87,0 -7.28,-0.894 -10.21,-2.691 -2.94,-1.797 -5.23,-4.352 -6.83,-7.676 -1.6,-3.328 -2.41,-7.266 -2.41,-11.785 0,-4.512 0.81,-8.449 2.41,-11.82 1.6,-3.379 3.89,-6.004 6.83,-7.852 2.93,-1.844 6.34,-2.766 10.21,-2.766 z m 77.75,97.637 V 306.645 H 3585 v 113.89 z M 3662,304.973 c -8.35,0 -15.71,1.722 -22.08,5.168 -6.36,3.449 -11.31,8.211 -14.88,14.265 -3.58,6.043 -5.37,13.012 -5.37,20.93 0,7.875 1.79,14.84 5.37,20.894 3.57,6.047 8.52,10.754 14.88,14.133 6.37,3.379 13.73,5.051 22.08,5.051 8.36,0 15.72,-1.672 22.08,-5.051 6.37,-3.379 11.35,-8.086 14.92,-14.133 3.57,-6.054 5.34,-13.019 5.34,-20.894 0,-7.918 -1.77,-14.887 -5.34,-20.93 -3.57,-6.054 -8.55,-10.816 -14.92,-14.265 -6.36,-3.446 -13.72,-5.168 -22.08,-5.168 z m 0,17.925 c 3.95,0 7.37,0.922 10.28,2.766 2.91,1.848 5.17,4.473 6.78,7.852 1.6,3.371 2.4,7.308 2.4,11.82 0,4.519 -0.8,8.457 -2.4,11.785 -1.61,3.324 -3.87,5.879 -6.78,7.676 -2.91,1.797 -6.33,2.691 -10.28,2.691 -3.88,0 -7.28,-0.894 -10.22,-2.691 -2.94,-1.797 -5.23,-4.352 -6.83,-7.676 -1.6,-3.328 -2.4,-7.266 -2.4,-11.785 0,-4.512 0.8,-8.449 2.4,-11.82 1.6,-3.379 3.89,-6.004 6.83,-7.852 2.94,-1.844 6.34,-2.766 10.22,-2.766 z m 107.77,-7.07 c 4.76,-0.488 8.93,-1.387 12.5,-2.719 3.57,-1.339 6.34,-3.304 8.33,-5.91 2,-2.594 2.99,-6.062 2.99,-10.394 0,-5 -1.63,-9.246 -4.9,-12.77 -3.28,-3.523 -8.09,-6.222 -14.4,-8.066 -6.32,-1.848 -13.98,-2.77 -22.96,-2.77 -13.26,0 -23.51,1.922 -30.78,5.731 -7.26,3.816 -10.9,8.89 -10.9,15.258 0,1.792 0.22,3.421 0.63,4.855 0.42,1.43 0.92,2.648 1.56,3.672 l 20.55,-2.992 c -0.25,-0.336 -0.5,-0.848 -0.76,-1.551 -0.27,-0.707 -0.42,-1.606 -0.42,-2.676 0,-2.574 1.95,-4.496 5.81,-5.754 3.87,-1.265 8.85,-1.894 14.97,-1.894 4.32,0 8.04,0.316 11.12,0.922 3.08,0.605 5.44,1.476 7.07,2.648 1.63,1.16 2.43,2.5 2.43,4.004 0,2.187 -1.04,3.621 -3.16,4.301 -2.11,0.679 -4.57,1.168 -7.34,1.453 l -29.29,2.992 c -5.39,0.531 -9.86,2.094 -13.4,4.664 -3.55,2.574 -5.33,6.047 -5.33,10.418 0,2.719 0.76,5.227 2.26,7.488 1.51,2.258 3.24,4.121 5.18,5.606 1.93,1.484 3.57,2.406 4.87,2.793 l 11.52,-5.824 c -0.92,-0.149 -1.99,-0.735 -3.23,-1.75 -1.24,-1.024 -1.87,-2.215 -1.87,-3.575 0,-1.359 0.7,-2.523 2.09,-3.496 1.39,-0.972 3.91,-1.629 7.6,-1.965 z m 7.64,68.207 h 19.9 l -8.09,-29.738 c -1.51,-5.629 -3.74,-10.633 -6.7,-15.027 -2.96,-4.399 -6.9,-7.875 -11.83,-10.399 -4.93,-2.527 -11.15,-3.785 -18.63,-3.785 -7.87,0 -14.67,1.211 -20.43,3.637 -5.76,2.429 -10.2,5.882 -13.31,10.324 -3.11,4.445 -4.67,9.695 -4.67,15.766 0,6.074 1.62,11.417 4.8,16.031 3.17,4.613 7.52,8.211 13.04,10.785 5.51,2.574 11.75,3.859 18.75,3.859 5.29,0 10.15,-0.847 14.55,-2.574 4.39,-1.726 7.94,-4.004 10.64,-6.82 2.69,-2.824 4.08,-5.93 4.17,-9.328 l -4.15,-1.098 z m -25.5,-42.414 c 3.21,0 6.03,0.535 8.45,1.578 2.43,1.047 4.33,2.574 5.69,4.594 1.36,2.02 2.04,4.445 2.04,7.312 0,2.813 -0.68,5.219 -2.04,7.215 -1.36,1.989 -3.26,3.524 -5.69,4.59 -2.42,1.07 -5.24,1.602 -8.45,1.602 -3.06,0 -5.8,-0.532 -8.26,-1.629 -2.45,-1.09 -4.39,-2.649 -5.8,-4.668 -1.41,-2.008 -2.12,-4.465 -2.12,-7.328 0,-2.817 0.68,-5.199 2.04,-7.168 1.36,-1.965 3.26,-3.473 5.69,-4.52 2.43,-1.043 5.24,-1.578 8.45,-1.578 z m 53.4,-34.976 v 77.39 h 22.37 v -77.39 z m 11.15,89.992 c -3.5,0 -6.53,0.922 -9.14,2.773 -2.59,1.84 -3.91,4.445 -3.91,7.793 0,3.406 1.32,6.024 3.91,7.875 2.61,1.84 5.64,2.77 9.14,2.77 3.54,0 6.63,-0.93 9.23,-2.77 2.6,-1.851 3.88,-4.469 3.88,-7.875 0,-3.398 -1.28,-5.996 -3.88,-7.816 -2.6,-1.828 -5.69,-2.75 -9.23,-2.75 z m 52.08,-91.594 c -5.63,0 -10.63,0.902 -15.02,2.699 -4.41,1.793 -7.86,4.395 -10.33,7.797 -2.48,3.399 -3.72,7.527 -3.72,12.383 0,5.492 1.51,9.965 4.52,13.41 3.01,3.449 7.02,6.094 11.99,7.914 4.99,1.828 10.38,3.016 16.21,3.598 8.5,0.824 14.38,1.578 17.61,2.261 3.23,0.68 4.83,1.868 4.83,3.567 0,0 0,0.027 0,0.051 0,0.019 0,0.05 0,0.093 0,2.868 -1.36,5.125 -4.1,6.778 -2.75,1.652 -6.59,2.476 -11.49,2.476 -5.2,0 -9.16,-0.918 -11.9,-2.789 -2.75,-1.871 -4.13,-4.738 -4.13,-8.574 h -22.22 c 0,6.219 1.69,11.461 5.07,15.738 3.38,4.278 7.94,7.532 13.72,9.739 5.78,2.214 12.32,3.304 19.6,3.304 6.81,0 13.1,-1.015 18.88,-3.086 5.78,-2.062 10.44,-5.168 13.97,-9.297 3.52,-4.132 5.27,-9.382 5.27,-15.742 0,-1.023 0,-2.019 0,-3.011 0,-0.993 0,-2.02 0,-3.036 v -27.402 c 0,-1.988 0.07,-3.879 0.19,-5.707 0.12,-1.82 0.39,-3.496 0.83,-5.004 0.48,-1.703 1.09,-3.105 1.82,-4.226 0.72,-1.118 1.33,-1.891 1.82,-2.332 h -22.23 c -0.34,0.347 -0.84,1.046 -1.55,2.117 -0.7,1.062 -1.31,2.308 -1.79,3.711 -0.59,1.703 -1.01,3.429 -1.27,5.152 -0.27,1.727 -0.41,3.738 -0.41,6.07 l 4.66,-3.203 c -1.36,-3.207 -3.55,-5.949 -6.58,-8.258 -3.03,-2.304 -6.63,-4.082 -10.78,-5.316 -4.15,-1.246 -8.65,-1.875 -13.47,-1.875 z m 6.05,16.902 c 3.55,0 6.88,0.66 9.97,1.95 3.08,1.285 5.58,3.3 7.52,6.066 1.95,2.773 2.92,6.391 2.92,10.863 v 7.793 l 5.61,-5.469 c -3.21,-1.16 -6.9,-2.109 -11.1,-2.863 -4.2,-0.754 -8.4,-1.363 -12.58,-1.793 -4.95,-0.488 -8.64,-1.316 -11.1,-2.508 -2.46,-1.183 -3.7,-3.199 -3.7,-6.023 0,-2.668 1.05,-4.656 3.14,-5.996 2.09,-1.336 5.2,-2.02 9.32,-2.02"
         style="fill:#343334;fill-opacity:1;fill-rule:nonzero;stroke:none"
         id="path20" />
      <path
         d="m 2930.48,287.207 c 10.51,0 19.03,-8.516 19.03,-19.023 0,-10.508 -8.52,-19.024 -19.03,-19.024 -10.5,0 -19.02,8.516 -19.02,19.024 0,10.507 8.52,19.023 19.02,19.023"
         style="fill:#352f91;fill-opacity:1;fill-rule:evenodd;stroke:none"
         id="path22" />
    </g>
  </g>
</svg>
