<?xml version="1.0" encoding="UTF-8" standalone="no"?>
<!-- Created with Inkscape (http://www.inkscape.org/) -->

<svg
   version="1.1"
   id="svg2"
   width="366.66666"
   height="97.333336"
   viewBox="0 0 366.66666 97.333336"
   sodipodi:docname="LOGOTIPO CMYK-10.eps"
   xmlns:inkscape="http://www.inkscape.org/namespaces/inkscape"
   xmlns:sodipodi="http://sodipodi.sourceforge.net/DTD/sodipodi-0.dtd"
   xmlns="http://www.w3.org/2000/svg"
   xmlns:svg="http://www.w3.org/2000/svg">
  <defs
     id="defs6" />
  <sodipodi:namedview
     id="namedview4"
     pagecolor="#ffffff"
     bordercolor="#000000"
     borderopacity="0.25"
     inkscape:showpageshadow="2"
     inkscape:pageopacity="0.0"
     inkscape:pagecheckerboard="0"
     inkscape:deskcolor="#d1d1d1" />
  <g
     id="g8"
     inkscape:groupmode="layer"
     inkscape:label="ink_ext_XXXXXX"
     transform="matrix(1.3333333,0,0,-1.3333333,0,97.333333)">
    <g
       id="g10"
       transform="scale(0.1)">
      <path
         d="m 1618.55,145.105 c -24.5,0 -44.68,4.012 -60.51,11.918 -15.81,7.922 -28.29,18.547 -37.39,31.989 -9.11,13.445 -15.51,28.402 -19.19,44.879 -3.69,16.484 -5.53,33.172 -5.53,50.093 0,7.801 0,16.039 0,24.707 0,8.68 0,17.571 0,26.668 v 161.657 h 100.82 V 351.301 c 0,-7.367 0,-14.528 0,-21.461 0,-6.942 0,-13.34 0,-19.192 0,-14.527 1.63,-27.863 4.88,-40 3.25,-12.148 9.32,-21.906 18.1,-29.277 8.79,-7.367 21.25,-11.058 37.52,-11.058 15.82,0 29.27,4.55 40.32,13.554 11.06,9 19.52,20.492 25.37,34.582 5.85,14.094 8.79,28.621 8.79,43.578 l 28.29,-23.089 c 0,-21.684 -3.25,-41.844 -9.86,-60.489 -6.62,-18.648 -16.05,-34.914 -28.2,-48.894 -12.14,-13.985 -26.88,-24.942 -44.34,-32.739 -17.45,-7.812 -37.18,-11.711 -59.07,-11.711 z M 127.156,729.957 h 362.489 c 133.421,0 242.617,-109.191 242.617,-242.625 v -0.019 C 732.262,353.875 623.035,244.68 489.645,244.68 489.641,111.238 380.43,2.04297 247.008,2.04297 H 247 C 113.566,2.04297 4.35547,111.242 4.35547,244.684 v 362.484 c 0,6.883 5.61719,12.492 12.50003,12.492 H 114.656 V 244.68 164.543 c 0,-5.156 2.946,-9.559 7.715,-11.539 4.766,-1.977 9.965,-0.945 13.613,2.707 l 88.969,88.969 h 264.692 v 362.496 l -0.004,0.312 v 0.008 l -0.012,0.309 v 0.011 l -0.02,0.301 v 0.016 l -0.027,0.293 -0.004,0.023 -0.031,0.281 -0.004,0.032 -0.039,0.273 -0.004,0.035 -0.047,0.27 -0.004,0.039 -0.051,0.262 -0.007,0.047 -0.055,0.25 -0.012,0.05 -0.058,0.246 -0.016,0.055 -0.066,0.234 -0.016,0.063 -0.066,0.23 -0.02,0.067 -0.074,0.219 -0.02,0.07 -0.078,0.215 -0.023,0.074 -0.082,0.207 -0.032,0.078 -0.078,0.199 -0.039,0.082 -0.082,0.192 -0.039,0.086 -0.125,0.277 -0.086,0.176 -0.051,0.094 -0.089,0.168 -0.055,0.097 -0.086,0.164 -0.059,0.102 -0.089,0.152 -0.063,0.11 -0.094,0.144 -0.066,0.109 -0.09,0.141 -0.078,0.113 -0.09,0.129 -0.082,0.117 -0.09,0.125 -0.086,0.114 -0.09,0.121 -0.093,0.117 -0.09,0.113 -0.098,0.125 -0.09,0.102 -0.105,0.125 -0.086,0.101 -0.113,0.125 -0.086,0.094 -0.117,0.125 -0.086,0.086 -0.125,0.129 -0.082,0.082 -0.133,0.125 -0.078,0.078 -0.145,0.129 -0.195,0.176 -0.028,0.023 -0.074,0.063 -0.156,0.133 -0.07,0.058 -0.161,0.129 -0.07,0.055 -0.168,0.129 -0.066,0.05 -0.18,0.125 -0.062,0.043 -0.184,0.129 -0.059,0.039 -0.191,0.129 -0.055,0.032 -0.203,0.125 -0.051,0.031 -0.211,0.121 -0.042,0.031 -0.219,0.121 -0.043,0.024 -0.227,0.113 -0.035,0.023 -0.234,0.114 -0.035,0.019 -0.239,0.11 -0.031,0.015 -0.25,0.11 -0.023,0.007 -0.258,0.106 -0.016,0.008 -0.269,0.101 -0.012,0.008 -0.277,0.094 -0.008,0.004 -0.285,0.09 v 0.003 l -0.289,0.086 h -0.008 l -0.285,0.079 -0.012,0.003 -0.281,0.071 -0.02,0.004 -0.277,0.062 h -0.024 l -0.277,0.055 -0.031,0.008 -0.274,0.043 -0.035,0.007 -0.269,0.04 -0.04,0.003 -0.269,0.032 -0.043,0.004 -0.266,0.027 h -0.05 l -0.262,0.019 h -0.059 l -0.254,0.012 -0.386,0.008 H 114.656 v 97.797 c 0,6.879 5.61,12.492 12.5,12.492 z M 2507.51,144.453 c -25.16,0 -47.48,4.012 -67.11,12.035 -19.62,8.024 -35.02,19.617 -46.07,34.801 -11.06,15.176 -16.59,33.609 -16.59,55.289 0,24.504 6.72,44.445 20.17,59.836 13.44,15.402 31.32,27.219 53.55,35.348 22.22,8.129 46.29,13.445 72.31,16.047 37.94,3.687 64.18,7.046 78.59,10.082 8.33,1.75 21.58,5.523 21.58,16.148 0,13.926 -6.57,23.613 -18.33,30.688 -12.24,7.367 -29.36,11.054 -51.27,11.054 -23.2,0 -40.87,-4.121 -53.12,-12.472 -9.45,-6.438 -15.29,-15.524 -17.46,-27.207 h -99.74 c 1.78,22.972 9.21,42.699 22.23,59.187 15.07,19.082 35.46,33.613 61.25,43.481 25.8,9.867 54.97,14.738 87.49,14.738 30.36,0 58.44,-4.539 84.23,-13.766 25.81,-9.211 46.62,-23.086 62.35,-41.523 15.72,-18.426 23.51,-41.84 23.51,-70.246 0,-9 0,-17.993 0,-26.993 V 228.691 c 0,-24.273 3.8,-51.808 18.56,-77.078 h -103.12 c -7.59,14.946 -8.88,24.551 -11.89,36.559 -3.84,-4.125 -8.15,-8 -12.93,-11.625 -13.54,-10.297 -29.6,-18.223 -48.13,-23.746 -18.54,-5.531 -38.59,-8.348 -60.06,-8.348 z m 118.04,162.512 c -7.69,-1.926 -15.84,-3.66 -24.48,-5.215 -18.76,-3.352 -37.51,-6.066 -56.16,-8.016 -22.12,-2.164 -38.59,-5.855 -49.54,-11.16 -10.96,-5.32 -16.48,-14.32 -16.48,-26.894 0,-11.918 4.66,-20.817 13.98,-26.774 9.32,-5.961 23.21,-8.996 41.63,-8.996 15.83,0 30.68,2.922 44.45,8.668 13.77,5.75 24.93,14.746 33.6,27.102 10.7,15.234 13.1,33.125 13,51.285 z M 2183.32,143.797 c -20.59,0 -40.43,2.394 -59.52,7.16 -19.07,4.77 -36.09,11.82 -51.16,21.141 -15.07,9.324 -26.99,21.031 -35.78,35.019 -8.77,13.981 -13.22,30.242 -13.22,48.891 0,0.863 0,1.953 0,3.144 0,1.192 0,2.063 0,2.719 h 100.16 c 0,-0.656 0,-1.305 0,-2.066 0,-0.762 0,-1.629 0,-2.492 0,-12.575 5.65,-21.793 16.82,-27.641 11.16,-5.863 26.22,-8.793 45.31,-8.793 9.97,0 19.62,1.094 28.85,3.144 9.2,2.063 16.79,5.43 22.76,10.082 5.96,4.668 8.89,10.52 8.89,17.68 0,11.481 -6.3,19.613 -18.97,24.387 -12.68,4.769 -33.07,9.547 -61.04,14.308 -15.83,2.606 -31.87,6.29 -48.14,11.067 -16.26,4.762 -31.21,11.16 -44.88,19.078 -13.66,7.914 -24.61,17.988 -32.85,30.246 -8.24,12.246 -12.35,27.102 -12.35,44.656 0,23.426 7.14,43.153 21.35,59.196 14.2,16.047 33.07,28.195 56.69,36.429 23.64,8.243 49.66,12.356 78.07,12.356 27.1,0 52.36,-4.445 75.78,-13.438 23.41,-8.996 42.38,-21.898 56.91,-38.703 14.52,-16.804 21.78,-37.078 21.78,-60.707 0,-0.433 0,-1.086 0,-1.953 0,-0.875 0,-1.734 0,-2.605 h -99.19 c 0,0.871 0,1.621 0,2.277 0,0.644 0,1.195 0,1.625 0,8.676 -2.7,15.723 -8.24,21.137 -5.53,5.422 -12.57,9.543 -21.03,12.254 -8.45,2.71 -17.23,4.015 -26.34,4.015 -8.24,0 -16.7,-0.871 -25.48,-2.715 -8.78,-1.843 -16.26,-4.875 -22.33,-9.109 -6.07,-4.223 -9.11,-10.184 -9.11,-17.777 0,-7.368 3.26,-13.329 9.76,-17.996 6.51,-4.665 15.61,-8.454 27.32,-11.379 11.71,-2.926 25.26,-5.75 40.66,-8.348 14.51,-2.391 29.92,-5.645 46.07,-9.863 16.16,-4.227 31.33,-10.196 45.53,-17.895 14.2,-7.695 25.7,-17.777 34.48,-30.246 8.78,-12.465 13.11,-28.293 13.11,-47.371 0,-19.734 -4.55,-36.648 -13.65,-50.738 -9.12,-14.094 -21.36,-25.477 -36.87,-34.262 -15.5,-8.777 -32.73,-15.281 -51.7,-19.508 -18.98,-4.234 -38.49,-6.406 -58.45,-6.406 z M 1052.43,588.195 v -436.34 h 104.37 v 138.446 h 153.67 c 193.24,0 196.59,297.894 -7.9,297.894 z m 250.14,-91.429 c 72.88,0 71.07,-115.028 7.9,-115.028 H 1156.8 v 115.028 z m 680.81,91.429 V 151.613 h -99.52 V 588.195 Z M 1731.73,151.613 v 345.403 h 100.81 V 151.613 h -100.81"
         style="fill:#181a21;fill-opacity:1;fill-rule:nonzero;stroke:none"
         id="path12" />
    </g>
  </g>
</svg>
