<?xml version="1.0" encoding="UTF-8" standalone="no"?>
<svg
   xmlns:dc="http://purl.org/dc/elements/1.1/"
   xmlns:cc="http://creativecommons.org/ns#"
   xmlns:rdf="http://www.w3.org/1999/02/22-rdf-syntax-ns#"
   xmlns:svg="http://www.w3.org/2000/svg"
   xmlns="http://www.w3.org/2000/svg"
   viewBox="0 0 226.66667 216"
   height="216"
   width="226.66667"
   xml:space="preserve"
   id="svg2"
   version="1.1"><metadata
     id="metadata8"><rdf:RDF><cc:Work
         rdf:about=""><dc:format>image/svg+xml</dc:format><dc:type
           rdf:resource="http://purl.org/dc/dcmitype/StillImage" /></cc:Work></rdf:RDF></metadata><defs
     id="defs6" /><g
     transform="matrix(1.3333333,0,0,-1.3333333,0,216)"
     id="g10"><g
       transform="scale(0.1)"
       id="g12"><path
         id="path14"
         style="fill:#181a21;fill-opacity:1;fill-rule:nonzero;stroke:none"
         d="m 574.508,291.293 c -24.496,0 -44.668,4.008 -60.496,11.922 -15.824,7.914 -28.297,18.539 -37.399,31.984 -9.109,13.442 -15.508,28.403 -19.191,44.883 -3.684,16.481 -5.524,33.168 -5.524,50.086 0,7.805 0,16.039 0,24.715 0,8.68 0,17.566 0,26.668 V 643.199 H 552.711 V 497.488 c 0,-7.367 0,-14.531 0,-21.465 0,-6.937 0,-13.332 0,-19.187 0,-14.531 1.637,-27.867 4.887,-40 3.246,-12.141 9.324,-21.902 18.101,-29.277 8.781,-7.368 21.254,-11.063 37.512,-11.063 15.832,0 29.269,4.555 40.328,13.555 11.055,9 19.516,20.496 25.367,34.586 5.848,14.093 8.785,28.621 8.785,43.582 l 28.297,-23.09 c 0,-21.684 -3.254,-41.852 -9.871,-60.492 -6.617,-18.649 -16.047,-34.91 -28.187,-48.895 -12.145,-13.988 -26.883,-24.945 -44.344,-32.734 -17.449,-7.817 -37.184,-11.715 -59.078,-11.715 z M 210.887,32.5625 c -8.496,0 -15.953,1.7227 -22.371,5.1445 -6.411,3.4297 -11.36,8.1875 -14.883,14.3086 -3.524,6.1172 -5.297,13.1875 -5.297,21.1992 0,8.1172 1.773,15.168 5.297,21.1094 3.523,5.9488 8.472,10.5708 14.883,13.8748 6.418,3.297 13.875,4.949 22.371,4.949 6.371,0 12.004,-0.918 16.91,-2.789 4.906,-1.875 9.008,-4.343 12.312,-7.406 3.305,-3.0663 5.805,-6.4139 7.508,-10.0624 1.696,-3.6406 2.551,-7.2578 2.551,-10.8593 0,-0.0391 0,-0.1133 0,-0.2422 0,-0.1133 0,-0.2383 0,-0.3321 h -22.371 c 0,0.2891 0,0.5743 -0.031,0.8477 -0.02,0.2617 -0.094,0.5312 -0.188,0.8281 -0.387,2.0391 -1.242,3.9531 -2.551,5.7539 -1.308,1.7969 -3.136,3.2813 -5.492,4.4219 -2.351,1.1367 -5.293,1.7031 -8.793,1.7031 -3.738,0 -7.062,-0.8281 -10.004,-2.4804 -2.937,-1.6485 -5.269,-4.086 -6.972,-7.3086 -1.7,-3.2305 -2.555,-7.2383 -2.555,-12.0079 0,-4.6601 0.855,-8.6718 2.555,-12.039 1.703,-3.3789 4.035,-5.9805 6.972,-7.7813 2.942,-1.789 6.266,-2.6875 10.004,-2.6875 3.84,0 6.973,0.6055 9.399,1.7891 2.429,1.1914 4.257,2.7969 5.472,4.8125 1.215,2.0156 1.938,4.2266 2.184,6.6602 h 22.371 c 0,-3.5977 -0.824,-7.2383 -2.508,-10.9571 -1.676,-3.7187 -4.152,-7.1172 -7.426,-10.1797 -3.281,-3.0547 -7.382,-5.5351 -12.289,-7.4257 -4.906,-1.9024 -10.593,-2.8438 -17.058,-2.8438 z m 908.273,0.0742 c -8.35,0 -15.71,1.7266 -22.07,5.1641 -6.37,3.4531 -11.32,8.2109 -14.89,14.2656 -3.57,6.043 -5.36,13.0156 -5.36,20.9297 0,7.875 1.79,14.8437 5.36,20.8984 3.57,6.043 8.52,10.7505 14.89,14.1285 6.36,3.379 13.72,5.055 22.07,5.055 8.36,0 15.72,-1.676 22.08,-5.055 6.37,-3.378 11.35,-8.0855 14.92,-14.1285 3.57,-6.0547 5.34,-13.0234 5.34,-20.8984 0,-7.9141 -1.77,-14.8867 -5.34,-20.9297 -3.57,-6.0547 -8.55,-10.8125 -14.92,-14.2656 -6.36,-3.4375 -13.72,-5.1641 -22.08,-5.1641 z m 0,17.9258 c 3.95,0 7.37,0.918 10.28,2.7617 2.92,1.8477 5.17,4.4727 6.78,7.8516 1.6,3.3672 2.41,7.3125 2.41,11.8203 0,4.5195 -0.81,8.4609 -2.41,11.7852 -1.61,3.3281 -3.86,5.8828 -6.78,7.6757 -2.91,1.8008 -6.33,2.6914 -10.28,2.6914 -3.88,0 -7.28,-0.8906 -10.22,-2.6914 -2.94,-1.7929 -5.23,-4.3476 -6.83,-7.6757 -1.6,-3.3243 -2.4,-7.2657 -2.4,-11.7852 0,-4.5078 0.8,-8.4531 2.4,-11.8203 1.6,-3.3789 3.89,-6.0039 6.83,-7.8516 2.94,-1.8437 6.34,-2.7617 10.22,-2.7617 z m 114.05,-16.2539 v 32.8633 c 0,1.8476 0,3.5195 0,5.0273 0,1.5078 0,2.8672 0,4.0821 0,3.207 -0.4,6.1484 -1.23,8.7929 -0.83,2.6485 -2.31,4.7617 -4.44,6.3594 -2.14,1.6055 -5.23,2.4102 -9.26,2.4102 -3.49,0 -6.51,-0.8047 -9.06,-2.4102 -2.55,-1.5977 -4.52,-3.8359 -5.88,-6.6992 -1.36,-2.8711 -2.04,-6.1719 -2.04,-9.9102 l -6.26,4.5196 c 0,6.7031 1.45,12.582 4.37,17.6367 2.91,5.0505 6.87,9.0035 11.85,11.8715 4.98,2.863 10.49,4.296 16.57,4.296 6.36,0 11.61,-1.257 15.71,-3.808 4.11,-2.551 7.16,-6.098 9.18,-10.6369 2.02,-4.5468 3.01,-9.8633 3.01,-15.9375 0,-2.4804 0,-5.25 0,-8.3047 0,-3.0664 0,-6.1953 0,-9.4023 v -30.75 z m -54.5,0 v 77.3824 h 22.59 V 34.3086 Z M 1299.24,148.199 V 34.3086 h -22.29 V 148.199 Z M 1319.5,34.3086 v 77.3824 h 22.38 V 34.3086 Z m 11.16,89.9924 c -3.5,0 -6.53,0.918 -9.14,2.765 -2.59,1.848 -3.91,4.446 -3.91,7.797 0,3.407 1.32,6.024 3.91,7.875 2.61,1.84 5.64,2.77 9.14,2.77 3.54,0 6.63,-0.93 9.23,-2.77 2.59,-1.851 3.88,-4.468 3.88,-7.875 0,-3.402 -1.29,-5.996 -3.88,-7.816 -2.6,-1.828 -5.69,-2.746 -9.23,-2.746 z m 85.56,-89.9924 v 32.8633 c 0,1.8476 0,3.5195 0,5.0273 0,1.5078 0,2.8672 0,4.0821 0,3.207 -0.41,6.1484 -1.24,8.7929 -0.82,2.6485 -2.31,4.7617 -4.44,6.3594 -2.14,1.6055 -5.22,2.4102 -9.26,2.4102 -3.49,0 -6.51,-0.8047 -9.06,-2.4102 -2.55,-1.5977 -4.52,-3.8359 -5.88,-6.6992 -1.36,-2.8711 -2.04,-6.1719 -2.04,-9.9102 l -6.26,4.5196 c 0,6.7031 1.46,12.582 4.37,17.6367 2.91,5.0505 6.88,9.0035 11.85,11.8715 4.98,2.863 10.49,4.296 16.57,4.296 6.36,0 11.61,-1.257 15.71,-3.808 4.11,-2.551 7.16,-6.098 9.18,-10.6369 2.02,-4.5468 3.02,-9.8633 3.02,-15.9375 0,-2.4804 0,-5.25 0,-8.3047 0,-3.0664 0,-6.1953 0,-9.4023 v -30.75 z m -54.51,0 v 77.3824 h 22.59 V 34.3086 Z m 105.82,31.918 v 14.9375 h 51.3 l -2.19,-3.7969 c 0,0.3984 0,0.7851 0,1.1484 0,0.3594 0,0.7032 0,1.0469 0,2.7656 -0.66,5.4414 -1.96,7.9922 -1.32,2.543 -3.33,4.6328 -6.08,6.2656 -2.74,1.6211 -6.26,2.4258 -10.54,2.4258 -4.27,0 -7.94,-0.8984 -11.02,-2.7188 -3.09,-1.8203 -5.45,-4.4453 -7.08,-7.8437 -1.62,-3.3984 -2.45,-7.5117 -2.45,-12.3203 0,-4.9492 0.8,-9.1797 2.38,-12.6992 1.58,-3.5235 3.93,-6.2461 7.07,-8.1368 3.13,-1.8906 7.02,-2.8437 11.68,-2.8437 3.01,0 5.61,0.2891 7.8,0.8477 2.18,0.5625 3.98,1.2656 5.37,2.1406 1.38,0.8711 2.43,1.8437 3.16,2.9101 0.72,1.0743 1.16,2.1133 1.31,3.1368 h 22.29 c -0.29,-3.254 -1.41,-6.4336 -3.35,-9.5704 -1.93,-3.1367 -4.64,-5.9492 -8.09,-8.4531 -3.45,-2.5 -7.62,-4.4961 -12.56,-5.9492 -4.93,-1.4609 -10.56,-2.1836 -16.88,-2.1836 -8.55,0 -16,1.7227 -22.37,5.1445 -6.36,3.4297 -11.29,8.1602 -14.79,14.211 -3.49,6.0468 -5.24,13.0195 -5.24,20.9414 0,8.0117 1.79,15.0547 5.36,21.1054 3.57,6.0472 8.55,10.7542 14.94,14.1332 6.39,3.379 13.77,5.05 22.18,5.05 8.59,0 16.03,-1.695 22.29,-5.125 6.27,-3.418 11.11,-8.2105 14.51,-14.3511 3.4,-6.1485 5.09,-13.3125 5.09,-21.4727 0,-1.2148 -0.02,-2.3828 -0.07,-3.5 -0.04,-1.1133 -0.12,-1.9375 -0.21,-2.4726 z M 293.605,32.707 c -5.636,0 -10.64,0.8985 -15.031,2.6993 -4.402,1.789 -7.851,4.3906 -10.324,7.7929 -2.48,3.3985 -3.719,7.5313 -3.719,12.3828 0,5.4883 1.504,9.9649 4.516,13.4063 3.012,3.4531 7.016,6.1015 11.996,7.9219 4.988,1.8281 10.375,3.0117 16.203,3.5976 8.504,0.8242 14.379,1.5781 17.613,2.2578 3.231,0.6797 4.829,1.8711 4.829,3.5664 0,0 0,0.0313 0,0.0547 0,0.0235 0,0.0508 0,0.0938 0,2.8633 -1.356,5.125 -4.102,6.7773 -2.746,1.6485 -6.586,2.4766 -11.492,2.4766 -5.196,0 -9.153,-0.9219 -11.903,-2.793 -2.738,-1.8711 -4.121,-4.7383 -4.121,-8.5742 h -22.226 c 0,6.2226 1.695,11.4648 5.074,15.7378 3.379,4.278 7.941,7.532 13.723,9.739 5.785,2.219 12.32,3.304 19.601,3.304 6.809,0 13.094,-1.011 18.875,-3.085 5.778,-2.059 10.442,-5.168 13.965,-9.297 3.523,-4.1332 5.273,-9.3793 5.273,-15.7426 0,-1.0234 0,-2.0156 0,-3.0117 0,-0.9922 0,-2.0156 0,-3.0312 V 51.5742 c 0,-1.9844 0.071,-3.8789 0.196,-5.707 0.117,-1.8242 0.387,-3.4961 0.828,-5.0039 0.48,-1.6992 1.09,-3.1016 1.82,-4.2227 0.723,-1.1211 1.328,-1.8945 1.821,-2.332 h -22.227 c -0.344,0.3437 -0.848,1.043 -1.559,2.1094 -0.699,1.0703 -1.308,2.3125 -1.789,3.7187 -0.586,1.6992 -1.004,3.4258 -1.265,5.1524 -0.274,1.7226 -0.418,3.7343 -0.418,6.0703 l 4.664,-3.2031 c -1.36,-3.211 -3.543,-5.9532 -6.578,-8.2657 -3.035,-2.3008 -6.633,-4.0742 -10.785,-5.3125 -4.153,-1.2422 -8.649,-1.8711 -13.458,-1.8711 z m 6.043,16.9063 c 3.547,0 6.883,0.6523 9.965,1.9414 3.078,1.2891 5.59,3.3047 7.524,6.0664 1.945,2.7695 2.918,6.3906 2.918,10.8672 v 7.793 l 5.617,-5.4688 c -3.211,-1.1641 -6.902,-2.1133 -11.109,-2.8711 -4.196,-0.75 -8.399,-1.3555 -12.579,-1.7851 -4.953,-0.4922 -8.644,-1.3165 -11.101,-2.5118 -2.453,-1.1797 -3.692,-3.1992 -3.692,-6.0234 0,-2.668 1.047,-4.6563 3.137,-5.9922 2.086,-1.3398 5.199,-2.0156 9.32,-2.0156 z m 62.395,-15.3047 v 77.3824 h 22.664 V 85.0234 l -4.664,2.918 c 0.531,3.6406 1.508,6.9961 2.914,10.0508 1.406,3.0668 3.227,5.7348 5.465,7.9918 2.234,2.258 4.906,4.004 7.988,5.274 3.09,1.262 6.613,1.89 10.594,1.89 3.109,0 5.559,-0.218 7.336,-0.679 1.777,-0.461 2.863,-0.828 3.301,-1.067 L 413.93,91.1445 c -0.438,0.2422 -1.41,0.6368 -2.918,1.168 -1.508,0.5352 -3.453,0.7969 -5.832,0.7969 -3.883,0 -7.137,-0.6524 -9.762,-1.9649 -2.625,-1.3086 -4.719,-3.0351 -6.293,-5.1992 -1.582,-2.1562 -2.723,-4.5625 -3.402,-7.1836 -0.68,-2.6289 -1.016,-5.2734 -1.016,-7.9492 V 34.3086 Z m 101.074,-1.7461 c -6.457,0 -12.406,1.5469 -17.851,4.6328 -5.442,3.086 -9.813,7.6524 -13.118,13.7227 -3.3,6.0742 -4.949,13.5547 -4.949,22.4453 0,8.5 1.696,15.7187 5.071,21.6484 3.382,5.9223 7.796,10.4413 13.265,13.5233 5.469,3.086 11.317,4.613 17.582,4.613 6.129,0 11.735,-1.546 16.805,-4.664 5.082,-3.105 9.144,-7.332 12.199,-12.6988 3.063,-5.3633 4.59,-11.5664 4.59,-18.5547 0,-0.2461 0,-0.4649 0,-0.6797 0,-0.2188 0,-0.4688 0,-0.711 l -9.762,-0.1445 c 0,0.1445 0,0.3164 0,0.4883 0,0.1719 0,0.3164 0,0.4609 0,3.6407 -0.875,6.7774 -2.621,9.4024 -1.75,2.6172 -4.008,4.6601 -6.781,6.0898 -2.77,1.4336 -5.656,2.1446 -8.672,2.1446 -5.004,0 -9.324,-1.6524 -12.969,-4.9805 -3.644,-3.3281 -5.465,-8.6485 -5.465,-15.9375 0,-7.2813 1.848,-12.625 5.508,-16.0547 3.676,-3.4219 7.973,-5.1484 12.926,-5.1484 3.109,0 6.051,0.7539 8.82,2.2382 2.77,1.4766 5,3.5664 6.703,6.2891 1.696,2.7188 2.551,5.9258 2.551,9.6211 l 9.762,-0.5156 c 0,-6.9453 -1.484,-13.2071 -4.465,-18.8242 -2.992,-5.6055 -7.019,-10.0821 -12.101,-13.4063 -5.075,-3.3281 -10.754,-5 -17.028,-5 z m 23.832,1.7461 V 148.199 h 22.66 V 34.3086 Z m 42.192,0 v 77.3824 h 22.375 V 34.3086 Z m 11.152,89.9924 c -3.496,0 -6.527,0.918 -9.133,2.765 -2.594,1.848 -3.91,4.446 -3.91,7.797 0,3.407 1.316,6.024 3.91,7.875 2.606,1.84 5.637,2.77 9.133,2.77 3.547,0 6.629,-0.93 9.23,-2.77 2.598,-1.851 3.887,-4.468 3.887,-7.875 0,-3.402 -1.289,-5.996 -3.887,-7.816 -2.601,-1.828 -5.683,-2.746 -9.23,-2.746 z m 69.82,-91.6643 c -8.351,0 -15.711,1.7266 -22.082,5.1641 -6.359,3.4531 -11.316,8.2109 -14.883,14.2656 -3.578,6.043 -5.367,13.0156 -5.367,20.9297 0,7.875 1.789,14.8437 5.367,20.8984 3.567,6.043 8.524,10.7505 14.883,14.1285 6.371,3.379 13.731,5.055 22.082,5.055 8.356,0 15.719,-1.676 22.078,-5.055 6.368,-3.378 11.348,-8.0855 14.914,-14.1285 3.579,-6.0547 5.344,-13.0234 5.344,-20.8984 0,-7.9141 -1.765,-14.8867 -5.344,-20.9297 -3.566,-6.0547 -8.546,-10.8125 -14.914,-14.2656 -6.359,-3.4375 -13.722,-5.1641 -22.078,-5.1641 z m 0,17.9258 c 3.942,0 7.36,0.918 10.278,2.7617 2.91,1.8477 5.168,4.4727 6.777,7.8516 1.602,3.3672 2.406,7.3125 2.406,11.8203 0,4.5195 -0.804,8.4609 -2.406,11.7852 -1.609,3.3281 -3.867,5.8828 -6.777,7.6757 -2.918,1.8008 -6.336,2.6914 -10.278,2.6914 -3.883,0 -7.281,-0.8906 -10.222,-2.6914 -2.938,-1.7929 -5.227,-4.3476 -6.828,-7.6757 -1.598,-3.3243 -2.403,-7.2657 -2.403,-11.7852 0,-4.5078 0.805,-8.4531 2.403,-11.8203 1.601,-3.3789 3.89,-6.0039 6.828,-7.8516 2.941,-1.8437 6.339,-2.7617 10.222,-2.7617 z m 82.938,97.6365 V 34.3086 H 670.758 V 148.199 Z M 752.953,32.6367 c -8.348,0 -15.711,1.7266 -22.074,5.1641 -6.363,3.4531 -11.32,8.2109 -14.891,14.2656 -3.574,6.043 -5.363,13.0156 -5.363,20.9297 0,7.875 1.789,14.8437 5.363,20.8984 3.571,6.043 8.528,10.7505 14.891,14.1285 6.363,3.379 13.726,5.055 22.074,5.055 8.36,0 15.723,-1.676 22.082,-5.055 6.367,-3.378 11.344,-8.0855 14.914,-14.1285 3.574,-6.0547 5.344,-13.0234 5.344,-20.8984 0,-7.9141 -1.77,-14.8867 -5.344,-20.9297 -3.57,-6.0547 -8.547,-10.8125 -14.914,-14.2656 -6.359,-3.4375 -13.722,-5.1641 -22.082,-5.1641 z m 0,17.9258 c 3.945,0 7.363,0.918 10.281,2.7617 2.911,1.8477 5.172,4.4727 6.778,7.8516 1.601,3.3672 2.406,7.3125 2.406,11.8203 0,4.5195 -0.805,8.4609 -2.406,11.7852 -1.606,3.3281 -3.867,5.8828 -6.778,7.6757 -2.918,1.8008 -6.336,2.6914 -10.281,2.6914 -3.879,0 -7.277,-0.8906 -10.219,-2.6914 -2.937,-1.7929 -5.226,-4.3476 -6.828,-7.6757 -1.601,-3.3243 -2.406,-7.2657 -2.406,-11.7852 0,-4.5078 0.805,-8.4531 2.406,-11.8203 1.602,-3.3789 3.891,-6.0039 6.828,-7.8516 2.942,-1.8437 6.34,-2.7617 10.219,-2.7617 z m 112.965,-7.0703 c 4.758,-0.4922 8.934,-1.3906 12.508,-2.7227 3.566,-1.3359 6.34,-3.3047 8.328,-5.9062 1.996,-2.5977 2.992,-6.0703 2.992,-10.3985 0,-4.996 -1.633,-9.246 -4.906,-12.7734 -3.285,-3.51952 -8.086,-6.22265 -14.406,-8.05859 -6.313,-1.85156 -13.969,-2.773435 -22.957,-2.773435 -13.258,0 -23.508,1.925785 -30.77,5.734375 -7.266,3.81645 -10.906,8.89065 -10.906,15.25395 0,1.7929 0.219,3.4218 0.625,4.8554 0.422,1.4375 0.929,2.6485 1.558,3.6719 l 20.551,-2.9883 c -0.238,-0.3398 -0.488,-0.8515 -0.754,-1.5508 -0.269,-0.7109 -0.414,-1.6093 -0.414,-2.6757 0,-2.5743 1.946,-4.4961 5.805,-5.7539 3.867,-1.2657 8.848,-1.8946 14.965,-1.8946 4.32,0 8.043,0.3125 11.117,0.9219 3.09,0.6055 5.449,1.4766 7.074,2.6445 1.629,1.1641 2.434,2.5 2.434,4.0078 0,2.1836 -1.047,3.6172 -3.16,4.3008 -2.11,0.6797 -4.571,1.168 -7.34,1.4531 l -29.289,2.9883 c -5.395,0.5352 -9.864,2.0899 -13.407,4.6641 -3.543,2.5742 -5.32,6.0469 -5.32,10.4219 0,2.7187 0.754,5.2265 2.258,7.4843 1.504,2.2579 3.23,4.125 5.176,5.6094 1.937,1.4844 3.566,2.4024 4.875,2.7891 l 11.515,-5.8281 c -0.922,-0.1446 -1.988,-0.7266 -3.23,-1.7461 -1.235,-1.0235 -1.867,-2.211 -1.867,-3.5743 0,-1.3593 0.703,-2.5234 2.086,-3.4921 1.39,-0.9727 3.914,-1.6329 7.601,-1.9688 z m 7.648,68.1988 h 19.891 l -8.082,-29.7301 c -1.508,-5.6289 -3.746,-10.6367 -6.707,-15.0312 -2.961,-4.3906 -6.895,-7.875 -11.828,-10.3945 -4.93,-2.5313 -11.149,-3.7891 -18.633,-3.7891 -7.871,0 -14.672,1.2148 -20.426,3.6406 -5.758,2.4258 -10.203,5.8789 -13.308,10.3242 -3.11,4.4454 -4.668,9.6954 -4.668,15.7618 0,6.0742 1.609,11.4218 4.789,16.0351 3.179,4.6092 7.531,8.2072 13.043,10.7812 5.511,2.574 11.758,3.859 18.754,3.859 5.289,0 10.148,-0.843 14.547,-2.57 4.394,-1.726 7.941,-4.012 10.64,-6.82 2.695,-2.824 4.078,-5.9338 4.176,-9.3322 L 871.598,93.332 Z M 848.063,69.2852 c 3.203,0 6.027,0.5312 8.453,1.5781 2.429,1.0469 4.32,2.5742 5.687,4.5898 1.36,2.0157 2.039,4.4453 2.039,7.3125 0,2.8164 -0.679,5.2188 -2.039,7.2149 -1.367,1.9883 -3.258,3.5234 -5.687,4.5898 -2.426,1.0664 -5.25,1.6016 -8.453,1.6016 -3.063,0 -5.805,-0.5352 -8.262,-1.6289 -2.449,-1.0899 -4.395,-2.6485 -5.801,-4.6641 -1.402,-2.0117 -2.117,-4.4648 -2.117,-7.3359 0,-2.8086 0.683,-5.1953 2.043,-7.1602 1.355,-1.9687 3.254,-3.4726 5.687,-4.5195 2.426,-1.0469 5.242,-1.5781 8.45,-1.5781 z m 58.593,-34.9766 v 77.3824 h 22.367 V 34.3086 Z m 11.149,89.9924 c -3.496,0 -6.532,0.918 -9.133,2.765 -2.598,1.848 -3.91,4.446 -3.91,7.797 0,3.407 1.312,6.024 3.91,7.875 2.601,1.84 5.637,2.77 9.133,2.77 3.543,0 6.629,-0.93 9.234,-2.77 2.594,-1.851 3.883,-4.468 3.883,-7.875 0,-3.402 -1.289,-5.996 -3.883,-7.816 -2.605,-1.828 -5.691,-2.746 -9.234,-2.746 z m 57.289,-91.594 c -5.637,0 -10.641,0.8985 -15.031,2.6993 -4.403,1.789 -7.852,4.3906 -10.325,7.7929 -2.476,3.3985 -3.718,7.5313 -3.718,12.3828 0,5.4883 1.503,9.9649 4.515,13.4063 3.012,3.4531 7.016,6.1015 11.996,7.9219 4.989,1.8281 10.375,3.0117 16.203,3.5976 8.504,0.8242 14.379,1.5781 17.61,2.2578 3.234,0.6797 4.836,1.8711 4.836,3.5664 0,0 0,0.0313 0,0.0547 0,0.0235 0,0.0508 0,0.0938 0,2.8633 -1.364,5.125 -4.106,6.7773 -2.746,1.6485 -6.582,2.4766 -11.488,2.4766 -5.199,0 -9.156,-0.9219 -11.902,-2.793 -2.743,-1.8711 -4.125,-4.7383 -4.125,-8.5742 h -22.227 c 0,6.2226 1.695,11.4648 5.074,15.7378 3.379,4.278 7.942,7.532 13.723,9.739 5.785,2.219 12.32,3.304 19.601,3.304 6.809,0 13.094,-1.011 18.88,-3.085 5.77,-2.059 10.44,-5.168 13.96,-9.297 3.52,-4.1332 5.27,-9.3793 5.27,-15.7426 0,-1.0234 0,-2.0156 0,-3.0117 0,-0.9922 0,-2.0156 0,-3.0312 V 51.5742 c 0,-1.9844 0.08,-3.8789 0.2,-5.707 0.12,-1.8242 0.39,-3.4961 0.83,-5.0039 0.48,-1.6992 1.09,-3.1016 1.82,-4.2227 0.72,-1.1211 1.33,-1.8945 1.82,-2.332 h -22.23 c -0.34,0.3437 -0.85,1.043 -1.56,2.1094 -0.7,1.0703 -1.3,2.3125 -1.79,3.7187 -0.58,1.6992 -1,3.4258 -1.26,5.1524 -0.27,1.7226 -0.42,3.7343 -0.42,6.0703 l 4.66,-3.2031 c -1.36,-3.211 -3.54,-5.9532 -6.574,-8.2657 -3.035,-2.3008 -6.633,-4.0742 -10.785,-5.3125 -4.153,-1.2422 -8.649,-1.8711 -13.457,-1.8711 z m 6.047,16.9063 c 3.543,0 6.879,0.6523 9.964,1.9414 3.079,1.2891 5.586,3.3047 7.52,6.0664 1.945,2.7695 2.915,6.3906 2.915,10.8672 v 7.793 l 5.62,-5.4688 c -3.21,-1.1641 -6.9,-2.1133 -11.109,-2.8711 -4.192,-0.75 -8.399,-1.3555 -12.582,-1.7851 -4.946,-0.4922 -8.641,-1.3165 -11.098,-2.5118 -2.453,-1.1797 -3.691,-3.1992 -3.691,-6.0234 0,-2.668 1.047,-4.6563 3.14,-5.9922 2.078,-1.3398 5.2,-2.0156 9.321,-2.0156 z M 612.84,1611.14 h 362.488 c 133.422,0 242.622,-109.19 242.622,-242.62 v -0.02 c 0,-133.44 -109.23,-242.63 -242.618,-242.64 C 975.328,992.422 866.105,883.23 732.691,883.23 h -0.011 c -133.43,0 -242.641,109.196 -242.641,242.64 v 362.48 c 0,6.88 5.617,12.5 12.5,12.5 h 97.801 v -374.99 -80.13 c 0,-5.16 2.945,-9.56 7.715,-11.54 4.769,-1.98 9.965,-0.94 13.613,2.7 l 88.973,88.97 h 264.687 v 362.5 l -0.004,0.32 v 0 l -0.011,0.31 v 0.01 l -0.02,0.3 v 0.02 l -0.027,0.29 -0.004,0.02 -0.032,0.29 -0.003,0.03 -0.036,0.27 -0.007,0.04 -0.043,0.27 -0.008,0.04 -0.051,0.26 -0.008,0.05 -0.054,0.25 -0.012,0.05 -0.059,0.24 -0.015,0.06 -0.063,0.23 -0.019,0.06 -0.067,0.23 -0.019,0.07 -0.071,0.22 -0.023,0.07 -0.078,0.21 -0.024,0.08 -0.082,0.21 -0.031,0.07 -0.078,0.2 -0.035,0.08 -0.082,0.2 -0.043,0.08 -0.125,0.28 -0.086,0.17 -0.051,0.1 -0.09,0.17 -0.051,0.09 -0.089,0.17 -0.059,0.1 -0.09,0.15 -0.062,0.11 -0.094,0.15 -0.067,0.11 -0.089,0.13 -0.078,0.12 -0.09,0.13 -0.078,0.12 -0.094,0.12 -0.086,0.11 -0.09,0.13 -0.094,0.11 -0.09,0.12 -0.097,0.12 -0.09,0.1 -0.106,0.13 -0.085,0.1 -0.114,0.12 -0.086,0.1 -0.117,0.12 -0.082,0.09 -0.129,0.13 -0.082,0.08 -0.133,0.12 -0.078,0.08 -0.14,0.13 -0.079,0.07 -0.148,0.13 -0.074,0.06 -0.156,0.13 -0.071,0.06 -0.16,0.13 -0.07,0.06 -0.168,0.12 -0.067,0.06 -0.179,0.12 -0.059,0.05 -0.187,0.12 -0.055,0.04 -0.195,0.13 -0.055,0.03 -0.203,0.13 -0.051,0.03 -0.207,0.12 -0.047,0.03 -0.219,0.12 -0.039,0.03 -0.226,0.11 -0.039,0.02 -0.235,0.12 -0.031,0.02 -0.242,0.11 -0.027,0.01 -0.25,0.11 -0.024,0.01 -0.262,0.1 -0.015,0.01 -0.266,0.1 -0.016,0.01 -0.273,0.1 h -0.012 l -0.281,0.09 h -0.004 l -0.289,0.09 h -0.004 l -0.289,0.08 h -0.008 l -0.285,0.07 -0.015,0.01 -0.282,0.06 h -0.019 l -0.281,0.05 -0.028,0.01 -0.273,0.04 -0.035,0.01 -0.274,0.04 h -0.039 l -0.266,0.04 h -0.046 l -0.262,0.02 -0.055,0.01 -0.258,0.02 h -0.058 l -0.254,0.01 -0.387,0.01 H 600.34 v 97.79 c 0,6.88 5.613,12.49 12.5,12.49 z M 1463.47,290.641 c -25.15,0 -47.48,4.011 -67.1,12.035 -19.62,8.027 -35.03,19.617 -46.07,34.801 -11.07,15.171 -16.59,33.609 -16.59,55.289 0,24.504 6.71,44.445 20.16,59.839 13.45,15.399 31.33,27.211 53.55,35.34 22.23,8.133 46.29,13.45 72.31,16.047 37.95,3.692 64.18,7.051 78.6,10.086 8.32,1.746 21.57,5.52 21.57,16.152 0,13.926 -6.56,23.61 -18.32,30.684 -12.25,7.367 -29.37,11.051 -51.28,11.051 -23.2,0 -40.87,-4.113 -53.12,-12.465 -9.45,-6.441 -15.29,-15.523 -17.45,-27.215 h -99.75 c 1.78,22.973 9.22,42.707 22.24,59.195 15.07,19.083 35.45,33.61 61.25,43.477 25.8,9.863 54.97,14.742 87.48,14.742 30.36,0 58.44,-4.547 84.24,-13.769 25.8,-9.211 46.62,-23.09 62.34,-41.524 15.72,-18.426 23.52,-41.84 23.52,-70.242 0,-9.004 0,-17.996 0,-26.996 V 374.875 c 0,-24.27 3.8,-51.809 18.56,-77.074 h -103.13 c -7.58,14.949 -8.87,24.554 -11.89,36.558 -3.84,-4.125 -8.14,-8 -12.93,-11.625 -13.54,-10.3 -29.59,-18.222 -48.12,-23.742 -18.54,-5.535 -38.6,-8.351 -60.07,-8.351 z m 118.05,162.515 c -7.69,-1.929 -15.84,-3.66 -24.49,-5.215 -18.76,-3.351 -37.51,-6.066 -56.16,-8.019 -22.12,-2.16 -38.59,-5.852 -49.54,-11.156 -10.95,-5.321 -16.48,-14.325 -16.48,-26.899 0,-11.918 4.66,-20.816 13.99,-26.773 9.32,-5.965 23.2,-8.996 41.62,-8.996 15.83,0 30.68,2.922 44.46,8.664 13.77,5.754 24.93,14.75 33.6,27.105 10.7,15.238 13.1,33.125 13,51.289 z M 1139.29,289.984 c -20.59,0 -40.43,2.391 -59.51,7.161 -19.08,4.769 -36.1,11.816 -51.18,21.144 -15.06,9.32 -26.99,21.027 -35.772,35.016 -8.781,13.984 -13.223,30.242 -13.223,48.894 0,0.86 0,1.953 0,3.141 0,1.191 0,2.066 0,2.715 h 100.175 c 0,-0.649 0,-1.305 0,-2.059 0,-0.766 0,-1.633 0,-2.5 0,-12.57 5.63,-21.793 16.8,-27.641 11.16,-5.859 26.23,-8.785 45.31,-8.785 9.97,0 19.63,1.086 28.85,3.145 9.21,2.055 16.8,5.422 22.76,10.078 5.96,4.664 8.89,10.52 8.89,17.68 0,11.48 -6.29,19.613 -18.97,24.386 -12.68,4.77 -33.07,9.543 -61.04,14.309 -15.83,2.602 -31.86,6.289 -48.13,11.062 -16.27,4.766 -31.22,11.161 -44.89,19.086 -13.66,7.911 -24.61,17.989 -32.844,30.243 -8.243,12.246 -12.356,27.105 -12.356,44.66 0,23.422 7.149,43.148 21.36,59.191 14.2,16.043 33.06,28.195 56.69,36.426 23.64,8.242 49.66,12.363 78.06,12.363 27.11,0 52.36,-4.445 75.78,-13.441 23.41,-8.996 42.39,-21.903 56.91,-38.707 14.53,-16.805 21.79,-37.078 21.79,-60.707 0,-0.426 0,-1.082 0,-1.953 0,-0.871 0,-1.727 0,-2.606 h -99.19 c 0,0.879 0,1.625 0,2.281 0,0.645 0,1.196 0,1.629 0,8.664 -2.71,15.719 -8.24,21.137 -5.53,5.418 -12.58,9.543 -21.03,12.254 -8.45,2.707 -17.24,4.016 -26.35,4.016 -8.24,0 -16.69,-0.875 -25.47,-2.715 -8.78,-1.848 -16.27,-4.883 -22.33,-9.11 -6.07,-4.226 -9.11,-10.187 -9.11,-17.773 0,-7.379 3.25,-13.332 9.76,-18 6.51,-4.668 15.61,-8.457 27.32,-11.379 11.7,-2.934 25.26,-5.75 40.65,-8.355 14.53,-2.383 29.92,-5.637 46.07,-9.864 16.15,-4.226 31.33,-10.195 45.53,-17.886 14.21,-7.704 25.7,-17.782 34.48,-30.25 8.79,-12.465 13.12,-28.29 13.12,-47.372 0,-19.734 -4.56,-36.644 -13.66,-50.742 -9.11,-14.093 -21.35,-25.476 -36.86,-34.258 -15.5,-8.777 -32.74,-15.281 -51.71,-19.511 -18.97,-4.231 -38.49,-6.403 -58.44,-6.403 z M 8.39453,734.383 V 298.047 H 112.762 v 138.445 h 153.672 c 193.242,0 196.593,297.891 -7.895,297.891 z M 258.539,642.953 c 72.879,0 71.074,-115.023 7.895,-115.023 H 112.762 v 115.023 z m 680.809,91.43 V 297.801 H 839.824 V 734.383 Z M 687.691,297.801 V 643.199 H 788.508 V 297.801 H 687.691" /></g></g></svg>