<?xml version="1.0" encoding="UTF-8" standalone="no"?>
<!-- Created with Inkscape (http://www.inkscape.org/) -->

<svg
   version="1.1"
   id="svg2"
   width="230.66667"
   height="249.33333"
   viewBox="0 0 230.66667 249.33333"
   sodipodi:docname="LOGOTIPO CMYK-11.eps"
   xmlns:inkscape="http://www.inkscape.org/namespaces/inkscape"
   xmlns:sodipodi="http://sodipodi.sourceforge.net/DTD/sodipodi-0.dtd"
   xmlns="http://www.w3.org/2000/svg"
   xmlns:svg="http://www.w3.org/2000/svg">
  <defs
     id="defs6" />
  <sodipodi:namedview
     id="namedview4"
     pagecolor="#ffffff"
     bordercolor="#000000"
     borderopacity="0.25"
     inkscape:showpageshadow="2"
     inkscape:pageopacity="0.0"
     inkscape:pagecheckerboard="0"
     inkscape:deskcolor="#d1d1d1" />
  <g
     id="g8"
     inkscape:groupmode="layer"
     inkscape:label="ink_ext_XXXXXX"
     transform="matrix(1.3333333,0,0,-1.3333333,0,249.33333)">
    <g
       id="g10"
       transform="scale(0.1)">
      <path
         d="m 51.0664,579.809 c -4.7695,10.523 -6.8164,20.808 -6.1445,30.851 0.664,10.039 3.8828,19.117 9.6523,27.238 5.7656,8.114 13.9102,14.551 24.4336,19.309 10.461,4.742 20.5899,6.555 30.3632,5.469 9.785,-1.094 18.598,-4.719 26.414,-10.922 7.824,-6.203 14.106,-14.574 18.86,-25.098 3.578,-7.898 5.574,-15.414 6.007,-22.539 0.43,-7.121 -0.316,-13.656 -2.293,-19.566 -1.957,-5.91 -4.754,-10.985 -8.375,-15.266 -3.613,-4.273 -7.726,-7.457 -12.293,-9.519 -0.128,-0.055 -0.261,-0.118 -0.378,-0.18 -0.129,-0.051 -0.254,-0.106 -0.375,-0.16 l -11.094,24.535 c 0.304,0.137 0.636,0.328 0.988,0.566 0.344,0.227 0.695,0.461 1.039,0.688 2.969,1.953 5.309,4.551 6.973,7.797 1.66,3.238 2.488,6.933 2.496,11.101 0,4.149 -1.098,8.672 -3.305,13.551 -2.359,5.203 -5.621,9.426 -9.847,12.684 -4.231,3.261 -9.227,5.117 -14.954,5.582 -5.718,0.476 -11.9957,-0.821 -18.8317,-3.91 -6.7734,-3.063 -11.9335,-6.907 -15.5351,-11.555 -3.5899,-4.645 -5.6524,-9.692 -6.1875,-15.11 -0.5352,-5.41 0.3672,-10.73 2.7461,-16.003 2.5234,-5.575 5.4687,-9.758 8.7851,-12.508 3.3399,-2.77 6.8594,-4.375 10.5899,-4.883 3.7383,-0.492 7.3711,-0.098 10.9292,1.211 l 11.137,-24.633 c -4.633,-2.098 -9.75,-3.121 -15.3904,-3.109 -5.6328,0.023 -11.336,1.211 -17.0938,3.586 -5.7578,2.39 -11.164,6.086 -16.25,11.156 -5.0742,5.058 -9.4414,11.617 -13.0664,19.637 z M 1681.12,955.402 c 9.45,9.446 24.77,9.446 34.21,0 9.46,-9.449 9.46,-24.769 0,-34.214 -9.44,-9.446 -24.76,-9.446 -34.21,0 -9.44,9.445 -9.44,24.765 0,34.214 z m -1668.4559,0 c 9.4453,9.446 24.7578,9.446 34.207,0 9.4531,-9.449 9.4531,-24.769 0,-34.214 -9.4492,-9.446 -24.7617,-9.446 -34.207,0 -9.44926,9.445 -9.44926,24.765 0,34.214 z M 650.316,1269.93 H 1012.8 c 133.43,0 242.62,-109.19 242.62,-242.62 v -0.02 C 1255.42,893.852 1146.2,784.66 1012.8,784.656 1012.8,651.215 903.586,542.02 770.168,542.02 h -0.012 c -133.433,0 -242.64,109.199 -242.64,242.64 v 362.48 c 0,6.89 5.613,12.5 12.496,12.5 h 97.804 V 784.656 704.52 c 0,-5.153 2.946,-9.563 7.715,-11.54 4.77,-1.976 9.965,-0.945 13.614,2.704 l 88.968,88.972 H 1012.8 v 362.494 0.32 0 l -0.01,0.31 v 0.01 l -0.02,0.3 v 0.02 l -0.03,0.3 v 0.01 l -0.03,0.29 -0.01,0.03 -0.04,0.28 v 0.03 l -0.05,0.27 v 0.04 l -0.06,0.27 v 0.03 l -0.06,0.26 -0.01,0.04 -0.06,0.26 -0.01,0.05 -0.07,0.24 -0.02,0.05 -0.07,0.24 -0.01,0.06 -0.08,0.23 -0.02,0.06 -0.07,0.23 -0.03,0.06 -0.08,0.22 -0.03,0.06 -0.08,0.21 -0.03,0.07 -0.09,0.21 -0.03,0.08 -0.1,0.19 -0.03,0.08 -0.1,0.19 -0.04,0.08 -0.1,0.18 -0.04,0.09 -0.1,0.17 -0.05,0.09 -0.1,0.17 -0.05,0.09 -0.1,0.16 -0.06,0.1 -0.11,0.15 -0.06,0.1 -0.1,0.15 -0.07,0.09 -0.1,0.15 -0.08,0.1 -0.1,0.13 -0.08,0.11 -0.11,0.12 -0.08,0.11 -0.02,0.02 -0.17,0.21 -0.11,0.12 -0.09,0.1 -0.11,0.12 -0.1,0.1 -0.1,0.11 -0.11,0.11 -0.1,0.1 -0.11,0.11 -0.1,0.09 -0.12,0.11 -0.1,0.09 -0.13,0.11 -0.09,0.09 -0.14,0.1 -0.09,0.08 -0.14,0.11 -0.1,0.08 -0.14,0.1 -0.09,0.07 -0.15,0.11 -0.09,0.07 -0.16,0.1 -0.09,0.07 -0.16,0.1 -0.09,0.06 -0.16,0.1 -0.09,0.05 -0.17,0.1 -0.09,0.05 -0.18,0.1 -0.08,0.05 -0.19,0.09 -0.07,0.04 -0.2,0.1 -0.07,0.03 -0.2,0.1 -0.07,0.03 -0.21,0.09 -0.07,0.03 -0.21,0.08 -0.07,0.03 -0.22,0.08 -0.05,0.03 -0.24,0.07 -0.05,0.02 -0.24,0.08 -0.05,0.01 -0.24,0.08 -0.05,0.01 -0.25,0.07 -0.04,0.01 -0.26,0.06 -0.04,0.01 -0.26,0.06 h -0.04 l -0.27,0.06 h -0.03 l -0.28,0.05 h -0.02 l -0.6,0.08 h -0.02 l -0.3,0.03 h -0.01 l -0.31,0.02 v 0 l -0.31,0.01 h -0.33 -362.484 v 97.8 c 0,6.88 5.614,12.49 12.5,12.49 z m -495.703,-16.35 c -4.761,-10.53 -11.121,-18.85 -19.101,-24.99 -7.977,-6.13 -16.926,-9.71 -26.828,-10.74 -9.8949,-1.04 -20.1176,0.82 -30.6332,5.58 -10.4766,4.73 -18.5235,11.12 -24.168,19.2 -5.6445,8.05 -8.7344,17.07 -9.2461,27.04 -0.5156,9.97 1.6172,20.21 6.3828,30.74 3.5625,7.89 7.8828,14.36 12.9493,19.39 5.0703,5.03 10.4648,8.79 16.2031,11.2 5.7304,2.43 11.3945,3.69 17.0039,3.8 5.5862,0.11 10.6912,-0.87 15.2622,-2.94 0.128,-0.06 0.253,-0.11 0.375,-0.18 0.132,-0.05 0.253,-0.1 0.371,-0.16 l -11.086,-24.54 c -0.305,0.14 -0.664,0.27 -1.075,0.37 -0.398,0.11 -0.808,0.22 -1.2066,0.33 -3.4258,0.94 -6.918,0.98 -10.457,0.07 -3.5352,-0.88 -6.8477,-2.7 -9.9805,-5.45 -3.1172,-2.73 -5.7812,-6.55 -7.9922,-11.43 -2.3554,-5.21 -3.3594,-10.45 -3.0234,-15.78 0.3515,-5.32 2.2578,-10.3 5.6914,-14.91 3.4258,-4.6 8.5391,-8.46 15.3711,-11.56 6.7695,-3.05 13.0662,-4.39 18.9372,-4.02 5.867,0.37 11.008,2.16 15.43,5.33 4.406,3.17 7.82,7.37 10.203,12.64 2.512,5.57 3.719,10.55 3.59,14.86 -0.121,4.33 -1.242,8.03 -3.332,11.17 -2.102,3.14 -4.801,5.61 -8.125,7.41 l 11.141,24.63 c 4.628,-2.1 8.781,-5.26 12.488,-9.5 3.711,-4.25 6.578,-9.31 8.597,-15.2 2.016,-5.91 2.817,-12.4 2.372,-19.56 -0.446,-7.17 -2.485,-14.77 -6.114,-22.8 z m 55.782,103.38 c -4.411,-6.89 -9.391,-12.24 -14.899,-16.06 -5.516,-3.82 -11.254,-5.89 -17.269,-6.21 -6,-0.32 -11.895,1.38 -17.684,5.1 -6.309,4.04 -10.41,9.11 -12.281,15.18 -1.871,6.06 -2.063,12.72 -0.547,19.99 1.519,7.28 4.265,14.67 8.195,22.2 5.703,11.22 9.426,19.24 11.168,24.04 1.723,4.82 1.535,7.89 -0.609,9.26 -0.055,0.03 -0.114,0.08 -0.141,0.09 -0.035,0.01 -0.035,0.01 -0.035,0.01 -4.051,2.61 -8.348,2.79 -12.883,0.56 -4.547,-2.24 -8.945,-6.7 -13.211,-13.35 -4.492,-7.01 -6.711,-13.14 -6.64,-18.46 0.066,-5.31 2.769,-9.7 8.089,-13.11 l -14.472,-22.57 c -7.242,4.63 -12.129,10.5 -14.676,17.57 -2.531,7.06 -2.949,14.76 -1.258,23.14 1.715,8.39 5.289,16.84 10.738,25.36 5.086,7.92 10.938,14.43 17.54,19.5 6.605,5.09 13.597,8.09 20.96,9.01 7.364,0.9 14.641,-0.94 21.809,-5.54 1.223,-0.78 2.445,-1.56 3.652,-2.34 1.227,-0.78 2.434,-1.56 3.653,-2.35 l 34.734,-22.26 c 2.207,-1.42 4.41,-2.7 6.61,-3.91 2.199,-1.21 4.308,-2.15 6.285,-2.76 2.218,-0.6 4.23,-0.91 6.019,-0.92 1.789,0 3.078,0.07 3.836,0.25 l -14.476,-22.59 c -0.668,-0.15 -1.84,-0.18 -3.485,-0.14 -1.652,0.03 -3.433,0.25 -5.371,0.67 -2.109,0.53 -4.266,1.31 -6.457,2.3 -2.18,0.99 -4.473,2.25 -6.906,3.81 l 6.023,2.52 c 2.422,-4 3.797,-8.61 4.149,-13.86 0.359,-5.25 -0.317,-10.82 -2.02,-16.67 -1.715,-5.85 -4.43,-11.67 -8.14,-17.46 z m -14.415,17.09 c 3.043,4.74 5.063,9.66 6.036,14.76 0.98,5.08 0.558,9.97 -1.239,14.63 -1.785,4.66 -5.336,8.69 -10.664,12.1 l -12.332,7.92 9.824,1.54 c -0.988,-4.59 -2.722,-9.77 -5.167,-15.56 -2.434,-5.79 -5.086,-11.52 -7.989,-17.19 -3.738,-7.24 -5.836,-13.12 -6.312,-17.68 -0.465,-4.55 1.258,-8.11 5.191,-10.64 3.82,-2.45 7.613,-2.84 11.383,-1.18 3.766,1.69 7.523,5.45 11.269,11.3 z m 68.231,60.66 -82.82,71.73 17.765,20.51 27.532,-23.84 -6.766,-2.47 c -3.145,3.63 -5.715,7.54 -7.695,11.71 -1.985,4.18 -3.164,8.48 -3.559,12.91 -0.391,4.44 0.199,8.89 1.719,13.39 1.535,4.5 4.14,8.88 7.828,13.14 2.937,3.38 5.48,5.85 7.672,7.37 2.179,1.53 3.629,2.36 4.347,2.56 l 15.555,-20.02 c -0.809,-0.2 -2.184,-0.84 -4.105,-1.95 -1.914,-1.12 -4.024,-3.03 -6.325,-5.67 -3.648,-4.21 -5.98,-8.33 -7.011,-12.4 -1.016,-4.07 -1.059,-8 -0.078,-11.75 0.976,-3.77 2.589,-7.26 4.847,-10.48 2.254,-3.23 4.828,-6.09 7.688,-8.57 l 41.168,-35.67 z m 98.777,96.4 c -6.808,-5.9 -14.535,-9.69 -23.195,-11.41 -8.656,-1.72 -17.52,-0.88 -26.582,2.54 -9.066,3.43 -17.691,9.85 -25.828,19.25 -7.93,9.15 -12.852,18.46 -14.774,27.88 -1.933,9.43 -1.425,18.29 1.539,26.59 2.95,8.3 7.747,15.31 14.411,21.07 6.496,5.63 13.879,9.25 22.148,10.83 8.285,1.57 16.555,0.96 24.789,-1.83 8.231,-2.78 15.527,-7.83 21.879,-15.17 0.18,-0.21 0.359,-0.42 0.543,-0.63 0.176,-0.21 0.359,-0.41 0.535,-0.61 l -9.93,-9.03 c -0.144,0.16 -0.293,0.35 -0.453,0.53 -0.152,0.17 -0.297,0.33 -0.433,0.5 -3.555,4.1 -7.676,6.8 -12.379,8.09 -4.719,1.29 -9.465,1.42 -14.223,0.34 -4.762,-1.07 -8.949,-3.2 -12.601,-6.36 -5.969,-5.17 -9.332,-11.59 -10.055,-19.27 -0.723,-7.68 2.695,-15.87 10.219,-24.55 7.472,-8.63 15.097,-13.17 22.859,-13.64 7.766,-0.44 14.645,1.91 20.617,7.08 3.797,3.29 6.512,7.24 8.16,11.84 1.653,4.63 2.09,9.42 1.332,14.35 -0.781,4.94 -2.961,9.45 -6.562,13.61 l 10.543,8.32 c 6.293,-7.28 10.394,-15.25 12.254,-23.97 1.859,-8.72 1.539,-17.18 -0.942,-25.33 -2.484,-8.17 -7.109,-15.16 -13.871,-21.02 z m 24.641,24.34 -105.566,121.88 20.574,17.83 105.574,-121.88 z m 47.355,32.5 -59.129,92.23 22.579,14.47 59.129,-92.23 z M 376.32,1704.5 c -3.707,-2.37 -7.574,-3.43 -11.601,-3.18 -4.031,0.23 -7.203,2.11 -9.504,5.7 -2.262,3.54 -2.633,7.18 -1.152,10.91 1.484,3.73 4.074,6.78 7.777,9.15 3.652,2.33 7.465,3.4 11.445,3.18 3.985,-0.24 7.106,-2.11 9.371,-5.64 2.309,-3.6 2.727,-7.25 1.282,-10.98 -1.434,-3.75 -3.981,-6.81 -7.618,-9.14 z m 156.645,-63.83 c -10.535,-4.76 -20.817,-6.73 -30.828,-5.93 -10.016,0.8 -19.047,4.07 -27.133,9.85 -8.09,5.77 -14.43,13.7 -18.996,23.8 -4.578,10.15 -6.344,20.15 -5.301,29.95 1.047,9.79 4.59,18.66 10.625,26.68 6.031,8.01 14.313,14.39 24.852,19.16 10.527,4.75 20.796,6.75 30.796,5.99 10.004,-0.75 19.036,-3.96 27.086,-9.64 8.039,-5.69 14.34,-13.64 18.93,-23.79 4.563,-10.09 6.352,-20.07 5.356,-29.95 -1.004,-9.9 -4.543,-18.85 -10.567,-26.9 -6.031,-8.04 -14.293,-14.46 -24.82,-19.22 z m -9.141,20.22 c 5.707,2.57 10.098,6.14 13.16,10.7 3.082,4.55 4.735,9.75 4.965,15.57 0.242,5.8 -1.066,11.88 -3.957,18.28 -2.894,6.4 -6.594,11.4 -11.078,14.99 -4.496,3.6 -9.441,5.7 -14.867,6.34 -5.414,0.65 -10.984,-0.32 -16.692,-2.9 -5.632,-2.55 -10.003,-6.08 -13.144,-10.58 -3.129,-4.51 -4.856,-9.63 -5.121,-15.38 -0.27,-5.74 1.047,-11.83 3.933,-18.21 2.895,-6.41 6.586,-11.41 11.106,-15.06 4.523,-3.67 9.547,-5.85 15.027,-6.54 5.481,-0.69 11.028,0.24 16.668,2.79 z m 62.188,175.49 51.676,-152.74 -25.309,-8.56 -51.676,152.73 z m 135.32,-134.98 c -11.371,-2.03 -21.816,-1.42 -31.34,1.81 -9.523,3.22 -17.465,8.61 -23.89,16.19 -6.418,7.59 -10.629,16.83 -12.571,27.74 -1.957,10.96 -1.215,21.08 2.203,30.33 3.411,9.24 9.012,16.98 16.832,23.26 7.825,6.29 17.418,10.45 28.797,12.48 11.367,2.03 21.813,1.46 31.328,-1.73 9.516,-3.19 17.485,-8.51 23.879,-16 6.407,-7.48 10.571,-16.73 12.539,-27.7 1.942,-10.9 1.239,-21.01 -2.164,-30.35 -3.398,-9.35 -9.019,-17.17 -16.84,-23.48 -7.808,-6.32 -17.394,-10.52 -28.773,-12.55 z m -3.898,21.83 c 6.156,1.11 11.293,3.48 15.386,7.15 4.094,3.67 6.973,8.3 8.625,13.88 1.664,5.57 1.883,11.79 0.645,18.69 -1.235,6.91 -3.598,12.68 -7.067,17.26 -3.472,4.58 -7.757,7.84 -12.859,9.78 -5.098,1.97 -10.723,2.39 -16.887,1.29 -6.093,-1.09 -11.187,-3.44 -15.339,-7.04 -4.141,-3.6 -7.067,-8.14 -8.743,-13.64 -1.664,-5.51 -1.882,-11.74 -0.652,-18.64 1.242,-6.91 3.594,-12.67 7.082,-17.31 3.484,-4.66 7.82,-8.01 12.953,-10.02 5.16,-2.02 10.762,-2.48 16.856,-1.4 z m 161.195,4.86 c 6.476,-0.45 12.176,-1.52 17.098,-3.18 4.925,-1.67 8.812,-4.21 11.668,-7.68 2.835,-3.48 4.328,-8.18 4.48,-14.1 0.168,-6.59 -1.93,-12.37 -6.273,-17.29 -4.352,-4.92 -10.782,-8.8 -19.348,-11.64 -8.566,-2.83 -19.149,-4.4 -31.738,-4.72 -18.286,-0.46 -32.411,1.82 -42.379,6.84 -9.965,5.01 -15.063,12 -15.285,21.01 -0.067,2.53 0.175,4.85 0.753,6.92 0.571,2.09 1.274,3.83 2.137,5.23 l 24.942,-2.99 c -0.399,-0.55 -0.793,-1.43 -1.168,-2.65 -0.387,-1.2 -0.551,-2.68 -0.508,-4.41 0.101,-4.26 3.07,-7.25 8.863,-9 5.781,-1.74 13.442,-2.51 23,-2.27 7.02,0.18 12.879,0.82 17.567,1.89 4.683,1.09 8.226,2.56 10.613,4.4 2.402,1.86 3.554,3.98 3.488,6.38 -0.086,3.58 -1.762,5.85 -5.019,6.8 -3.266,0.95 -7.122,1.54 -11.602,1.76 l -41.656,2.77 c -7.453,0.56 -13.59,2.61 -18.461,6.13 -4.875,3.53 -7.391,8.28 -7.547,14.27 -0.098,3.63 0.809,7.03 2.695,10.17 1.883,3.15 4.055,5.82 6.539,7.97 2.489,2.16 4.625,3.5 6.403,4.03 l 15.656,-7.25 c -1.438,-0.23 -3.102,-1.21 -5.016,-2.91 -1.91,-1.69 -2.859,-3.69 -2.804,-5.96 0.05,-2.13 1.066,-3.85 3.023,-5.22 1.961,-1.36 5.699,-2.25 11.211,-2.67 z m 9.769,99 24.336,0.63 -8.828,-42.75 c -1.648,-8.02 -4.461,-15.25 -8.422,-21.68 -3.961,-6.43 -9.339,-11.55 -16.125,-15.36 -6.777,-3.82 -15.402,-5.87 -25.851,-6.13 -10.863,-0.28 -20.254,1.28 -28.219,4.61 -7.961,3.35 -14.168,8.18 -18.601,14.5 -4.43,6.32 -6.735,13.64 -6.95,22.04 -0.218,8.59 1.793,16.25 5.989,22.93 4.191,6.67 10.078,11.95 17.644,15.86 7.578,3.9 16.195,5.98 25.887,6.22 7.844,0.2 14.922,-0.9 21.242,-3.32 6.32,-2.41 11.43,-5.65 15.277,-9.68 3.86,-4.03 5.965,-8.38 6.348,-13.05 l -6.051,-1.3 z m -35.527,-64.36 c 5.309,0.14 9.852,1.11 13.656,2.93 3.813,1.81 6.739,4.39 8.782,7.72 2.046,3.32 3.011,7.3 2.898,11.97 -0.117,4.61 -1.289,8.53 -3.496,11.78 -2.215,3.25 -5.273,5.72 -9.168,7.38 -3.895,1.65 -8.461,2.4 -13.676,2.26 -5.09,-0.13 -9.57,-1.13 -13.445,-3.02 -3.871,-1.88 -6.863,-4.51 -9.027,-7.91 -2.145,-3.38 -3.176,-7.41 -3.063,-12.01 0.117,-4.6 1.32,-8.49 3.57,-11.7 2.246,-3.22 5.328,-5.62 9.262,-7.2 3.926,-1.59 8.492,-2.33 13.707,-2.2 z m 84.461,-49.07 13.801,108.7 26.613,-3.38 -13.812,-108.69 z m 29.762,127.05 c -4.367,0.56 -8.008,2.23 -10.942,5 -2.941,2.76 -4.164,6.24 -3.629,10.48 0.528,4.16 2.579,7.19 6.118,9.1 3.523,1.91 7.464,2.57 11.828,2.02 4.301,-0.54 7.914,-2.17 10.828,-4.9 2.906,-2.73 4.094,-6.17 3.562,-10.33 -0.531,-4.24 -2.55,-7.31 -6.058,-9.25 -3.504,-1.95 -7.414,-2.66 -11.707,-2.12 z m 63.726,-144.26 c -7.97,1.85 -14.68,4.73 -20.14,8.64 -5.45,3.91 -9.34,8.61 -11.657,14.16 -2.332,5.55 -2.707,11.67 -1.16,18.38 1.684,7.29 5.087,12.86 10.167,16.67 5.07,3.8 11.28,6.21 18.64,7.23 7.37,1.02 15.25,0.93 23.67,-0.23 12.47,-1.6 21.28,-2.41 26.4,-2.43 5.11,-0.01 7.94,1.2 8.51,3.68 0.01,0.07 0.03,0.15 0.03,0.18 0.01,0.02 0.01,0.02 0.01,0.02 1.09,4.7 -0.19,8.8 -3.82,12.33 -3.65,3.52 -9.31,6.16 -17.01,7.94 -8.12,1.88 -14.64,1.9 -19.62,0.05 -4.98,-1.85 -8.19,-5.87 -9.62,-12.03 l -26.14,6.02 c 1.94,8.39 5.82,14.96 11.61,19.74 5.8,4.76 12.91,7.75 21.37,8.97 8.48,1.22 17.64,0.69 27.49,-1.58 9.17,-2.12 17.27,-5.43 24.28,-9.94 7.01,-4.52 12.18,-10.09 15.52,-16.71 3.34,-6.63 4.06,-14.1 2.13,-22.4 -0.32,-1.42 -0.66,-2.83 -0.97,-4.24 -0.33,-1.4 -0.65,-2.81 -0.97,-4.22 l -9.29,-40.21 c -0.58,-2.54 -1.05,-5.05 -1.45,-7.53 -0.4,-2.49 -0.57,-4.78 -0.49,-6.84 0.18,-2.31 0.57,-4.3 1.16,-5.99 0.59,-1.69 1.1,-2.87 1.52,-3.53 l -26.13,6.04 c -0.37,0.58 -0.79,1.67 -1.31,3.23 -0.52,1.57 -0.92,3.32 -1.18,5.28 -0.21,2.17 -0.2,4.46 0,6.84 0.19,2.4 0.61,4.99 1.26,7.8 l 4.39,-4.82 c -2.95,-3.63 -6.82,-6.48 -11.64,-8.57 -4.83,-2.11 -10.31,-3.34 -16.39,-3.71 -6.08,-0.36 -12.46,0.24 -19.17,1.78 z m 11.23,19.33 c 5.5,-1.27 10.81,-1.52 15.93,-0.71 5.13,0.79 9.58,2.83 13.38,6.09 3.78,3.25 6.38,7.93 7.8,14.11 l 3.29,14.27 4.76,-8.71 c -4.66,-0.63 -10.12,-0.74 -16.39,-0.39 -6.27,0.36 -12.56,0.92 -18.86,1.75 -8.08,1.08 -14.32,1.07 -18.78,-0.02 -4.46,-1.08 -7.22,-3.9 -8.27,-8.46 -1.03,-4.42 -0.11,-8.13 2.73,-11.12 2.84,-2.98 7.65,-5.25 14.41,-6.81 z m 176.44,-86.77 c -10.29,5.26 -18.24,12.08 -23.86,20.4 -5.62,8.33 -8.68,17.43 -9.21,27.36 -0.52,9.93 1.72,19.82 6.78,29.68 5.07,9.92 11.8,17.52 20.11,22.82 8.32,5.28 17.46,8.05 27.49,8.33 10.03,0.26 20.18,-2.22 30.48,-7.5 10.28,-5.27 18.24,-12.05 23.87,-20.35 5.65,-8.29 8.77,-17.35 9.34,-27.19 0.56,-9.83 -1.72,-19.72 -6.79,-29.63 -5.04,-9.86 -11.74,-17.48 -20.1,-22.86 -8.35,-5.38 -17.56,-8.19 -27.61,-8.5 -10.04,-0.29 -20.22,2.17 -30.5,7.44 z m 10.11,19.74 c 5.57,-2.86 11.1,-4.06 16.57,-3.62 5.47,0.43 10.58,2.37 15.27,5.82 4.69,3.43 8.63,8.25 11.83,14.49 3.19,6.24 4.81,12.26 4.82,18.01 0.02,5.75 -1.43,10.93 -4.31,15.57 -2.88,4.64 -7.1,8.39 -12.67,11.24 -5.51,2.83 -10.98,4.05 -16.47,3.69 -5.48,-0.36 -10.55,-2.21 -15.21,-5.57 -4.66,-3.38 -8.61,-8.2 -11.81,-14.44 -3.19,-6.24 -4.8,-12.26 -4.84,-18.06 -0.05,-5.82 1.38,-11.11 4.26,-15.83 2.88,-4.72 7.06,-8.48 12.56,-11.3 z m 126.74,-106.58 30.02,38.21 c 1.7,2.16 3.21,4.08 4.51,5.73 1.29,1.64 2.46,3.14 3.52,4.49 3.06,3.9 5.29,7.83 6.62,11.82 1.33,3.97 1.35,7.9 0.08,11.78 -1.27,3.89 -4.29,7.69 -8.99,11.39 -4.11,3.23 -8.52,5.12 -13.26,5.66 -4.74,0.53 -9.36,-0.21 -13.86,-2.22 -4.52,-2.02 -8.55,-5.27 -12.09,-9.76 l -3.71,10.14 c 5.65,7.18 12.34,12.3 20.01,15.32 7.66,3.03 15.48,3.97 23.51,2.82 8.02,-1.14 15.39,-4.34 22.1,-9.61 6.92,-5.44 11.7,-11.37 14.3,-17.81 2.61,-6.42 3.17,-13.06 1.67,-19.92 -1.51,-6.87 -4.91,-13.64 -10.18,-20.35 -2.04,-2.6 -4.34,-5.52 -6.88,-8.76 -2.55,-3.26 -5.06,-6.44 -7.53,-9.58 l -28.43,-36.18 z m -60.91,47.87 67.69,86.14 21.33,-16.75 -67.69,-86.16 z m 235.67,11.41 -111.28,-116.69 -19.33,18.43 111.27,116.7 z m -89.89,-139.53 82.82,71.74 17.56,-20.27 -82.82,-71.73 z m 106.95,74.77 c -2.88,3.33 -4.48,7 -4.82,11.01 -0.34,4.03 1.07,7.44 4.3,10.23 3.16,2.75 6.72,3.64 10.63,2.7 3.9,-0.93 7.28,-3.06 10.16,-6.39 2.83,-3.27 4.44,-6.9 4.78,-10.87 0.35,-3.98 -1.06,-7.33 -4.23,-10.08 -3.23,-2.79 -6.78,-3.73 -10.69,-2.84 -3.9,0.89 -7.29,2.96 -10.13,6.24 z m -24.36,-181.62 39.59,28.15 c 2.24,1.6 4.24,3.01 5.95,4.23 1.71,1.21 3.25,2.32 4.64,3.31 4.05,2.87 7.29,6.02 9.7,9.46 2.4,3.44 3.53,7.19 3.41,11.29 -0.13,4.08 -1.94,8.58 -5.41,13.46 -3.02,4.26 -6.72,7.33 -11.11,9.18 -4.41,1.85 -9.05,2.44 -13.94,1.78 -4.89,-0.66 -9.69,-2.63 -14.34,-5.94 l -0.7,10.78 c 7.46,5.3 15.32,8.31 23.53,9.05 8.21,0.73 15.98,-0.58 23.35,-3.95 7.37,-3.37 13.53,-8.51 18.48,-15.47 5.1,-7.17 8,-14.23 8.68,-21.12 0.69,-6.9 -0.66,-13.43 -4.04,-19.58 -3.39,-6.17 -8.56,-11.7 -15.51,-16.65 -2.69,-1.91 -5.72,-4.06 -9.08,-6.46 -3.36,-2.39 -6.67,-4.74 -9.92,-7.05 l -37.5,-26.66 z m -44.9,63.13 89.28,63.5 15.73,-22.11 -89.29,-63.5 z m 120.52,-102.8 17.58,7.95 31.56,-69.85 -5.96,0.7 c 0.38,0.18 0.81,0.37 1.28,0.58 0.47,0.21 0.84,0.38 1.16,0.53 4.32,1.95 7.96,4.77 10.86,8.42 2.92,3.66 4.65,7.99 5.23,13 0.56,5.02 -0.54,10.56 -3.29,16.63 -2.72,6.02 -6.32,10.65 -10.86,13.92 -4.53,3.27 -9.74,5.03 -15.6,5.3 -5.85,0.25 -12.1,-1.1 -18.75,-4.1 -6.83,-3.09 -12.17,-6.91 -16.04,-11.44 -3.88,-4.55 -6.09,-9.66 -6.66,-15.31 -0.58,-5.66 0.57,-11.71 3.49,-18.17 1.98,-4.38 4.1,-7.99 6.36,-10.81 2.26,-2.84 4.58,-4.96 6.9,-6.36 2.34,-1.4 4.54,-2.25 6.63,-2.55 2.1,-0.29 4,-0.16 5.71,0.39 l 11.14,-24.63 c -4.37,-1.53 -9.07,-1.99 -14.13,-1.37 -5.08,0.62 -10.21,2.37 -15.39,5.23 -5.19,2.87 -10.12,6.94 -14.83,12.25 -4.7,5.31 -8.86,11.92 -12.42,19.82 -4.85,10.72 -6.88,21.07 -6.13,31.07 0.77,10.01 4.06,19.01 9.87,27.03 5.8,8.03 13.75,14.33 23.84,18.89 10.34,4.68 20.43,6.48 30.25,5.45 9.83,-1.02 18.76,-4.57 26.77,-10.69 8,-6.12 14.36,-14.42 19.09,-24.89 4.87,-10.78 6.9,-21.1 6.06,-30.96 -0.82,-9.84 -4.17,-18.64 -10.05,-26.42 -5.88,-7.8 -14,-14.04 -24.34,-18.71 -1.32,-0.59 -2.74,-1.2 -4.27,-1.81 -1.54,-0.62 -2.68,-1.02 -3.41,-1.2 z M 114.141,461.473 c -4.391,6.906 -7.153,13.664 -8.301,20.273 -1.149,6.606 -0.617,12.688 1.617,18.27 2.231,5.582 6.258,10.214 12.059,13.91 6.328,4.023 12.66,5.609 18.949,4.754 6.277,-0.848 12.398,-3.477 18.367,-7.918 5.957,-4.438 11.523,-10.032 16.695,-16.766 7.758,-9.891 13.493,-16.648 17.118,-20.246 3.632,-3.586 6.503,-4.703 8.656,-3.336 0.051,0.031 0.113,0.074 0.14,0.098 0.02,0.008 0.02,0.008 0.02,0.008 4.07,2.589 6.043,6.406 5.918,11.464 -0.117,5.067 -2.301,10.926 -6.555,17.598 -4.461,7.02 -9.097,11.617 -13.941,13.793 -4.852,2.172 -9.969,1.563 -15.297,-1.84 l -14.402,22.633 c 7.254,4.617 14.64,6.594 22.113,5.922 7.476,-0.664 14.644,-3.524 21.523,-8.594 6.899,-5.078 13.059,-11.871 18.493,-20.398 5.054,-7.946 8.496,-15.989 10.324,-24.121 1.832,-8.125 1.613,-15.731 -0.657,-22.793 -2.261,-7.071 -6.996,-12.887 -14.195,-17.469 -1.222,-0.777 -2.441,-1.551 -3.652,-2.32 -1.223,-0.786 -2.438,-1.551 -3.656,-2.332 L 170.664,419.91 c -2.211,-1.406 -4.305,-2.859 -6.332,-4.355 -2.016,-1.489 -3.742,-3 -5.144,-4.535 -1.481,-1.758 -2.61,-3.454 -3.36,-5.086 -0.769,-1.61 -1.23,-2.809 -1.394,-3.563 l -14.407,22.625 c 0.157,0.672 0.618,1.731 1.336,3.219 0.731,1.476 1.668,3.015 2.871,4.598 1.371,1.691 2.977,3.312 4.801,4.882 1.813,1.559 3.926,3.118 6.356,4.664 l -0.243,-6.515 c -4.648,-0.524 -9.406,0.16 -14.316,2.058 -4.914,1.879 -9.68,4.844 -14.277,8.844 -4.586,4.012 -8.723,8.922 -12.414,14.727 z m 21.558,5.89 c 3.028,-4.758 6.645,-8.656 10.856,-11.683 4.207,-3.032 8.816,-4.703 13.808,-5.035 4.973,-0.332 10.121,1.187 15.461,4.589 l 12.356,7.86 -2.723,-9.555 c -3.758,2.828 -7.727,6.574 -11.953,11.223 -4.219,4.648 -8.305,9.468 -12.227,14.476 -4.996,6.442 -9.449,10.817 -13.386,13.164 -3.938,2.336 -7.895,2.274 -11.844,-0.238 -3.82,-2.437 -5.77,-5.707 -5.848,-9.832 -0.051,-4.117 1.77,-9.109 5.5,-14.969 z m 45.434,-94.16 83.703,70.707 17.508,-20.726 -27.821,-23.493 -1.386,7.059 c 4.07,2.543 8.332,4.477 12.765,5.789 4.426,1.313 8.868,1.813 13.301,1.512 4.449,-0.293 8.75,-1.567 12.957,-3.766 4.215,-2.203 8.129,-5.469 11.774,-9.773 2.886,-3.422 4.933,-6.321 6.093,-8.715 1.168,-2.399 1.774,-3.957 1.852,-4.699 l -22.188,-12.262 c -0.07,0.836 -0.488,2.285 -1.289,4.359 -0.8,2.059 -2.359,4.43 -4.625,7.121 -3.597,4.254 -7.3,7.2 -11.164,8.852 -3.863,1.625 -7.734,2.273 -11.597,1.891 -3.875,-0.379 -7.575,-1.43 -11.11,-3.164 -3.531,-1.727 -6.758,-3.829 -9.648,-6.254 L 198.645,352.48 Z M 287.664,261.52 c -6.758,5.964 -11.543,13.121 -14.41,21.464 -2.863,8.344 -3.219,17.246 -1.035,26.688 2.183,9.441 7.398,18.836 15.633,28.168 8,9.086 16.566,15.195 25.644,18.367 9.086,3.18 17.934,3.856 26.555,2.031 8.621,-1.816 16.219,-5.629 22.816,-11.461 6.449,-5.687 11.02,-12.511 13.68,-20.507 2.676,-7.997 3.168,-16.266 1.512,-24.813 -1.661,-8.531 -5.696,-16.426 -12.114,-23.703 -0.175,-0.199 -0.355,-0.414 -0.547,-0.617 -0.175,-0.203 -0.359,-0.414 -0.543,-0.621 l -10.257,8.632 c 0.136,0.157 0.293,0.34 0.453,0.524 0.164,0.18 0.293,0.332 0.433,0.484 3.602,4.082 5.719,8.528 6.371,13.367 0.645,4.84 0.137,9.563 -1.57,14.133 -1.699,4.567 -4.379,8.446 -7.988,11.629 -5.926,5.231 -12.731,7.707 -20.438,7.399 -7.699,-0.321 -15.367,-4.805 -22.961,-13.411 -7.554,-8.558 -11.039,-16.718 -10.457,-24.48 0.59,-7.762 3.844,-14.266 9.766,-19.488 3.77,-3.321 8.055,-5.485 12.844,-6.5 4.785,-1.024 9.597,-0.813 14.383,0.605 4.781,1.422 8.972,4.192 12.617,8.324 l 9.64,-9.339 c -6.367,-7.227 -13.722,-12.34 -22.105,-15.352 -8.391,-3.012 -16.816,-3.824 -25.231,-2.461 -8.421,1.375 -15.984,5.02 -22.691,10.938 z m 27.418,-21.161 106.66,120.93 20.43,-18.023 -106.664,-120.922 z m 60.434,-41.785 59.589,91.946 22.508,-14.594 -59.586,-91.938 z m 81.937,101.559 c -3.703,2.398 -6.258,5.48 -7.707,9.25 -1.449,3.762 -1.031,7.433 1.289,11.015 2.278,3.516 5.438,5.36 9.457,5.547 4.004,0.196 7.844,-0.906 11.543,-3.304 3.625,-2.356 6.18,-5.391 7.606,-9.118 1.445,-3.718 1.027,-7.343 -1.258,-10.863 -2.32,-3.574 -5.469,-5.469 -9.469,-5.695 -4.008,-0.242 -7.84,0.816 -11.461,3.168 z m 28.18,-166.047 c -10.551,4.711 -18.836,11.105 -24.899,19.121 -6.046,8.023 -9.593,16.949 -10.632,26.836 -1.036,9.879 0.679,19.883 5.203,29.996 4.547,10.168 10.859,18.113 18.879,23.84 8.023,5.715 17.015,8.969 27.011,9.758 10.004,0.808 20.274,-1.153 30.825,-5.871 10.546,-4.723 18.855,-11.071 24.921,-19.063 6.079,-7.992 9.676,-16.875 10.758,-26.668 1.082,-9.785 -0.668,-19.773 -5.23,-29.941 -4.516,-10.114 -10.797,-18.078 -18.864,-23.887 -8.062,-5.809 -17.105,-9.113 -27.128,-9.941 -10.004,-0.825 -20.293,1.101 -30.844,5.82 z m 9.055,20.242 c 5.722,-2.551 11.3,-3.473 16.746,-2.742 5.441,0.727 10.429,2.937 14.941,6.617 4.5,3.668 8.184,8.684 11.047,15.098 2.863,6.394 4.156,12.492 3.863,18.234 -0.281,5.746 -2.004,10.852 -5.125,15.324 -3.105,4.489 -7.523,8.004 -13.246,10.563 -5.648,2.531 -11.18,3.461 -16.637,2.808 -5.445,-0.644 -10.414,-2.753 -14.898,-6.363 -4.481,-3.609 -8.16,-8.64 -11.024,-15.043 -2.867,-6.398 -4.148,-12.488 -3.886,-18.293 0.258,-5.808 1.965,-11.015 5.078,-15.582 3.129,-4.558 7.496,-8.09 13.141,-10.621 z m 163.917,87.664 -51.57,-152.7693 -25.316,8.5468 51.566,152.7695 z M 705.57,63.8359 c -11.371,2.1055 -20.929,6.3555 -28.699,12.7266 -7.777,6.375 -13.312,14.2188 -16.656,23.5785 -3.332,9.363 -4.02,19.488 -2.004,30.379 2.027,10.953 6.293,20.164 12.738,27.613 6.453,7.449 14.43,12.722 23.953,15.847 9.536,3.141 19.981,3.649 31.344,1.543 11.363,-2.105 20.93,-6.328 28.711,-12.66 7.785,-6.336 13.371,-14.117 16.727,-23.386 3.355,-9.254 4.004,-19.379 1.976,-30.336 -2.019,-10.8871 -6.242,-20.1058 -12.715,-27.6527 -6.472,-7.5469 -14.48,-12.8828 -24.023,-16.0352 -9.543,-3.1718 -19.996,-3.7187 -31.352,-1.6172 z m 4.035,21.8164 c 6.157,-1.1445 11.79,-0.7187 16.922,1.2618 5.121,1.9961 9.442,5.3203 12.957,9.9531 3.512,4.6368 5.911,10.3708 7.18,17.2738 1.281,6.89 1.106,13.125 -0.527,18.632 -1.637,5.512 -4.5,10.071 -8.586,13.692 -4.09,3.625 -9.207,6.004 -15.363,7.148 -6.079,1.129 -11.68,0.731 -16.84,-1.187 -5.133,-1.914 -9.473,-5.129 -12.977,-9.696 -3.496,-4.566 -5.894,-10.316 -7.18,-17.207 -1.269,-6.898 -1.097,-13.125 0.532,-18.699 1.621,-5.586 4.504,-10.2459 8.605,-13.949 4.113,-3.6953 9.188,-6.0977 15.277,-7.2227 z m 170.61,-23.9179 c 6.441,-0.8281 12.07,-2.2071 16.898,-4.1485 4.825,-1.9375 8.551,-4.707 11.203,-8.3281 2.629,-3.6328 3.856,-8.418 3.676,-14.332 -0.215,-6.5977 -2.629,-12.2305 -7.242,-16.9102 -4.625,-4.6679 -11.273,-8.17185 -19.977,-10.51951 -8.714,-2.33593 -19.378,-3.30468 -31.957,-2.91015 -18.289,0.57031 -32.261,3.66015 -41.921,9.23436 -9.665,5.5703 -14.364,12.8281 -14.079,21.8438 0.082,2.5429 0.461,4.832 1.157,6.8711 0.675,2.0468 1.492,3.7421 2.429,5.0898 l 24.723,-4.3906 c -0.422,-0.5352 -0.867,-1.3828 -1.312,-2.5781 -0.446,-1.1836 -0.704,-2.6524 -0.758,-4.3829 -0.133,-4.2578 2.66,-7.4101 8.34,-9.4765 5.683,-2.0703 13.285,-3.2774 22.828,-3.5821 7.019,-0.2187 12.906,0.0782 17.652,0.8985 4.734,0.8164 8.352,2.0781 10.848,3.7851 2.504,1.711 3.777,3.7735 3.84,6.1758 0.125,3.5742 -1.418,5.9219 -4.625,7.0664 -3.2,1.1289 -7.02,1.9336 -11.485,2.4258 l -41.433,5.1172 c -7.399,0.9922 -13.411,3.3828 -18.075,7.1719 -4.664,3.8008 -6.922,8.6875 -6.73,14.664 0.109,3.6446 1.211,6.9844 3.273,10.0118 2.059,3.0312 4.371,5.5742 6.981,7.5898 2.609,2.0195 4.82,3.2227 6.613,3.6523 l 15.231,-8.1211 c -1.454,-0.164 -3.161,-1.0273 -5.172,-2.625 -2.016,-1.5859 -3.075,-3.5156 -3.145,-5.789 -0.066,-2.1289 0.848,-3.9141 2.715,-5.3828 1.887,-1.4688 5.574,-2.5782 11.051,-3.2969 z m 15.375,98.2886 24.336,-0.761 -11.231,-42.172 c -2.109,-7.918 -5.332,-14.969 -9.652,-21.1642 -4.32,-6.1992 -9.98,-11.0078 -16.965,-14.4375 -6.988,-3.4297 -15.719,-4.9766 -26.164,-4.6485 -10.851,0.3399 -20.148,2.4297 -27.914,6.211 -7.758,3.789 -13.676,8.9648 -17.758,15.5234 -4.051,6.5628 -5.941,14.0198 -5.676,22.4098 0.27,8.594 2.711,16.118 7.278,22.547 4.57,6.422 10.746,11.364 18.527,14.836 7.781,3.461 16.508,5.047 26.192,4.738 7.835,-0.242 14.851,-1.738 21.019,-4.507 6.184,-2.778 11.094,-6.309 14.703,-10.539 3.617,-4.25 5.477,-8.715 5.598,-13.383 l -6.113,-0.957 z M 856.473,97.7734 c 5.297,-0.1562 9.886,0.5508 13.793,2.1485 3.914,1.6051 6.976,4.0121 9.214,7.2151 2.227,3.203 3.415,7.121 3.563,11.785 0.152,4.609 -0.793,8.594 -2.82,11.961 -2.024,3.375 -4.934,6.008 -8.727,7.883 -3.801,1.867 -8.316,2.871 -13.535,3.039 -5.09,0.164 -9.609,-0.594 -13.59,-2.262 -3.973,-1.656 -7.113,-4.109 -9.453,-7.375 -2.344,-3.262 -3.602,-7.215 -3.746,-11.816 -0.141,-4.602 0.836,-8.555 2.894,-11.891 2.055,-3.332 5.012,-5.902 8.84,-7.707 3.832,-1.8126 8.348,-2.8126 13.567,-2.9806 z m 97.769,-41.5625 -13.152,108.7811 26.633,3.211 13.152,-108.7655 z m -2.156,130.4771 c -4.371,-0.536 -8.313,0.199 -11.84,2.171 -3.519,1.961 -5.566,5.039 -6.07,9.274 -0.508,4.16 0.746,7.605 3.703,10.32 2.961,2.715 6.621,4.328 10.984,4.852 4.297,0.523 8.196,-0.172 11.688,-2.11 3.488,-1.937 5.48,-4.988 5.988,-9.156 0.516,-4.23 -0.695,-7.703 -3.617,-10.445 -2.926,-2.746 -6.543,-4.387 -10.836,-4.906 z M 1064.37,72.3984 c -7.96,-1.8476 -15.26,-2.1914 -21.87,-1.0742 -6.62,1.125 -12.18,3.6485 -16.69,7.625 -4.52,3.9649 -7.55,9.3008 -9.09,16.0039 -1.69,7.3089 -1.08,13.8009 1.83,19.4419 2.89,5.644 7.41,10.539 13.58,14.679 6.17,4.137 13.31,7.516 21.38,10.156 11.92,4.02 20.18,7.168 24.79,9.387 4.6,2.235 6.61,4.563 6.03,7.043 -0.02,0.063 -0.03,0.137 -0.04,0.172 0,0.035 0,0.035 0,0.035 -1.08,4.692 -4.02,7.821 -8.84,9.391 -4.81,1.574 -11.07,1.465 -18.77,-0.317 -8.11,-1.867 -13.98,-4.699 -17.65,-8.546 -3.67,-3.852 -4.8,-8.875 -3.37,-15.036 l -26.14,-6.027 c -1.93,8.375 -1.33,15.988 1.78,22.824 3.12,6.817 8.21,12.614 15.28,17.426 7.08,4.813 15.55,8.352 25.41,10.621 9.17,2.121 17.9,2.684 26.17,1.695 8.28,-0.972 15.37,-3.718 21.28,-8.207 5.9,-4.5 9.81,-10.902 11.73,-19.203 0.33,-1.418 0.65,-2.824 0.97,-4.226 0.33,-1.41 0.66,-2.817 0.98,-4.235 l 9.28,-40.207 c 0.59,-2.547 1.26,-4.996 1.99,-7.406 0.74,-2.406 1.59,-4.539 2.57,-6.3593 1.16,-1.9961 2.38,-3.6172 3.67,-4.8789 1.27,-1.2539 2.24,-2.086 2.9,-2.5 l -26.14,-6.0274 c -0.58,0.3555 -1.43,1.1524 -2.58,2.3282 -1.15,1.1797 -2.29,2.5742 -3.38,4.2265 -1.14,1.8672 -2.13,3.9219 -3,6.1563 -0.87,2.2383 -1.63,4.7456 -2.28,7.5546 l 6.06,-2.406 c -1.06,-4.5549 -3.29,-8.8049 -6.71,-12.801 -3.41,-4.0078 -7.8,-7.5234 -13.11,-10.5117 -5.3,-2.9961 -11.32,-5.2578 -18.02,-6.7969 z m 1.64,22.2891 c 5.5,1.2695 10.38,3.375 14.63,6.3355 4.26,2.961 7.36,6.75 9.36,11.344 1.96,4.574 2.25,9.934 0.81,16.098 l -3.28,14.281 8.1,-5.762 c -3.92,-2.593 -8.77,-5.086 -14.57,-7.515 -5.79,-2.442 -11.68,-4.684 -17.72,-6.707 -7.74,-2.567 -13.35,-5.313 -16.87,-8.235 -3.53,-2.933 -4.78,-6.683 -3.73,-11.234 1.03,-4.4297 3.47,-7.3594 7.32,-8.8008 3.87,-1.4258 9.19,-1.375 15.95,0.1953 z m 201.85,51.7775 c -10.34,-5.176 -20.54,-7.531 -30.58,-7.129 -10.04,0.402 -19.19,3.324 -27.49,8.789 -8.31,5.457 -14.95,13.137 -19.9,23.043 -4.99,9.965 -7.13,19.887 -6.46,29.711 0.66,9.832 3.85,18.848 9.58,27.082 5.71,8.242 13.74,14.937 24.09,20.105 10.33,5.164 20.5,7.559 30.53,7.188 10.03,-0.363 19.17,-3.215 27.43,-8.586 8.27,-5.379 14.87,-13.059 19.85,-23.027 4.95,-9.911 7.13,-19.813 6.52,-29.731 -0.63,-9.922 -3.8,-19.008 -9.52,-27.285 -5.7,-8.266 -13.72,-15 -24.05,-20.16 z m -9.92,19.84 c 5.6,2.8 9.85,6.531 12.73,11.199 2.9,4.68 4.35,9.934 4.37,15.758 0.01,5.801 -1.54,11.832 -4.68,18.105 -3.13,6.27 -7.03,11.149 -11.65,14.559 -4.62,3.422 -9.65,5.332 -15.1,5.754 -5.44,0.437 -10.96,-0.742 -16.56,-3.551 -5.54,-2.762 -9.77,-6.449 -12.73,-11.086 -2.95,-4.621 -4.47,-9.805 -4.52,-15.559 -0.05,-5.746 1.5,-11.781 4.64,-18.05 3.14,-6.282 7.02,-11.137 11.69,-14.614 4.66,-3.48 9.76,-5.472 15.26,-5.941 5.51,-0.481 11.01,0.664 16.55,3.426 z m 158.68,78.812 -30.07,38.176 c -1.69,2.164 -3.21,4.082 -4.5,5.723 -1.3,1.656 -2.47,3.14 -3.54,4.496 -3.06,3.886 -6.37,6.972 -9.92,9.211 -3.56,2.234 -7.36,3.168 -11.44,2.859 -4.08,-0.332 -8.49,-2.355 -13.18,-6.059 -4.11,-3.23 -6.99,-7.074 -8.63,-11.558 -1.63,-4.481 -2,-9.137 -1.1,-13.992 0.9,-4.856 3.1,-9.555 6.64,-14.043 l -10.73,-1.227 c -5.65,7.192 -9.06,14.899 -10.19,23.063 -1.14,8.164 -0.21,15.98 2.8,23.515 3,7.532 7.85,13.934 14.56,19.211 6.91,5.446 13.81,8.688 20.66,9.699 6.86,1.024 13.45,0 19.77,-3.078 6.31,-3.086 12.1,-7.984 17.37,-14.675 2.04,-2.598 4.34,-5.516 6.89,-8.758 2.56,-3.239 5.07,-6.43 7.54,-9.563 l 28.46,-36.144 z m -60.87,-47.922 -67.79,86.078 21.31,16.778 67.79,-86.082 z m 25.16,231.856 111.59,-116.391 -19.29,-18.5 -111.58,116.391 z m 144,-81.985 -82.69,71.875 17.59,20.243 82.7,-71.871 z m -89.09,95.336 c -2.89,-3.324 -6.31,-5.425 -10.24,-6.32 -3.92,-0.914 -7.5,0.008 -10.72,2.801 -3.17,2.75 -4.55,6.14 -4.17,10.148 0.37,3.992 2.01,7.637 4.88,10.961 2.85,3.27 6.21,5.36 10.09,6.266 3.89,0.91 7.41,-0.02 10.58,-2.77 3.22,-2.8 4.65,-6.183 4.32,-10.175 -0.33,-4 -1.91,-7.645 -4.74,-10.911 z m 179.81,25.356 -40.77,26.43 c -2.32,1.5 -4.36,2.82 -6.12,3.96 -1.76,1.141 -3.35,2.176 -4.79,3.11 -4.16,2.691 -8.29,4.551 -12.38,5.508 -4.08,0.968 -7.98,0.632 -11.75,-0.993 -3.75,-1.609 -7.26,-4.949 -10.51,-9.976 -2.85,-4.387 -4.34,-8.953 -4.44,-13.719 -0.09,-4.781 1.07,-9.305 3.48,-13.613 2.41,-4.305 6.02,-8.035 10.82,-11.137 l -9.76,-4.621 c -7.68,4.969 -13.38,11.164 -17.09,18.523 -3.71,7.364 -5.35,15.067 -4.95,23.161 0.42,8.097 2.94,15.722 7.58,22.886 4.78,7.379 10.27,12.68 16.43,15.856 6.15,3.18 12.72,4.336 19.69,3.472 6.98,-0.882 14.04,-3.644 21.19,-8.285 2.77,-1.797 5.89,-3.82 9.35,-6.062 3.47,-2.246 6.87,-4.445 10.22,-6.617 l 38.61,-25.028 z m -42.13,-65.016 -91.95,59.586 14.76,22.762 91.94,-59.574 z m 41.69,156.223 -17.6,7.875 31.3,69.969 3.45,-4.926 c -0.38,0.156 -0.82,0.355 -1.29,0.57 -0.47,0.215 -0.85,0.383 -1.16,0.52 -4.34,1.941 -8.85,2.797 -13.52,2.539 -4.66,-0.246 -9.07,-1.824 -13.19,-4.715 -4.13,-2.899 -7.53,-7.402 -10.26,-13.496 -2.7,-6.028 -3.77,-11.805 -3.21,-17.363 0.57,-5.559 2.71,-10.633 6.4,-15.184 3.69,-4.547 8.85,-8.332 15.52,-11.305 6.83,-3.066 13.23,-4.527 19.19,-4.41 5.97,0.113 11.26,1.859 15.88,5.188 4.6,3.308 8.37,8.195 11.27,14.656 1.96,4.398 3.25,8.371 3.87,11.937 0.62,3.571 0.66,6.711 0.17,9.375 -0.51,2.672 -1.32,4.891 -2.49,6.657 -1.17,1.757 -2.54,3.093 -4.08,4.011 l 11.03,24.672 c 4.05,-2.254 7.51,-5.461 10.42,-9.66 2.9,-4.207 4.99,-9.207 6.29,-14.992 1.29,-5.778 1.52,-12.168 0.67,-19.207 -0.85,-7.051 -3.05,-14.547 -6.58,-22.457 -4.81,-10.731 -11.2,-19.129 -19.18,-25.196 -8,-6.07 -16.91,-9.585 -26.77,-10.558 -9.86,-0.981 -19.85,0.777 -29.96,5.297 -10.36,4.629 -18.4,10.984 -24.15,19.019 -5.75,8.032 -9.01,17.071 -9.76,27.125 -0.73,10.043 1.26,20.309 5.96,30.793 4.82,10.797 11.2,19.156 19.13,25.074 7.91,5.922 16.71,9.262 26.44,10.028 9.72,0.773 19.79,-1.164 30.15,-5.809 1.31,-0.582 2.71,-1.246 4.19,-1.988 1.48,-0.742 2.53,-1.32 3.17,-1.754 l -41.3,-92.285"
         style="fill:#181a21;fill-opacity:1;fill-rule:nonzero;stroke:none"
         id="path12" />
    </g>
  </g>
</svg>
