<?xml version="1.0" encoding="UTF-8" standalone="no"?>
<!-- Created with Inkscape (http://www.inkscape.org/) -->

<svg
   version="1.1"
   id="svg2"
   width="226.66667"
   height="177.33333"
   viewBox="0 0 226.66667 177.33333"
   sodipodi:docname="LOGOTIPO CMYK-2.eps"
   xmlns:inkscape="http://www.inkscape.org/namespaces/inkscape"
   xmlns:sodipodi="http://sodipodi.sourceforge.net/DTD/sodipodi-0.dtd"
   xmlns="http://www.w3.org/2000/svg"
   xmlns:svg="http://www.w3.org/2000/svg">
  <defs
     id="defs6" />
  <sodipodi:namedview
     id="namedview4"
     pagecolor="#ffffff"
     bordercolor="#000000"
     borderopacity="0.25"
     inkscape:showpageshadow="2"
     inkscape:pageopacity="0.0"
     inkscape:pagecheckerboard="0"
     inkscape:deskcolor="#d1d1d1" />
  <g
     id="g8"
     inkscape:groupmode="layer"
     inkscape:label="ink_ext_XXXXXX"
     transform="matrix(1.3333333,0,0,-1.3333333,0,177.33333)">
    <g
       id="g10"
       transform="scale(0.1)">
      <path
         d="m 574.508,6.72656 c -24.496,0 -44.668,4.01174 -60.496,11.92184 -15.824,7.918 -28.301,18.543 -37.403,31.9883 -9.105,13.4414 -15.504,28.4024 -19.187,44.8828 -3.684,16.4765 -5.524,33.1715 -5.524,50.0855 0,7.805 0,16.04 0,24.708 0,8.683 0,17.574 0,26.675 V 358.633 H 552.711 V 212.922 c 0,-7.363 0,-14.527 0,-21.457 0,-6.945 0,-13.34 0,-19.195 0,-14.528 1.637,-27.864 4.891,-40 3.242,-12.141 9.32,-21.899 18.097,-29.278 8.781,-7.367 21.25,-11.0584 37.512,-11.0584 15.836,0 29.269,4.5547 40.328,13.5544 11.055,9 19.516,20.496 25.367,34.582 5.848,14.094 8.785,28.621 8.785,43.586 l 28.293,-23.093 c 0,-21.684 -3.25,-41.848 -9.867,-60.493 C 699.504,81.4219 690.07,65.1641 677.93,51.1758 665.785,37.1914 651.047,26.2344 633.59,18.4414 616.141,10.6289 596.406,6.72656 574.508,6.72656 Z M 1463.47,6.07422 c -25.15,0 -47.48,4.01558 -67.1,12.03518 -19.62,8.0273 -35.03,19.6211 -46.07,34.8008 -11.07,15.1757 -16.59,33.6132 -16.59,55.2928 0,24.5 6.71,44.442 20.16,59.836 13.45,15.402 31.32,27.215 53.55,35.344 22.23,8.133 46.29,13.449 72.31,16.047 37.95,3.687 64.18,7.05 78.6,10.082 8.32,1.746 21.58,5.523 21.58,16.156 0,13.922 -6.57,23.605 -18.33,30.68 -12.25,7.371 -29.37,11.054 -51.28,11.054 -23.2,0 -40.87,-4.117 -53.12,-12.468 -9.45,-6.438 -15.29,-15.52 -17.45,-27.207 h -99.75 c 1.78,22.968 9.22,42.703 22.24,59.187 15.07,19.086 35.45,33.613 61.25,43.481 25.8,9.863 54.97,14.742 87.48,14.742 30.36,0 58.44,-4.547 84.24,-13.77 25.8,-9.215 46.62,-23.09 62.34,-41.523 15.72,-18.43 23.52,-41.844 23.52,-70.246 0,-9.004 0,-17.993 0,-26.993 V 90.3125 c 0,-24.2695 3.8,-51.8086 18.56,-77.0781 h -103.13 c -7.59,14.9492 -8.87,24.5586 -11.89,36.5586 -3.84,-4.125 -8.14,-8 -12.93,-11.625 C 1558.12,27.8711 1542.07,19.9492 1523.54,14.4258 1505,8.89063 1484.94,6.07422 1463.47,6.07422 Z M 1581.52,168.59 c -7.69,-1.926 -15.84,-3.66 -24.49,-5.211 -18.76,-3.352 -37.51,-6.066 -56.16,-8.02 -22.12,-2.16 -38.59,-5.855 -49.54,-11.16 -10.95,-5.32 -16.48,-14.32 -16.48,-26.894 0,-11.922 4.66,-20.8167 13.99,-26.7737 9.32,-5.9649 23.2,-9 41.62,-9 15.83,0 30.68,2.9257 44.45,8.6718 13.78,5.7461 24.94,14.7419 33.61,27.1019 10.7,15.234 13.1,33.125 13,51.285 z M 1139.29,5.41797 c -20.59,0 -40.43,2.39453 -59.51,7.16403 -19.08,4.7657 -36.1,11.8164 -51.17,21.1446 -15.07,9.3242 -27,21.0273 -35.782,35.0156 -8.781,13.9844 -13.223,30.2422 -13.223,48.8948 0,0.855 0,1.953 0,3.14 0,1.188 0,2.067 0,2.715 h 100.175 c 0,-0.648 0,-1.304 0,-2.062 0,-0.762 0,-1.633 0,-2.496 0,-12.575 5.63,-21.7934 16.8,-27.641 11.16,-5.8633 26.23,-8.7891 45.31,-8.7891 9.97,0 19.63,1.0899 28.84,3.1406 9.22,2.0664 16.81,5.4297 22.77,10.086 5.96,4.6645 8.89,10.5195 8.89,17.6795 0,11.481 -6.29,19.61 -18.97,24.387 -12.69,4.766 -33.07,9.543 -61.04,14.308 -15.83,2.602 -31.87,6.286 -48.13,11.063 -16.27,4.762 -31.22,11.156 -44.89,19.078 -13.66,7.918 -24.61,17.996 -32.844,30.25 -8.243,12.242 -12.356,27.102 -12.356,44.656 0,23.422 7.149,43.149 21.35,59.196 14.21,16.047 33.07,28.191 56.7,36.425 23.64,8.243 49.66,12.364 78.06,12.364 27.11,0 52.36,-4.449 75.78,-13.442 23.41,-9 42.39,-21.902 56.91,-38.707 14.53,-16.804 21.79,-37.078 21.79,-60.707 0,-0.429 0,-1.082 0,-1.953 0,-0.871 0,-1.73 0,-2.601 h -99.19 c 0,0.871 0,1.621 0,2.273 0,0.645 0,1.199 0,1.633 0,8.668 -2.71,15.715 -8.24,21.137 -5.53,5.418 -12.58,9.543 -21.02,12.25 -8.46,2.707 -17.25,4.019 -26.36,4.019 -8.24,0 -16.69,-0.879 -25.47,-2.719 -8.78,-1.847 -16.27,-4.879 -22.33,-9.109 -6.07,-4.219 -9.11,-10.188 -9.11,-17.773 0,-7.375 3.25,-13.333 9.76,-18 6.51,-4.665 15.61,-8.458 27.32,-11.379 11.7,-2.93 25.26,-5.75 40.65,-8.352 14.53,-2.387 29.92,-5.641 46.07,-9.867 16.15,-4.223 31.33,-10.192 45.53,-17.887 14.21,-7.695 25.7,-17.781 34.48,-30.246 8.79,-12.465 13.12,-28.289 13.12,-47.375 0,-19.7343 -4.56,-36.6406 -13.66,-50.7382 -9.11,-14.0938 -21.35,-25.4766 -36.86,-34.2579 -15.5,-8.7812 -32.74,-15.2851 -51.71,-19.5117 -18.97,-4.23045 -38.49,-6.40623 -58.44,-6.40623 z M 8.39453,449.82 V 13.4805 H 112.762 V 151.93 h 153.676 c 193.238,0 196.589,297.89 -7.899,297.89 z M 258.539,358.387 c 72.875,0 71.074,-115.024 7.899,-115.024 H 112.762 V 358.387 Z M 939.348,449.82 V 13.2344 H 839.824 V 449.82 Z M 687.691,13.2344 V 358.633 H 788.508 V 13.2344 H 687.691"
         style="fill:#343334;fill-opacity:1;fill-rule:nonzero;stroke:none"
         id="path12" />
      <path
         d="M 975.332,1216.29 V 841.305 c 0,-133.442 -109.219,-242.641 -242.641,-242.641 h -0.011 c -133.43,0 -242.641,109.199 -242.641,242.641 v 362.485 c 0,6.88 5.613,12.5 12.5,12.5 h 472.793"
         style="fill:#42b9c0;fill-opacity:1;fill-rule:evenodd;stroke:none"
         id="path14" />
      <path
         d="m 612.84,1326.58 h 362.488 c 133.422,0 242.622,-109.2 242.622,-242.63 v -0.01 c 0,-133.444 -109.23,-242.639 -242.622,-242.639 H 692.047 600.34 v 1.988 470.801 c 0,6.87 5.613,12.49 12.5,12.49"
         style="fill:#4b60b6;fill-opacity:1;fill-rule:evenodd;stroke:none"
         id="path16" />
      <path
         d="M 975.328,841.301 H 710.637 l -88.969,-88.973 c -3.648,-3.648 -8.844,-4.68 -13.613,-2.707 -4.77,1.984 -7.715,6.391 -7.715,11.543 v 80.137 374.989 h 362.488 c 6.887,0 12.5,-5.61 12.5,-12.5 V 841.301"
         style="fill:#352f91;fill-opacity:1;fill-rule:evenodd;stroke:none"
         id="path18" />
    </g>
  </g>
</svg>
