<?xml version="1.0" encoding="UTF-8" standalone="no"?>
<!-- Created with Inkscape (http://www.inkscape.org/) -->

<svg
   version="1.1"
   id="svg2"
   xml:space="preserve"
   width="225.49539"
   height="176.15494"
   viewBox="0 0 225.49539 176.15494"
   sodipodi:docname="a45a38ea0de704c9f72b37dff523522f.eps"
   xmlns:inkscape="http://www.inkscape.org/namespaces/inkscape"
   xmlns:sodipodi="http://sodipodi.sourceforge.net/DTD/sodipodi-0.dtd"
   xmlns="http://www.w3.org/2000/svg"
   xmlns:svg="http://www.w3.org/2000/svg"><defs
     id="defs6" /><sodipodi:namedview
     id="namedview4"
     pagecolor="#ffffff"
     bordercolor="#666666"
     borderopacity="1.0"
     inkscape:pageshadow="2"
     inkscape:pageopacity="0.0"
     inkscape:pagecheckerboard="0" /><g
     id="g8"
     inkscape:groupmode="layer"
     inkscape:label="ink_ext_XXXXXX"
     transform="matrix(1.3333333,0,0,-1.3333333,-1.1192706,176.87733)"><g
       id="g10"
       transform="scale(0.1)"><path
         d="m 574.508,6.73047 c -24.496,0 -44.668,4.00783 -60.496,11.91793 -15.824,7.918 -28.297,18.543 -37.399,31.9883 -9.109,13.4414 -15.508,28.4024 -19.191,44.8828 -3.684,16.4765 -5.524,33.1685 -5.524,50.0855 0,7.805 0,16.04 0,24.711 0,8.68 0,17.571 0,26.672 V 358.633 H 552.711 V 212.926 c 0,-7.367 0,-14.531 0,-21.465 0,-6.941 0,-13.336 0,-19.191 0,-14.528 1.637,-27.864 4.887,-40 3.246,-12.141 9.324,-21.899 18.101,-29.278 8.781,-7.367 21.254,-11.0584 37.512,-11.0584 15.832,0 29.269,4.5547 40.328,13.5544 11.055,9 19.516,20.496 25.367,34.582 5.848,14.094 8.785,28.621 8.785,43.582 l 28.297,-23.086 c 0,-21.687 -3.254,-41.855 -9.871,-60.496 C 699.5,81.4219 690.07,65.1641 677.93,51.1758 665.785,37.1914 651.047,26.2344 633.586,18.4414 616.137,10.6289 596.402,6.73047 574.508,6.73047 Z M 612.84,1326.58 h 362.488 c 133.422,0 242.622,-109.2 242.622,-242.63 v -0.01 C 1217.95,950.496 1108.72,841.305 975.332,841.301 975.328,707.859 866.105,598.664 732.691,598.664 h -0.011 c -133.43,0 -242.641,109.199 -242.641,242.641 v 362.485 c 0,6.88 5.617,12.5 12.5,12.5 H 600.34 V 841.301 761.164 c 0,-5.152 2.945,-9.559 7.715,-11.543 4.769,-1.973 9.965,-0.941 13.613,2.707 l 88.973,88.973 H 975.328 V 1203.8 l -0.004,0.31 v 0.01 l -0.011,0.31 v 0.01 l -0.02,0.3 v 0.01 l -0.027,0.3 -0.004,0.02 -0.032,0.29 -0.003,0.03 -0.036,0.27 -0.007,0.04 -0.043,0.26 -0.008,0.04 -0.051,0.26 -0.008,0.05 -0.054,0.25 -0.012,0.05 -0.059,0.25 -0.015,0.05 -0.063,0.24 -0.019,0.06 -0.067,0.23 -0.019,0.06 -0.071,0.23 -0.023,0.06 -0.078,0.22 -0.024,0.07 -0.082,0.21 -0.031,0.08 -0.078,0.2 -0.035,0.08 -0.082,0.19 -0.043,0.09 -0.125,0.27 -0.086,0.18 -0.051,0.1 -0.09,0.16 -0.051,0.1 -0.089,0.16 -0.059,0.1 -0.09,0.16 -0.062,0.11 -0.094,0.14 -0.067,0.11 -0.089,0.14 -0.078,0.11 -0.09,0.13 -0.078,0.12 -0.094,0.12 -0.086,0.12 -0.09,0.12 -0.094,0.12 -0.09,0.11 -0.097,0.12 -0.09,0.11 -0.106,0.12 -0.085,0.1 -0.114,0.13 -0.086,0.09 -0.117,0.13 -0.082,0.09 -0.129,0.12 -0.082,0.08 -0.133,0.13 -0.078,0.08 -0.14,0.13 -0.079,0.07 -0.148,0.13 -0.074,0.06 -0.156,0.13 -0.071,0.06 -0.16,0.13 -0.07,0.05 -0.168,0.13 -0.067,0.05 -0.179,0.13 -0.059,0.04 -0.187,0.13 -0.055,0.04 -0.195,0.13 -0.055,0.03 -0.203,0.13 -0.051,0.03 -0.207,0.12 -0.047,0.03 -0.219,0.12 -0.039,0.02 -0.226,0.12 -0.039,0.02 -0.235,0.11 -0.031,0.02 -0.242,0.11 -0.027,0.02 -0.25,0.1 -0.024,0.02 -0.262,0.1 -0.015,0.01 -0.266,0.1 -0.016,0.01 -0.273,0.09 -0.012,0.01 -0.281,0.09 h -0.004 l -0.289,0.08 h -0.004 l -0.289,0.08 h -0.008 l -0.285,0.07 -0.015,0.01 -0.282,0.06 -0.019,0.01 -0.281,0.05 h -0.028 l -0.273,0.05 h -0.035 l -0.274,0.04 -0.039,0.01 -0.266,0.03 -0.046,0.01 -0.262,0.02 h -0.055 l -0.258,0.02 h -0.058 l -0.254,0.02 H 962.828 600.34 v 97.8 c 0,6.88 5.613,12.49 12.5,12.49 z M 1463.47,6.07422 c -25.15,0 -47.48,4.01558 -67.1,12.03518 -19.62,8.0273 -35.03,19.6211 -46.07,34.8008 -11.07,15.1757 -16.59,33.6132 -16.59,55.2928 0,24.5 6.71,44.442 20.16,59.836 13.45,15.402 31.33,27.215 53.55,35.34 22.23,8.137 46.29,13.453 72.31,16.051 37.95,3.687 64.18,7.05 78.6,10.082 8.32,1.746 21.57,5.519 21.57,16.156 0,13.922 -6.56,23.605 -18.32,30.68 -12.25,7.371 -29.37,11.054 -51.28,11.054 -23.2,0 -40.87,-4.117 -53.12,-12.468 -9.45,-6.438 -15.29,-15.52 -17.45,-27.211 h -99.75 c 1.78,22.972 9.22,42.707 22.24,59.191 15.07,19.086 35.45,33.613 61.25,43.481 25.8,9.859 54.97,14.742 87.48,14.742 30.36,0 58.44,-4.551 84.24,-13.77 25.8,-9.215 46.62,-23.09 62.34,-41.523 15.72,-18.43 23.52,-41.844 23.52,-70.246 0,-9.004 0,-17.993 0,-26.993 V 90.3125 c 0,-24.2695 3.8,-51.8086 18.56,-77.0781 h -103.13 c -7.58,14.9492 -8.87,24.5586 -11.89,36.5586 -3.84,-4.125 -8.14,-8 -12.93,-11.625 C 1558.12,27.8711 1542.07,19.9492 1523.54,14.4297 1505,8.89063 1484.94,6.07422 1463.47,6.07422 Z M 1581.52,168.59 c -7.69,-1.926 -15.84,-3.66 -24.49,-5.211 -18.76,-3.352 -37.51,-6.066 -56.16,-8.02 -22.12,-2.16 -38.59,-5.855 -49.54,-11.156 -10.95,-5.324 -16.48,-14.324 -16.48,-26.898 0,-11.922 4.66,-20.8167 13.99,-26.7737 9.32,-5.9649 23.2,-9 41.62,-9 15.83,0 30.68,2.9257 44.46,8.6679 13.77,5.75 24.93,14.7458 33.6,27.1058 10.7,15.234 13.1,33.125 13,51.285 z M 1139.29,5.41797 c -20.59,0 -40.43,2.39453 -59.51,7.16403 -19.08,4.7657 -36.1,11.8164 -51.18,21.1446 -15.06,9.3203 -26.99,21.0273 -35.772,35.0156 -8.781,13.9844 -13.223,30.2422 -13.223,48.8948 0,0.855 0,1.953 0,3.14 0,1.188 0,2.067 0,2.715 h 100.175 c 0,-0.648 0,-1.304 0,-2.062 0,-0.762 0,-1.633 0,-2.496 0,-12.571 5.63,-21.7934 16.8,-27.641 11.16,-5.8633 26.23,-8.7891 45.31,-8.7891 9.97,0 19.63,1.0899 28.85,3.1445 9.21,2.0586 16.8,5.4258 22.76,10.0821 5.96,4.6645 8.89,10.5195 8.89,17.6795 0,11.481 -6.29,19.61 -18.97,24.387 -12.68,4.766 -33.07,9.543 -61.04,14.308 -15.83,2.602 -31.86,6.286 -48.13,11.063 -16.27,4.762 -31.22,11.156 -44.89,19.082 -13.66,7.914 -24.61,17.992 -32.844,30.246 -8.243,12.242 -12.356,27.102 -12.356,44.656 0,23.422 7.149,43.149 21.36,59.196 14.2,16.043 33.06,28.195 56.69,36.425 23.64,8.243 49.66,12.364 78.06,12.364 27.11,0 52.36,-4.449 75.78,-13.442 23.41,-8.996 42.39,-21.902 56.91,-38.707 14.53,-16.804 21.79,-37.078 21.79,-60.707 0,-0.429 0,-1.082 0,-1.953 0,-0.871 0,-1.73 0,-2.605 h -99.19 c 0,0.875 0,1.625 0,2.277 0,0.645 0,1.199 0,1.633 0,8.664 -2.71,15.719 -8.24,21.137 -5.53,5.418 -12.58,9.543 -21.03,12.25 -8.45,2.707 -17.24,4.019 -26.35,4.019 -8.24,0 -16.69,-0.879 -25.47,-2.719 -8.78,-1.843 -16.27,-4.879 -22.33,-9.109 -6.07,-4.223 -9.11,-10.184 -9.11,-17.773 0,-7.375 3.25,-13.333 9.76,-18 6.51,-4.665 15.61,-8.454 27.32,-11.379 11.7,-2.93 25.26,-5.746 40.65,-8.352 14.53,-2.387 29.92,-5.641 46.07,-9.867 16.15,-4.227 31.33,-10.192 45.53,-17.887 14.21,-7.699 25.7,-17.781 34.48,-30.246 8.79,-12.465 13.12,-28.289 13.12,-47.375 0,-19.7343 -4.56,-36.6406 -13.66,-50.7382 -9.11,-14.0938 -21.35,-25.4766 -36.86,-34.2579 -15.5,-8.7812 -32.74,-15.2851 -51.71,-19.5117 -18.97,-4.23045 -38.49,-6.40623 -58.44,-6.40623 z M 8.39453,449.82 V 13.4805 H 112.762 V 151.93 h 153.672 c 193.242,0 196.593,297.89 -7.895,297.89 z M 258.539,358.391 c 72.879,0 71.074,-115.024 7.895,-115.024 H 112.762 V 358.391 Z M 939.348,449.82 V 13.2344 H 839.824 V 449.82 Z M 687.691,13.2344 V 358.633 H 788.508 V 13.2344 H 687.691"
         style="fill:#181a21;fill-opacity:1;fill-rule:nonzero;stroke:none"
         id="path12" /></g></g></svg>
